<svg width="236" height="236" viewBox="0 0 236 236" fill="none" xmlns="http://www.w3.org/2000/svg">
<rect width="236" height="236" rx="118" fill="#10389B"/>
<path d="M117.869 56.6768C117.869 56.6768 118.06 56.5897 118.426 56.5375C118.792 56.5027 119.331 56.4156 120.011 56.2763C120.707 56.137 121.56 55.9454 122.535 55.6145C123.511 55.2837 124.625 54.8484 125.844 54.2738C126.662 53.8907 127.516 53.4379 128.421 52.933C129.327 52.4106 130.267 51.8359 131.294 51.2613C132.426 50.8956 133.158 49.6593 134.481 49.3459C135.682 48.7886 136.832 48.0399 138.085 47.3085C139.357 46.5772 140.819 46.1767 142.23 45.4279C142.909 44.9403 143.745 44.8184 144.563 44.7313C144.981 44.6965 145.399 44.6617 145.817 44.5747C146.235 44.5224 146.653 44.3831 147.071 44.1915C147.506 44.1219 147.941 44.0523 148.394 44.0349C148.62 44.0349 148.847 44 149.073 44C149.3 44 149.526 44 149.77 44C150.693 44.0522 151.615 44.209 152.538 44.4702C153.409 44.8707 154.28 45.2189 155.185 45.602C156.073 45.9851 156.961 46.4031 157.78 46.9777C158.441 47.7439 159.138 48.4578 159.834 49.1718C160.548 49.8857 161.262 50.5996 161.976 51.3832C162.621 53.4379 163.543 55.1793 164.728 57.0947C165.041 58.1221 165.233 59.2017 165.389 60.2987C165.546 61.3957 165.633 62.4928 165.79 63.6247C165.842 65.8361 165.859 68.065 165.494 70.3287C165.633 72.6446 165.18 74.9954 164.223 77.2069C163.996 79.6273 162.986 81.8911 161.75 84.0155C161.123 85.0777 160.653 86.2095 160.113 87.324C159.591 88.4384 159.016 89.5355 158.232 90.5106C156.944 92.6176 155.76 94.7419 154.802 96.8663C154.28 97.9111 153.844 99.0082 153.653 100.14C153.653 100.175 153.618 100.349 153.618 100.471L153.566 100.871C153.531 101.15 153.514 101.411 153.496 101.672L153.426 102.491V102.7C153.426 102.7 153.357 102.717 153.339 102.735H153.235H152.834C152.295 102.735 151.755 102.769 151.198 102.804H150.78C150.675 102.839 150.606 102.856 150.518 102.856L150.031 102.926C147.454 103.031 144.859 103.17 142.23 102.944C139.6 103.396 136.954 103.205 134.272 102.944C131.59 103.013 128.891 102.7 126.157 102.944C123.424 102.874 120.69 103.153 117.921 102.944C115.152 102.804 112.401 102.682 109.685 102.944C106.951 103.24 104.252 102.822 101.57 102.944C98.8884 102.508 96.2416 103.083 93.6122 102.944C90.9829 102.978 88.3883 102.7 85.8111 102.926H85.3236L84.6271 102.961C84.035 102.961 83.4255 102.961 82.8335 102.996H82.3808H82.2589H82.2066C82.2066 102.996 82.1892 102.996 82.1718 102.996V102.961L82.1544 102.752L82.0673 101.881L81.9803 100.993L81.928 100.541C81.928 100.401 81.8932 100.21 81.8932 100.175C81.7191 99.0604 81.4056 97.9634 81.0399 96.849C80.2912 95.8913 79.7862 94.8464 79.2812 93.7494C78.7762 92.6524 78.2887 91.5031 77.5921 90.4932C76.5648 88.2469 75.0498 86.2618 74.0747 83.9981C73.5 82.9185 73.0995 81.7518 72.7339 80.6025C72.5597 80.0279 72.3682 79.4532 72.1941 78.8786C72.107 78.5826 72.0025 78.304 71.898 78.0254C71.7936 77.7468 71.7065 77.4681 71.5846 77.1895C71.01 74.8909 70.3134 72.6272 70.3134 70.3113C70.0174 69.1968 70 68.0475 70.0174 66.9331C70.0174 66.6545 70.0174 66.3759 70.0174 66.0973C70.0174 65.8187 70.0348 65.5401 70.0522 65.2615C70.0522 64.9829 70.0522 64.7042 70.0522 64.443C70.0522 64.1644 70.0174 63.9033 70 63.6072C70.0174 61.3609 70.3657 59.1321 71.0622 57.0773C71.6194 56.1196 72.0199 55.1445 72.4204 54.1693C72.8209 53.1942 73.2388 52.2191 73.7961 51.3484C74.4055 50.5126 74.9802 49.6593 75.6593 48.8757C76.3384 48.1095 77.0872 47.413 77.9926 46.9603C78.8111 46.3856 79.6817 45.9155 80.5698 45.5324C81.4579 45.1319 82.3459 44.801 83.234 44.4702C84.1395 44.1916 85.1146 44.2438 86.0201 44.296C86.2465 44.3134 86.4728 44.3309 86.6992 44.3309C86.9256 44.3309 87.1345 44.3657 87.3609 44.3483C87.7962 44.3483 88.2316 44.2961 88.6843 44.1742C89.1196 44.1742 89.5376 44.2787 89.9555 44.3831C90.3734 44.505 90.7739 44.6443 91.157 44.7836C91.9406 45.0796 92.6893 45.3408 93.5078 45.4105C93.9257 45.4453 94.3088 45.5324 94.6744 45.6717C95.0401 45.7936 95.3884 45.9677 95.7192 46.1592C96.0501 46.3333 96.3809 46.5423 96.6944 46.7339C97.0078 46.9254 97.3212 47.117 97.6521 47.2911C98.9407 47.9702 100.125 48.6493 101.257 49.3284C103.782 50.8434 105.993 52.219 107.996 53.2812C109.981 54.3609 111.739 55.1097 113.219 55.5972C114.7 56.0674 115.866 56.2937 116.667 56.4156C117.468 56.5375 117.886 56.5723 117.886 56.6594C117.886 56.6942 117.764 56.7291 117.503 56.7639C117.242 56.7987 116.859 56.8335 116.354 56.8161C115.344 56.8161 113.812 56.642 111.931 56.0847C110.991 55.8061 109.963 55.4231 108.849 54.9529C107.752 54.4828 106.568 53.9081 105.331 53.2638C104.095 52.6195 102.772 51.8882 101.379 51.122C99.9855 50.3559 98.5053 49.5548 96.9382 48.7886C95.667 48.1792 94.2217 47.918 92.9331 47.117C91.5227 46.612 89.9903 46.4901 88.4754 46.1245C88.0749 46.2115 87.6918 46.2289 87.2913 46.2637C87.0997 46.2637 86.9082 46.2637 86.7166 46.2637C86.5251 46.2637 86.3335 46.2637 86.142 46.2637C85.3758 46.2637 84.5574 46.2811 83.7738 46.4726C82.224 46.8906 80.6046 47.5349 79.316 48.719C78.7066 49.3459 78.0449 49.9031 77.4006 50.5299C76.7563 51.1394 76.1468 51.836 75.7115 52.6544C74.4404 54.03 73.6568 55.8583 73.3607 57.7912C72.9428 58.6793 72.7339 59.6544 72.6294 60.647C72.5249 61.6395 72.5249 62.6496 72.5075 63.6595C72.4378 63.9033 72.403 64.1644 72.3682 64.443C72.3334 64.7042 72.316 64.9655 72.316 65.2441C72.316 65.5053 72.316 65.7839 72.316 66.0451C72.316 66.3063 72.3508 66.5849 72.3682 66.8461C72.4553 67.9083 72.6816 68.9705 72.8732 70.0501C73.2737 72.1745 73.4478 74.3859 74.1443 76.5103C74.6667 78.687 75.6245 80.7592 76.5299 82.8662C77.6966 84.8687 78.9155 86.8538 79.9603 89.0653C81.3186 91.0852 82.5897 93.2967 83.6345 95.7694C84.2266 96.9709 84.6445 98.3291 84.836 99.7395C84.836 99.8614 84.836 99.8266 84.836 99.844V99.8789C84.836 99.8789 84.836 99.9311 84.836 99.9485C84.836 100.001 84.8186 100.053 84.8708 100.053C84.9057 100.053 84.9579 100.053 85.0101 100.053H85.7589C88.3361 99.9485 90.9306 100.506 93.56 100.036C96.1894 99.9659 98.8362 100.105 101.518 100.036C104.199 100.105 106.898 100.157 109.632 100.036C112.349 100.523 115.1 100.227 117.869 100.036C120.637 99.8962 123.389 99.9659 126.105 100.036C128.822 99.9833 131.538 100.018 134.22 100.036C136.901 99.8962 139.548 100.244 142.178 100.036C144.807 99.8266 147.401 100.262 149.979 100.053H150.466L150.693 100.018H150.727C150.727 100.018 150.78 99.9833 150.814 99.9659C150.849 99.9659 150.814 99.9137 150.814 99.8963C150.814 99.8963 150.814 99.8789 150.814 99.8615C150.814 99.8615 150.814 99.8614 150.814 99.7395C151.023 98.3291 151.476 96.9882 152.103 95.7867C152.625 94.533 153.322 93.436 154.001 92.3564C154.68 91.2768 155.324 90.2319 155.777 89.0653C156.369 87.9857 156.839 86.8886 157.344 85.8264C157.867 84.7642 158.424 83.7542 159.208 82.8488C159.626 81.7691 160.131 80.7592 160.601 79.7144C160.827 79.192 161.053 78.6697 161.21 78.1299C161.297 77.8687 161.384 77.59 161.454 77.3288C161.524 77.0502 161.576 76.7716 161.611 76.493C162.15 75.4831 162.394 74.386 162.551 73.3064C162.708 72.2094 162.76 71.1123 162.882 70.0327C163.213 67.9083 163.474 65.7317 163.247 63.6595C163.126 62.6496 163.073 61.657 162.969 60.6644C162.864 59.6893 162.725 58.6967 162.394 57.7912C161.976 56.9031 161.715 55.9977 161.402 55.0922C161.071 54.2041 160.688 53.3335 160.043 52.6544C159.051 51.0872 157.762 49.8334 156.439 48.719C155.551 48.4752 154.872 48.0399 154.175 47.6045C153.479 47.1692 152.782 46.699 151.999 46.4726C151.215 46.2289 150.414 46.2115 149.63 46.2115C149.439 46.2115 149.247 46.2115 149.056 46.2115C148.864 46.2115 148.673 46.2115 148.481 46.2115C148.098 46.1941 147.698 46.1767 147.297 46.0896C146.931 46.2463 146.566 46.3856 146.183 46.4726C145.817 46.5771 145.434 46.6294 145.068 46.699C144.319 46.8209 143.571 46.908 142.839 47.0996C141.377 47.4653 140.21 48.3881 138.834 48.7712C137.755 49.7115 136.309 49.8856 135.23 50.6344C133.993 51.0697 133.018 51.8882 131.956 52.428C130.963 53.0723 129.971 53.6121 128.978 53.9778C128.021 54.448 127.133 54.8658 126.262 55.1966C124.973 55.719 123.789 56.0848 122.744 56.346C121.7 56.5898 120.794 56.7116 120.08 56.7639C119.349 56.7987 118.792 56.7987 118.426 56.7639C118.06 56.7291 117.869 56.6768 117.869 56.642V56.6768Z" fill="white"/>
<path d="M150.414 53.5948C150.536 53.4555 150.849 53.5078 151.337 53.7167C151.424 53.7516 151.493 53.7864 151.598 53.8386C151.702 53.8735 151.807 53.8908 151.876 53.9953C151.789 54.2391 152.347 53.8212 152.19 54.1695C152.19 54.3262 152.364 54.3611 152.503 54.3959C152.66 54.4307 152.59 54.6918 152.834 54.657C153.27 54.4306 152.66 55.2317 153.2 54.9357C153.409 54.9531 153.478 55.1098 153.583 55.2491C153.426 55.6148 153.792 55.5103 153.966 55.5974C153.74 56.0153 154.001 56.0327 154.349 55.9804C154.001 56.5028 154.192 56.5725 154.75 56.3983C154.889 56.5376 154.802 56.8511 155.133 56.8685C155.272 57.0078 155.498 57.1297 155.533 57.3735C155.986 57.3386 156.108 57.5303 155.934 57.8959C156.404 57.8611 156.386 58.1571 156.299 58.4705C156.195 58.7839 156.857 58.6969 156.665 59.08C156.752 59.3064 156.961 59.4805 156.996 59.7243C156.944 60.0203 156.857 60.3163 157.327 60.4033C157.536 60.5949 157.745 60.8039 157.605 61.1173C158.128 61.2044 158.023 61.5352 157.867 61.8661C158.041 62.0925 157.762 62.4407 158.076 62.6323C158.076 62.9109 158.406 63.1199 158.267 63.4333C158.197 63.7293 158.093 64.0079 158.389 64.2342C158.72 64.4606 158.337 64.7741 158.493 65.0353C158.093 65.3313 158.668 65.5403 158.528 65.8189C158.581 66.0801 158.302 66.3413 158.546 66.5851C158.633 66.8289 158.702 67.0901 158.511 67.3338C159.155 67.595 158.319 67.8214 158.459 68.0652C158.18 68.2915 158.459 68.5354 158.354 68.7617C158.459 69.0055 158.006 69.1797 158.25 69.4234C158.215 69.5279 158.25 69.6498 158.267 69.7543C158.267 69.8588 158.267 69.9632 158.11 70.0503C158.389 70.3115 157.762 70.4159 157.954 70.6597C157.919 70.8687 157.901 71.0602 157.797 71.2344C157.257 71.304 157.623 71.5826 157.605 71.7742C157.501 71.9309 157.797 72.2095 157.414 72.2791C157.327 72.4358 157.066 72.5404 157.222 72.7667C157.257 72.9409 156.404 72.8712 157.013 73.2021C157.083 73.3936 156.421 73.3239 156.822 73.6025C157.187 73.8637 156.682 73.8638 156.63 73.9683C156.561 74.0901 156.508 74.1946 156.439 74.2991C155.847 75.2394 155.377 75.7096 155.133 75.6051C154.993 75.5529 154.924 75.3091 154.906 74.9434C154.906 74.7518 154.906 74.5429 154.941 74.2817C154.976 74.0379 155.011 73.7419 155.046 73.4284C155.046 73.3066 154.75 73.0627 155.098 73.0279C155.15 72.906 154.924 72.6796 155.168 72.61C154.75 72.3314 155.168 72.314 155.237 72.1746C155.237 72.0179 155.446 71.9135 155.289 71.7046C155.063 71.4782 155.498 71.4259 155.359 71.2169C155.69 71.1299 155.655 70.9384 155.429 70.712C155.742 70.5901 155.429 70.3463 155.481 70.1722C155.951 70.0677 155.673 69.8239 155.533 69.615C155.464 69.5105 155.498 69.4234 155.533 69.3363C155.568 69.2492 155.603 69.1622 155.568 69.0577C155.673 68.8836 155.498 68.6572 155.603 68.4656C155.411 68.2567 155.377 68.0478 155.62 67.8562C155.481 67.6473 155.62 67.4383 155.62 67.2294C155.446 67.0204 155.655 66.8115 155.62 66.6025C155.516 66.3936 156.056 66.1497 155.568 65.9581C155.498 65.7492 155.62 65.5228 155.516 65.3139C155.551 65.0875 155.585 64.8611 155.411 64.6521C155.847 64.3561 155.533 64.1647 155.307 63.9905C155.115 63.799 155.133 63.5725 155.15 63.3462C155.046 63.1372 155.046 62.9108 154.993 62.7019C154.784 62.5452 155.046 62.2318 154.802 62.075C154.541 61.9531 154.889 61.5875 154.61 61.4656C154.401 61.3263 154.245 61.1696 154.384 60.891C154.297 60.6994 154.61 60.3163 154.158 60.3163C153.966 60.177 153.409 60.2815 153.896 59.7765C153.653 59.6894 153.983 59.2715 153.653 59.2541C153.983 58.8362 153.461 58.9233 153.374 58.7666C153.357 58.5576 153.374 58.3138 153.095 58.279C152.799 58.279 153.008 57.8959 152.834 57.8262C152.503 57.861 152.904 57.3387 152.556 57.3909C152.503 57.2168 152.312 57.1645 152.294 56.973C151.685 57.2864 152.103 56.7292 152.033 56.5725C151.998 56.3984 151.511 56.6596 151.772 56.2068C151.302 56.4506 151.528 56.0501 151.528 55.8585C151.528 55.667 151.197 55.8237 151.319 55.5277C150.988 55.6844 151.284 55.2143 151.128 55.2317C151.197 54.9879 150.971 55.075 150.936 54.9531C150.797 54.9531 150.762 54.8486 150.779 54.6919C150.727 54.6048 150.675 54.5351 150.64 54.4655C150.396 54.0127 150.309 53.6993 150.431 53.56L150.414 53.5948Z" fill="white"/>
<path d="M89.3296 101.533C89.5211 101.533 89.6952 103.1 89.852 105.973C89.8868 106.461 89.9042 106.966 89.939 107.523C89.9913 108.08 90.0435 108.655 90.0087 109.282C89.7649 109.909 90.4614 110.553 90.0783 111.232C89.9739 111.911 90.0783 112.642 90.148 113.391C90.148 113.478 90.148 113.565 90.1654 113.652C90.1654 113.722 90.1654 113.861 90.1654 113.879C90.1654 113.966 90.1654 114.07 90.1306 114.175C90.1132 114.366 90.0957 114.61 90.1654 114.732C90.2002 114.732 90.2525 114.715 90.2873 114.697C90.4963 114.575 90.5833 114.558 90.653 114.575C90.7226 114.575 90.7923 114.662 90.8968 114.715C90.949 114.749 91.0012 114.767 91.0535 114.784C91.158 114.802 91.2624 114.819 91.3669 114.819C91.5759 114.819 91.8022 114.767 92.0112 114.627C92.8819 114.506 93.7699 114.54 94.7102 114.558C95.6331 114.924 96.5909 114.558 97.566 114.488C98.5411 114.924 99.5511 114.732 100.578 114.436C101.606 115.028 102.668 114.941 103.748 114.384C104.827 114.366 105.924 114.593 107.056 114.331C108.188 114.297 109.337 114.175 110.504 114.279C111.671 113.879 112.872 113.896 114.074 114.244C115.293 113.809 116.512 113.983 117.765 114.21C119.019 114.453 120.29 113.826 121.579 114.175C122.867 114.21 124.173 114.07 125.497 114.157C126.82 114.332 128.161 114.523 129.502 114.14C130.86 114.035 132.218 113.896 133.611 114.14C134.987 113.687 136.38 113.879 137.79 114.14C139.201 114.07 140.611 114.384 142.057 114.14C142.771 114.175 143.484 114.14 144.216 114.088H144.494C144.494 114.088 144.703 114.07 144.686 114.07C144.703 114.07 144.721 114.07 144.738 114.07C144.773 114.07 144.825 114.088 144.93 114.14C144.93 114.14 144.999 114.088 145.034 114.018C145.034 113.983 145.052 113.948 145.069 113.914C145.069 113.914 145.069 113.792 145.069 113.722V113.443C145.087 112.712 145.069 111.998 144.93 111.284C144.634 109.856 145.052 108.428 144.93 107.018C145.139 106.321 145.104 105.608 145.034 104.911C144.999 104.563 144.965 104.214 144.93 103.866C144.93 103.692 144.912 103.518 144.912 103.344C144.912 103.292 144.912 103.291 144.912 103.291C144.912 103.291 144.912 103.239 144.93 103.222C144.93 103.152 144.93 103.1 144.965 102.996C144.912 102.961 144.825 102.926 144.721 102.926H144.599C144.477 102.926 144.355 102.926 144.251 102.926C144.007 102.926 143.781 102.961 143.537 102.996C142.179 103.065 140.855 103.152 139.532 102.978C138.208 103.64 136.902 102.804 135.614 102.943C134.325 102.665 133.054 102.978 131.8 102.908C130.547 103.03 129.31 102.612 128.109 102.874C126.907 102.821 125.706 103.083 124.539 102.839C123.372 103.17 122.223 102.56 121.091 102.787C119.959 102.787 118.862 102.804 117.783 102.734C116.703 102.212 115.641 102.647 114.613 102.682C113.586 102.63 112.576 102.978 111.601 102.63C110.626 102.595 109.668 102.369 108.745 102.578C107.822 102.647 106.917 101.829 106.046 102.508C105.176 102.63 104.34 101.986 103.521 102.438C102.703 102.856 101.937 102.386 101.188 102.369C100.439 102.351 99.7252 102.316 99.0461 102.299C92.8819 102.073 89.347 101.811 89.347 101.55C89.347 101.237 93.7177 100.958 101.205 100.714C101.954 100.697 102.738 100.331 103.539 100.645C104.357 100.645 105.193 100.366 106.064 100.575C106.934 100.105 107.822 100.488 108.763 100.505C109.686 100.488 110.643 100.645 111.618 100.436C112.594 100.157 113.604 100.575 114.631 100.384C115.658 100.68 116.72 100.593 117.8 100.331C118.88 100.627 119.977 100.279 121.109 100.279C122.24 100.714 123.39 100.418 124.556 100.227C125.723 100.07 126.925 100.296 128.126 100.192C129.345 100.279 130.564 100.087 131.818 100.157C133.071 99.9482 134.343 99.8786 135.631 100.122C136.92 99.9831 138.226 100.088 139.549 100.088C140.873 99.9134 142.213 100.105 143.554 100.07C143.798 100.07 144.024 100.07 144.268 100.07L144.616 100.105C144.616 100.105 144.79 100.105 144.895 100.122H145.226C146.079 100.192 146.88 100.262 147.716 100.262C147.716 100.993 147.768 101.655 147.925 102.404V103.326V103.849C147.925 104.197 147.925 104.545 147.907 104.894C147.907 105.59 147.873 106.287 147.907 107.001C147.855 108.411 147.786 109.821 147.907 111.267C147.664 111.981 147.629 112.695 147.664 113.426C147.751 114.645 147.838 115.881 147.907 117.118C147.263 117.152 146.567 117.17 145.888 117.187H144.843H144.216C143.502 117.187 142.771 117.152 142.057 117.118C140.629 117.17 139.201 117.135 137.79 117.118C136.38 117.257 134.987 116.909 133.611 117.118C132.236 117.327 130.86 116.891 129.502 117.1C128.144 117.24 126.82 117.309 125.497 117.083C124.173 117.083 122.867 116.647 121.579 117.048C120.29 117.135 119.019 117.692 117.765 117.013C116.512 117.187 115.275 116.7 114.074 116.978C112.872 116.491 111.671 116.943 110.504 116.943C109.337 116.839 108.188 116.682 107.056 116.891C105.924 117.118 104.827 116.769 103.748 116.839C102.668 117.118 101.606 116.473 100.578 116.787C99.5511 116.717 98.5411 116.839 97.566 116.735C96.5909 117.396 95.6331 116.734 94.7102 116.682C93.7873 116.595 92.8819 117.118 92.0112 116.613C91.7848 116.735 91.5759 116.804 91.3669 116.822C91.2624 116.822 91.158 116.839 91.0361 116.822C90.8619 116.822 90.6704 116.822 90.4962 116.787C89.7823 116.717 89.2077 116.578 88.6505 116.526C88.5808 116.526 88.4937 116.508 88.4241 116.508C88.4589 115.899 88.4241 115.394 88.3718 114.836C88.3718 114.558 88.3544 114.279 88.3718 114.001C88.3718 113.844 88.3718 113.792 88.4067 113.687C88.4241 113.6 88.4415 113.513 88.4763 113.426C88.1281 112.677 88.6679 111.963 88.546 111.267C88.7723 110.588 88.546 109.926 88.6156 109.316C88.546 108.69 88.5634 108.115 88.7027 107.558C88.7375 107.001 88.7549 106.496 88.7898 106.008C88.9465 103.135 89.138 101.568 89.3122 101.568L89.3296 101.533Z" fill="white"/>
<path d="M97.9838 115.55C98.1579 115.55 98.3495 117.831 98.5062 122.01C98.5236 122.707 98.5584 123.456 98.5933 124.257C98.6455 125.058 98.6977 125.911 98.6629 126.799C98.4191 127.705 99.1157 128.645 98.7326 129.637C98.6281 130.63 98.7326 131.675 98.8022 132.754C98.8893 133.834 98.6455 134.983 98.8719 136.15C99.342 137.317 98.3495 138.553 98.9415 139.807C99.0634 141.061 99.0286 142.366 99.0112 143.707C98.6455 145.048 99.0112 146.424 99.0634 147.852C98.6281 149.28 98.8196 150.725 99.1157 152.222C98.5236 153.72 98.6107 155.252 99.1679 156.819C99.1853 158.387 98.9589 159.989 99.2201 161.625C99.255 163.262 99.3768 164.934 99.2724 166.623C99.4291 167.285 99.5162 167.964 99.551 168.643C99.551 168.991 99.5684 169.322 99.551 169.67V169.932C99.551 169.932 99.551 169.984 99.5336 169.984V170.001L99.4813 170.071C99.4813 170.071 99.4813 170.123 99.4813 170.175V170.21V170.245L99.551 170.297L99.7077 170.524C101.257 171.464 102.407 172.839 103.539 174.267C104.653 175.713 106.394 176.566 107.491 178.133C108.797 179.457 110.225 180.71 111.549 182.103C112.785 183.583 114.021 185.081 115.71 186.178C116.302 186.7 116.894 187.223 117.487 187.763L117.922 188.163L117.974 188.215H117.992C117.992 188.215 118.044 188.285 118.061 188.337C118.096 188.337 118.131 188.337 118.183 188.337C118.183 188.302 118.183 188.268 118.183 188.233C118.183 188.215 118.183 188.233 118.183 188.18L118.288 188.024C118.444 187.815 118.601 187.623 118.758 187.432C119.089 187.049 119.437 186.683 119.785 186.335C120.516 185.638 121.317 184.994 122.118 184.35C123.494 182.852 125.183 181.598 126.454 179.944C127.969 178.516 129.24 176.845 130.877 175.469C132.462 174.058 134.029 172.665 135.3 171.011C135.492 170.75 135.701 170.489 135.927 170.262L136.084 170.088C136.084 170.088 136.084 170.071 136.101 170.053C136.101 170.053 136.119 170.036 136.136 170.019C136.136 170.245 136.188 169.183 136.223 168.538C136.258 167.825 136.275 167.128 136.241 166.431C136.676 164.394 136.101 162.357 136.241 160.354C136.206 158.352 136.484 156.367 136.258 154.399C136.171 152.431 136.101 150.498 136.275 148.583C135.614 146.668 136.449 144.769 136.31 142.906C136.589 141.043 136.275 139.197 136.345 137.386C136.223 135.575 136.658 133.782 136.38 132.023C136.432 130.264 136.171 128.54 136.415 126.834C136.084 125.127 136.693 123.473 136.467 121.836V119.416C136.467 119.015 136.467 118.615 136.467 118.214C136.467 118.023 136.467 117.814 136.467 117.622V117.326C136.467 117.204 136.467 117.204 136.484 117.17C136.658 116.978 136.728 116.682 136.728 116.438C136.502 116.438 136.223 116.473 136.014 116.525H135.927L135.736 116.56L135.352 116.595C135.091 116.612 134.847 116.63 134.604 116.63C133.106 116.578 131.643 116.926 130.233 116.578C128.823 116.543 127.429 116.316 126.089 116.508C124.748 116.578 123.442 115.759 122.188 116.438C120.917 116.56 119.715 115.916 118.531 116.369C117.347 116.787 116.215 116.316 115.136 116.299C114.056 116.282 113.011 116.247 112.019 116.229C107.544 116.125 104.026 116.003 101.623 115.864C99.2201 115.742 97.9316 115.603 97.9316 115.463C97.9316 115.306 99.5162 115.167 102.459 115.028C105.402 114.889 109.703 114.749 115.136 114.645C116.215 114.627 117.347 114.262 118.531 114.575C119.715 114.575 120.917 114.296 122.188 114.505C123.442 114.035 124.748 114.418 126.089 114.436C127.429 114.418 128.823 114.575 130.233 114.366C131.661 114.088 133.106 114.505 134.604 114.314C134.847 114.366 135.109 114.401 135.352 114.436C135.474 114.436 135.614 114.471 135.736 114.471H135.927L136.223 114.488C137.024 114.505 137.825 114.488 138.678 114.453C138.713 115.219 138.783 116.003 138.87 116.874C138.835 117.274 138.8 117.379 138.783 117.605C138.783 117.797 138.748 118.005 138.748 118.197C138.748 118.597 138.748 118.998 138.783 119.398C138.835 120.199 138.922 121.001 138.905 121.819C138.469 123.456 138.765 125.11 138.957 126.817C139.114 128.506 138.887 130.247 138.992 132.006C138.905 133.764 139.096 135.558 139.027 137.369C139.236 139.18 139.305 141.026 139.061 142.889C139.201 144.752 139.096 146.65 139.096 148.566C139.27 150.481 139.079 152.414 139.114 154.382C139.201 156.349 138.644 158.334 139.114 160.337C139.183 162.339 139.044 164.359 139.114 166.414C139.114 167.111 139.079 167.825 139.061 168.521C139.061 169.287 139.044 169.67 139.061 171.237L138.435 171.882L138.139 172.195L137.964 172.369C137.738 172.613 137.529 172.857 137.32 173.101C135.509 174.233 134.255 175.939 132.897 177.576C131.504 179.178 129.989 180.606 128.474 182.034C127.046 183.549 125.584 184.994 124.121 186.422C123.459 187.205 122.693 187.884 121.962 188.564C121.596 188.912 121.213 189.26 120.865 189.608C120.691 189.782 120.516 189.974 120.342 190.148L119.506 191.054C119.001 191.611 118.479 192.168 117.957 192.691C117.417 192.151 116.877 191.593 116.337 191.054L115.606 190.287L115.205 189.852C114.666 189.26 114.126 188.685 113.499 188.198C112.001 186.909 110.574 185.603 109.372 184.088C108.014 182.748 106.969 181.093 105.35 180.083C103.957 178.83 102.267 177.924 101.449 176.183C100.039 175.034 99.1157 173.432 97.6704 172.387C97.5659 172.126 97.0609 171.551 96.6778 171.133C96.6778 170.837 96.6952 170.541 96.7126 170.262V169.862V169.601C96.7126 169.252 96.6778 168.922 96.643 168.573C96.5907 167.894 96.5211 167.215 96.5211 166.553C96.6082 164.864 96.7823 163.193 96.5733 161.556C96.347 159.919 96.6952 158.317 96.6256 156.75C96.347 155.183 96.9913 153.65 96.6778 152.153C96.7475 150.655 96.643 149.192 96.7301 147.782C96.0684 146.354 96.7301 144.978 96.7997 143.638C96.9042 142.297 96.3644 140.991 96.8694 139.737C96.3644 138.483 96.7997 137.264 96.939 136.08C97.0783 134.914 96.7301 133.764 97.0087 132.685C96.6604 131.605 97.2002 130.56 97.0783 129.568C97.3047 128.575 97.0783 127.618 97.148 126.729C97.0609 125.824 97.0957 124.988 97.2176 124.187C97.2524 123.386 97.2699 122.637 97.3047 121.941C97.4614 117.762 97.6355 115.481 97.8271 115.481L97.9838 115.55Z" fill="white"/>
<path d="M137.737 170.698C137.737 170.89 137.302 171.064 136.501 171.221C136.362 171.238 136.222 171.273 136.066 171.308C135.909 171.36 135.752 171.412 135.578 171.395C135.404 171.151 135.23 171.848 135.038 171.465C134.847 171.36 134.638 171.465 134.429 171.534C134.22 171.621 133.993 171.378 133.767 171.604C133.541 172.074 133.297 171.082 133.071 171.674C132.827 171.795 132.583 171.761 132.322 171.743C132.061 171.378 131.799 171.743 131.521 171.813C131.242 171.378 130.964 171.569 130.685 171.865C130.389 171.273 130.11 171.36 129.797 171.917C129.501 171.935 129.187 171.708 128.874 171.97C128.561 172.004 128.23 172.126 127.916 172.022C127.585 172.422 127.255 172.405 126.924 172.057C126.575 172.492 126.245 172.318 125.896 172.091C125.548 171.848 125.2 172.475 124.834 172.126C124.468 172.109 124.103 172.231 123.737 172.161C123.371 171.987 122.988 171.795 122.623 172.179C122.24 172.283 121.857 172.422 121.473 172.196C121.09 172.649 120.69 172.44 120.307 172.196C119.906 172.266 119.523 171.952 119.123 172.196C118.722 172.126 118.322 172.405 117.921 172.196C117.521 172.057 117.103 171.935 116.702 172.196C116.302 172.492 115.901 172.074 115.518 172.196C115.118 171.761 114.735 172.335 114.351 172.196C113.968 172.231 113.585 171.952 113.202 172.179C112.819 172.266 112.453 172.335 112.088 172.161C111.722 172.823 111.356 171.987 110.991 172.126C110.625 171.848 110.277 172.161 109.929 172.091C109.58 172.213 109.232 171.796 108.901 172.057C108.57 172.004 108.222 172.266 107.909 172.022C107.578 172.353 107.264 171.743 106.951 171.97C106.637 171.97 106.324 171.987 106.028 171.917C105.732 171.412 105.436 171.83 105.14 171.865C104.844 171.813 104.565 172.161 104.304 171.813C104.025 171.778 103.764 171.552 103.503 171.743C103.242 171.813 102.998 170.994 102.754 171.674C102.51 171.795 102.267 171.151 102.04 171.604C101.814 172.022 101.588 171.552 101.379 171.534C101.17 171.517 100.961 171.482 100.769 171.465C99.0453 171.238 98.0527 170.977 98.0527 170.698C98.0527 170.402 99.2717 170.106 101.361 169.863C101.57 169.845 101.797 169.479 102.023 169.793C102.249 169.793 102.476 169.514 102.737 169.723C102.981 169.253 103.224 169.636 103.486 169.654C103.747 169.636 104.008 169.776 104.287 169.584C104.565 169.305 104.844 169.723 105.122 169.532C105.418 169.828 105.697 169.741 106.011 169.479C106.307 169.758 106.62 169.41 106.933 169.427C107.247 169.863 107.56 169.549 107.891 169.375C108.222 169.218 108.553 169.445 108.884 169.34C109.215 169.427 109.563 169.236 109.911 169.305C110.259 169.096 110.625 169.027 110.973 169.271C111.339 169.131 111.705 169.236 112.07 169.236C112.436 169.062 112.819 169.253 113.185 169.218C113.568 169.131 113.951 169.689 114.334 169.201C114.717 169.131 115.1 169.271 115.501 169.201C115.901 169.271 116.284 169.323 116.685 169.201C117.085 169.689 117.486 169.392 117.904 169.201C118.304 169.062 118.705 169.131 119.105 169.201C119.506 169.149 119.906 169.184 120.289 169.201C120.69 169.062 121.073 169.41 121.456 169.201C121.839 168.992 122.222 169.41 122.605 169.218C122.988 169.079 123.354 169.009 123.72 169.236C124.085 169.236 124.451 169.671 124.817 169.271C125.182 169.183 125.531 168.626 125.879 169.305C126.227 169.131 126.575 169.619 126.906 169.34C127.237 169.828 127.585 169.358 127.899 169.375C128.23 169.462 128.543 169.636 128.857 169.427C129.17 169.201 129.483 169.549 129.78 169.479C130.076 169.201 130.372 169.845 130.668 169.532C130.964 169.601 131.242 169.479 131.503 169.584C131.782 168.922 132.043 169.584 132.304 169.654C132.566 169.741 132.809 169.218 133.053 169.723C133.297 169.218 133.523 169.654 133.75 169.793C133.976 169.932 134.202 169.584 134.411 169.863C134.62 169.514 134.829 170.054 135.021 169.932C135.212 170.159 135.387 169.932 135.561 170.002C135.735 169.932 135.892 169.95 136.048 170.089C136.205 170.124 136.344 170.141 136.484 170.176C137.285 170.333 137.72 170.507 137.72 170.698H137.737Z" fill="white"/>
<path d="M147.331 143.22C147.279 143.394 146.6 143.359 145.416 143.133C145.224 143.098 144.998 143.046 144.789 143.011C144.562 142.976 144.301 142.959 144.075 142.854C143.901 142.541 143.431 143.116 143.274 142.663C143.03 142.471 142.717 142.471 142.403 142.454C142.072 142.454 141.846 142.106 141.463 142.21C140.993 142.558 140.975 141.496 140.453 141.949C140.07 141.949 139.722 141.81 139.373 141.653C139.13 141.183 138.625 141.409 138.224 141.339C137.98 140.8 137.51 140.852 137.023 140.991C136.814 140.295 136.361 140.242 135.751 140.625C135.316 140.504 134.95 140.138 134.428 140.242C133.975 140.138 133.488 140.086 133.052 139.825C132.46 140.051 132.008 139.877 131.624 139.389C131.015 139.633 130.58 139.32 130.162 138.936C129.744 138.553 129.047 138.954 128.647 138.466C128.142 138.275 127.585 138.223 127.097 137.979C126.627 137.63 126.174 137.282 125.512 137.474C124.938 137.404 124.363 137.352 123.893 136.951C123.197 137.195 122.709 136.829 122.239 136.411C121.664 136.29 121.194 135.802 120.55 135.854C120.01 135.593 119.348 135.663 118.843 135.28C118.321 134.966 117.781 134.635 117.137 134.705C116.475 134.792 116.057 134.217 115.448 134.13C115.03 133.538 114.298 133.887 113.793 133.573C113.236 133.434 112.783 132.981 112.174 133.016C111.617 132.911 111.06 132.824 110.607 132.476C109.875 132.929 109.632 131.971 109.074 131.936C108.657 131.501 108.047 131.64 107.577 131.414C107.037 131.362 106.689 130.804 106.132 130.892C105.679 130.683 105.122 130.77 104.739 130.386C104.181 130.543 103.903 129.812 103.398 129.882C102.962 129.725 102.51 129.603 102.109 129.394C101.848 128.767 101.291 129.028 100.873 128.924C100.49 128.732 99.9673 128.924 99.7061 128.471C99.3405 128.297 99.027 127.966 98.5917 128.036C98.2086 127.984 98.1041 127.095 97.5469 127.618C97.1638 127.618 97.0419 126.904 96.5718 127.217C96.119 127.513 95.9623 126.956 95.6663 126.852C95.3703 126.73 95.1091 126.608 94.8305 126.503C92.4623 125.476 91.1563 124.762 91.2433 124.501C91.3478 124.205 93.1588 124.501 96.1887 125.267C96.4847 125.337 96.92 125.11 97.129 125.511C97.4424 125.615 97.8604 125.476 98.139 125.772C98.6265 125.441 98.8703 125.929 99.2186 126.068C99.5843 126.173 99.9151 126.434 100.368 126.381C100.838 126.242 101.117 126.782 101.569 126.73C101.883 127.148 102.318 127.217 102.841 127.095C103.171 127.513 103.711 127.322 104.164 127.479C104.477 128.036 105.017 127.896 105.54 127.896C106.062 127.896 106.445 128.262 106.967 128.332C107.42 128.576 107.977 128.541 108.43 128.785C108.987 128.75 109.51 128.854 109.945 129.255C110.502 129.29 110.972 129.568 111.495 129.742C112.069 129.742 112.54 130.108 113.079 130.247C113.637 130.334 114.002 131.048 114.699 130.77C115.256 130.892 115.778 131.205 116.353 131.309C116.893 131.553 117.433 131.797 118.042 131.867C118.46 132.511 119.122 132.424 119.749 132.441C120.358 132.511 120.915 132.755 121.455 133.016C122.03 133.155 122.587 133.364 123.127 133.591C123.736 133.643 124.172 134.148 124.781 134.148C125.391 134.148 125.791 134.722 126.401 134.705C126.975 134.757 127.532 134.862 127.968 135.262C128.49 135.436 128.873 136.028 129.5 135.802C130.04 135.889 130.719 135.541 130.998 136.324C131.537 136.324 131.868 136.951 132.443 136.847C132.774 137.474 133.383 137.195 133.836 137.352C134.271 137.596 134.672 137.909 135.177 137.839C135.699 137.77 136.013 138.257 136.465 138.327C136.988 138.205 137.197 138.954 137.702 138.797C138.085 138.989 138.52 139.023 138.868 139.25C139.46 138.762 139.635 139.511 139.983 139.685C140.314 139.894 140.836 139.511 141.028 140.103C141.533 139.737 141.724 140.26 142.003 140.504C142.281 140.747 142.699 140.504 142.908 140.869C143.309 140.643 143.431 141.252 143.727 141.218C143.918 141.531 144.249 141.409 144.475 141.548C144.754 141.548 144.963 141.653 145.137 141.862C145.346 141.966 145.538 142.053 145.729 142.14C146.809 142.68 147.383 143.046 147.314 143.22H147.331Z" fill="white"/>
<path d="M144.529 161.696C144.476 161.87 143.797 161.835 142.613 161.609C142.422 161.574 142.195 161.522 141.986 161.487C141.76 161.452 141.499 161.435 141.272 161.33C141.098 161.017 140.628 161.591 140.471 161.139C140.228 160.947 139.914 160.947 139.601 160.93C139.27 160.93 139.043 160.581 138.66 160.686C138.19 161.034 138.173 159.972 137.65 160.425C137.267 160.425 136.919 160.285 136.571 160.129C136.327 159.658 135.822 159.885 135.421 159.815C135.178 159.275 134.708 159.328 134.22 159.467C133.994 158.77 133.558 158.718 132.949 159.101C132.513 158.979 132.148 158.614 131.625 158.718C131.173 158.614 130.685 158.561 130.25 158.3C129.658 158.527 129.205 158.352 128.822 157.865C128.212 158.109 127.777 157.795 127.359 157.412C126.941 157.012 126.245 157.43 125.844 156.942C125.339 156.75 124.799 156.698 124.294 156.454C123.824 156.106 123.372 155.758 122.71 155.949C122.135 155.88 121.561 155.828 121.09 155.427C120.394 155.671 119.906 155.305 119.436 154.887C118.862 154.765 118.391 154.278 117.747 154.33C117.207 154.069 116.546 154.139 116.041 153.755C115.501 153.442 114.978 153.111 114.334 153.181C113.672 153.268 113.255 152.693 112.662 152.606C112.245 152.014 111.513 152.362 111.008 152.049C110.451 151.91 109.998 151.457 109.389 151.492C108.832 151.387 108.274 151.3 107.804 150.934C107.073 151.387 106.829 150.43 106.272 150.395C105.854 149.959 105.244 150.099 104.774 149.872C104.235 149.82 103.886 149.263 103.329 149.35C102.876 149.141 102.319 149.228 101.936 148.845C101.361 149.002 101.118 148.27 100.595 148.357C100.142 148.201 99.7071 148.079 99.3066 147.87C99.0454 147.243 98.4882 147.504 98.0703 147.4C97.6872 147.208 97.1822 147.4 96.9036 146.947C96.5379 146.773 96.2245 146.442 95.7891 146.511C95.406 146.459 95.3016 145.554 94.7443 146.094C94.3613 146.094 94.2394 145.362 93.7692 145.693C93.3165 145.989 93.1597 145.432 92.8637 145.327C92.5677 145.206 92.3065 145.084 92.0453 144.979C89.6771 143.952 88.3711 143.238 88.4582 142.994C88.5627 142.698 90.3736 142.994 93.4035 143.76C93.6996 143.83 94.1349 143.603 94.3438 144.004C94.6573 144.108 95.0752 143.969 95.3538 144.265C95.8414 143.934 96.0852 144.422 96.4334 144.561C96.7991 144.666 97.1299 144.927 97.5827 144.875C98.0528 144.735 98.314 145.275 98.7842 145.223C99.0976 145.641 99.533 145.711 100.055 145.589C100.386 146.007 100.943 145.815 101.379 145.972C101.692 146.529 102.232 146.39 102.754 146.372C103.259 146.372 103.66 146.738 104.182 146.808C104.635 147.051 105.175 147.016 105.645 147.26C106.202 147.225 106.725 147.33 107.16 147.73C107.717 147.765 108.187 148.044 108.71 148.218C109.284 148.218 109.754 148.584 110.294 148.723C110.852 148.81 111.217 149.524 111.914 149.245C112.488 149.367 112.993 149.681 113.568 149.785C114.108 150.029 114.648 150.273 115.257 150.342C115.675 150.987 116.337 150.9 116.964 150.917C117.573 150.987 118.13 151.231 118.67 151.492C119.245 151.631 119.802 151.84 120.342 152.066C120.934 152.119 121.386 152.624 121.996 152.624C122.605 152.624 123.006 153.198 123.615 153.181C124.19 153.233 124.747 153.337 125.2 153.738C125.722 153.912 126.105 154.504 126.732 154.278C127.272 154.365 127.934 154.017 128.23 154.8C128.77 154.8 129.101 155.427 129.675 155.323C130.006 155.949 130.615 155.671 131.068 155.828C131.504 156.071 131.904 156.385 132.409 156.315C132.931 156.245 133.245 156.733 133.698 156.803C134.22 156.681 134.429 157.43 134.934 157.273C135.317 157.464 135.752 157.499 136.101 157.726C136.693 157.238 136.867 157.987 137.215 158.161C137.546 158.37 138.068 157.987 138.26 158.579C138.765 158.231 138.956 158.736 139.235 158.979C139.514 159.223 139.931 158.979 140.14 159.345C140.541 159.119 140.663 159.728 140.959 159.693C141.15 160.007 141.481 159.885 141.708 160.024C141.986 160.024 142.195 160.129 142.369 160.338C142.578 160.442 142.77 160.529 142.944 160.616C144.024 161.156 144.598 161.522 144.529 161.696Z" fill="white"/>
</svg>
