<svg width="236" height="236" viewBox="0 0 236 236" fill="none" xmlns="http://www.w3.org/2000/svg">
<rect width="236" height="236" rx="118" fill="#10389B"/>
<path d="M118.283 85.7345C118.283 85.7345 119.336 85.0956 121.512 84.2495C122.6 83.8351 123.964 83.3343 125.605 82.8508C127.245 82.3673 129.179 81.8839 131.406 81.5213C132.891 81.2795 134.497 81.1068 136.224 81.0378C137.951 80.9514 139.798 81.0032 141.732 81.2968C142.682 81.5558 143.684 81.6248 144.702 81.7803C145.721 81.9184 146.774 82.1429 147.741 82.6436C149.762 83.4207 151.868 84.1977 154.009 85.1647C156.151 86.1316 158.154 87.5303 160.433 88.6009C162.833 89.4642 164.56 91.6572 167.167 92.486C169.55 93.712 171.933 95.0762 174.471 96.3367C176.854 97.9081 179.686 98.7541 182.501 99.7211C183.83 100.446 185.246 100.982 186.731 101.396C187.094 101.5 187.474 101.603 187.854 101.69C188.32 101.793 188.786 101.897 189.235 102L189.684 102.104L190.099 102.242C190.237 102.294 190.392 102.329 190.513 102.38L190.806 102.57L190.962 102.657C190.962 102.657 191.065 102.708 191.1 102.777C191.186 102.881 191.273 102.985 191.324 103.123C191.376 103.261 191.428 103.382 191.394 103.503L191.307 103.865L190.945 104.591C190.945 104.591 190.91 104.642 190.893 104.677L190.806 104.763L190.651 104.953L190.358 105.316L190.064 105.678L189.926 105.851L189.822 105.972L189.425 106.438C188.907 107.06 188.389 107.699 187.906 108.372C186.921 109.702 186.023 111.1 185.125 112.551C182.933 115.141 180.377 117.455 177.942 120.028C175.352 122.428 172.589 124.776 169.516 126.779C166.718 129.197 163.472 131.148 159.932 132.581C156.738 134.705 153.077 136.104 149.313 137.209C148.139 137.554 146.982 137.951 145.807 138.348L144.875 138.659C144.357 138.815 143.856 138.987 143.338 139.143C142.285 139.454 141.197 139.799 140.092 140.092C140.334 138.728 140.558 137.364 140.8 136L140.955 135.085L141.059 134.55C141.128 134.187 141.197 133.824 141.283 133.462C141.56 131.528 141.75 129.542 141.905 127.556C141.974 126.555 142.043 125.571 142.095 124.569C142.129 124.068 142.147 123.568 142.181 123.067C142.216 122.428 142.25 121.772 142.285 121.133L142.319 120.442C142.319 120.442 142.337 120.39 142.371 120.373L142.44 120.321L142.596 120.235L142.889 120.062L143.925 119.475C144.357 119.233 144.789 118.974 145.203 118.715C146.049 118.18 146.878 117.628 147.69 117.023C149.295 115.814 150.78 114.416 152.058 112.827C153.44 111.342 154.717 109.754 155.909 108.096C156.202 107.681 156.496 107.267 156.79 106.853L156.997 106.542L157.1 106.386L157.152 106.3L157.187 106.266C156.945 106.093 159.362 107.733 158.344 107.043C158.309 107.043 158.275 107.043 158.309 107.043C158.568 105.834 157.964 108.683 158.033 108.389L157.929 108.355L157.532 108.251C156.479 107.958 155.425 107.595 154.407 107.198C152.248 106.697 150.159 105.868 148.19 104.85C146.205 103.831 144.357 102.622 142.544 101.413C140.644 100.326 138.831 99.1686 136.967 98.2361C135.084 97.2864 133.116 96.5957 131.078 96.4403C129.058 96.1122 126.986 96.2677 124.931 96.6821C123.895 96.8893 122.876 97.1655 121.857 97.4591C121.339 97.6145 120.839 97.7699 120.321 97.9426L119.561 98.2016L119.354 98.2707L118.974 98.4088L118.249 98.6678L116.971 98.1325L116.211 97.839C115.71 97.649 115.192 97.4591 114.691 97.2864C113.673 96.9583 112.637 96.6648 111.601 96.4748C109.529 96.0777 107.405 96.0086 105.419 96.4403C103.433 96.872 101.499 97.5109 99.5997 98.357C97.683 99.2204 95.8009 100.256 93.9533 101.413C91.9675 102.346 90.0853 103.485 88.1514 104.521C86.2174 105.575 84.1971 106.542 82.0905 107.181C81.8315 107.267 81.5725 107.353 81.3135 107.44L80.9336 107.561L80.64 107.647C80.5019 107.681 80.5364 107.681 80.5019 107.681H80.4328L80.2947 107.716C80.2601 107.716 80.1738 107.716 80.1738 107.768L80.2256 107.889L80.2947 108.01C80.2947 108.01 80.2947 108.044 80.3465 108.079L80.5019 108.303L80.571 108.407L80.6746 108.545L80.899 108.856L81.3653 109.46C81.6761 109.857 82.0042 110.254 82.3323 110.651C83.0057 111.428 83.6964 112.171 84.4561 112.844C85.8893 114.26 87.4261 115.573 89.0148 116.799C89.8091 117.403 90.6034 117.99 91.4322 118.56C91.8466 118.853 92.2438 119.13 92.6582 119.406L92.8136 119.51L93.0899 119.682L93.677 120.062L93.9705 120.252L94.1087 120.338C94.1087 120.338 94.2295 120.39 94.2123 120.459V121.167C94.3504 122.272 94.4195 122.531 94.4885 123.084C94.5576 123.585 94.6094 124.086 94.644 124.586C94.713 125.588 94.7475 126.589 94.7821 127.574C94.8512 129.559 94.8857 131.545 95.2311 133.496C95.2656 133.98 95.3001 134.481 95.3692 134.964L95.4383 135.448L95.5246 136.017C95.5937 136.449 95.6627 136.863 95.7318 137.295C95.7663 137.502 95.7836 137.71 95.8181 137.917L95.8527 138.228L95.8181 138.452L95.7836 138.677V138.797C95.7836 138.797 95.7318 138.832 95.7145 138.866L95.4728 139.056C95.2656 139.16 95.0238 139.229 94.7994 139.333L94.6267 139.402H94.5921H94.5231L94.3677 139.367L93.7633 139.229C93.3662 139.143 92.969 139.039 92.5546 138.918L91.4322 138.607C90.9487 138.469 90.4825 138.331 89.999 138.193C89.0493 137.899 88.1168 137.589 87.2017 137.243C83.4546 136.035 80.0875 134.101 76.5994 132.598C73.2496 130.803 69.8997 129.093 67.016 126.779C65.4101 125.864 63.9942 124.724 62.6301 123.533C61.2659 122.342 59.9709 121.116 58.5895 120.028C55.9821 117.645 53.5474 115.176 51.4062 112.551C49.5931 109.667 47.2793 107.284 45.4662 104.608L45.2245 104.245L45 103.9L45.0518 103.503C45.0863 103.295 45.1209 103.157 45.1899 103.019C45.259 102.881 45.3108 102.777 45.4144 102.657C45.518 102.536 45.6043 102.415 45.7943 102.294C45.967 102.173 46.2432 102.035 46.6231 102.052L46.2951 102.087C48.9888 101.396 51.4926 100.36 54.0827 99.7384C56.8973 98.7542 59.6601 97.7872 62.112 96.354C64.6158 95.0417 67.4304 94.42 69.4162 92.486C71.661 91.0356 74.2165 90.2586 76.1505 88.5836C78.119 86.9605 80.4674 86.1662 82.574 85.1474C84.6806 84.1286 86.77 83.2652 88.8421 82.6263C91.1559 81.8838 93.418 81.4176 95.5764 81.1932C97.7348 80.9687 99.7551 80.9514 101.637 81.0896C105.402 81.3486 108.51 82.1083 110.979 82.8335C113.448 83.5588 115.279 84.284 116.505 84.8021C117.731 85.3201 118.335 85.6481 118.3 85.6999C118.266 85.769 117.472 85.5273 115.917 85.0438C114.363 84.5603 112.067 83.8524 109.028 83.1962C105.989 82.5746 102.19 81.9874 97.7521 82.2983C95.5419 82.4537 93.1935 82.8508 90.7588 83.576C88.3241 84.284 85.8376 85.3201 83.282 86.6151C81.2444 87.6512 79.3277 89.1362 77.0311 90.1204C74.8727 91.3809 72.8006 92.9523 70.3486 94.1265C68.242 95.8878 65.6001 96.9065 62.9927 98.1671C60.4026 99.4621 57.6225 100.515 54.8079 101.759C52.3214 102.933 49.5586 103.485 46.8131 104.245L46.5368 103.347C46.5368 103.347 46.5368 103.434 46.6059 103.503C46.6577 103.572 46.7267 103.658 46.7785 103.693C46.8303 103.727 46.8476 103.744 46.7958 103.71C46.744 103.693 46.6231 103.641 46.5023 103.624C46.7095 103.399 46.8994 103.175 47.1066 102.95L47.3656 103.278C48.8679 106.058 50.8882 108.614 53.2366 110.928C55.1705 113.621 57.7606 115.797 60.2817 118.111C62.5265 120.736 65.4965 122.721 68.501 124.586C71.5056 126.486 74.4928 128.558 77.8254 130.146C81.0717 131.908 84.577 133.237 88.1341 134.584C89.0493 134.86 89.9645 135.119 90.8796 135.378C91.3459 135.517 91.7948 135.637 92.261 135.776C92.4165 135.827 92.3819 135.81 92.3992 135.81H92.451L92.52 135.827C92.5546 135.827 92.5891 135.845 92.6409 135.862C92.6409 135.827 92.6409 135.793 92.6409 135.758V135.689V135.672V135.568L92.6064 135.327C92.5546 134.826 92.5028 134.325 92.4682 133.824C92.1229 131.839 91.8984 129.818 91.743 127.781C91.6567 126.762 91.6049 125.743 91.5358 124.724C91.5013 123.844 91.4495 122.963 91.4149 122.065V122.013C91.4149 122.013 91.3631 122.013 91.3459 121.996H91.2941V121.979C91.2941 121.979 91.2941 121.979 91.2768 121.979L91.1041 121.875C90.6552 121.599 90.2062 121.323 89.7573 121.029C88.8766 120.442 88.0132 119.803 87.1844 119.147C85.5095 117.817 83.9381 116.367 82.4013 114.83C81.6243 114.07 80.9163 113.259 80.2256 112.413C79.8803 111.998 79.5522 111.567 79.2414 111.118L78.7579 110.461L78.2571 109.736L77.9636 109.305L77.5837 108.735L77.3938 108.441L77.2902 108.303L77.2211 108.165L76.9275 107.612C76.893 107.526 76.8067 107.422 76.7894 107.336V107.112L76.7549 106.663C76.7549 106.507 76.8757 106.283 76.9448 106.196L77.2902 105.886L77.4628 105.73C77.4628 105.73 77.5319 105.678 77.5837 105.661L77.7391 105.609L78.3435 105.368C78.5507 105.281 78.7924 105.229 78.9996 105.16C79.2241 105.091 79.4831 105.022 79.604 104.97L80.0529 104.815C80.0529 104.815 80.1911 104.763 80.2602 104.746L80.4328 104.677C80.6746 104.573 80.9163 104.47 81.1408 104.366C83.0747 103.675 84.9915 102.881 86.8736 101.949C88.7558 101.016 90.6034 99.9629 92.451 98.8232C94.3331 97.7526 96.2498 96.613 98.3219 95.6287C100.394 94.6445 102.639 93.8329 105.004 93.4358C107.405 93.3322 109.77 93.4876 112.084 93.8675C113.241 94.0574 114.381 94.3164 115.503 94.5927C116.073 94.7481 116.625 94.9035 117.178 95.0762L118.007 95.3352L118.214 95.4043C118.214 95.4043 118.214 95.4043 118.231 95.4043H118.283L118.335 95.3697L118.525 95.3007C118.801 95.197 119.06 95.0935 119.336 94.9899C119.889 94.7826 120.442 94.5927 120.994 94.42C122.116 94.0747 123.256 93.7811 124.413 93.5739C126.744 93.1595 129.179 93.0731 131.545 93.453C133.927 93.7638 136.207 94.5582 138.262 95.5424C140.334 96.5439 142.233 97.7008 144.098 98.8232C145.997 99.8765 147.81 100.982 149.675 101.966C151.523 102.95 153.44 103.814 155.425 104.383C156.41 104.66 157.394 104.953 158.395 105.229L158.758 105.333L158.844 105.368C158.758 105.333 159.656 105.713 159.276 105.558L159.362 105.627C159.362 105.627 159.483 105.713 159.535 105.765C159.639 105.868 159.725 105.972 159.794 106.076C159.932 106.3 160.019 106.542 160.07 106.784C160.105 107.025 160.088 107.319 160.001 107.595C159.984 107.664 159.95 107.75 159.915 107.82L159.88 107.871C159.88 107.871 159.794 108.01 159.811 107.992L159.777 108.027L159.725 108.113L159.604 108.286L159.362 108.614C159.034 109.063 158.724 109.495 158.378 109.926C157.049 111.653 155.598 113.259 154.165 114.882C152.714 116.471 151.126 117.956 149.451 119.268C148.605 119.924 147.741 120.546 146.844 121.116C146.395 121.409 145.946 121.685 145.479 121.944L145.307 122.048L145.272 122.065H145.22C145.203 122.065 145.169 122.065 145.151 122.065V122.117C145.099 122.48 145.082 122.86 145.065 123.222C145.03 123.74 144.979 124.241 144.944 124.759C144.84 125.778 144.737 126.797 144.616 127.798C144.392 129.818 144.167 131.821 144.081 133.859L143.96 134.999L143.891 135.568V135.707V135.741C143.891 135.741 143.96 135.862 143.994 135.845C144.063 135.793 144.098 135.758 144.098 135.741C144.098 135.741 144.133 135.724 144.15 135.707L144.512 135.586L144.944 135.465C146.084 135.137 147.241 134.843 148.432 134.636C151.955 133.203 155.598 132.149 158.758 130.215C162.263 128.955 165.164 126.676 168.082 124.673C171.052 122.721 173.919 120.649 176.302 118.197C178.667 115.728 181.258 113.57 183.347 111.014C184.314 109.684 185.384 108.476 186.438 107.232C186.956 106.611 187.457 105.989 187.923 105.35L188.268 104.867L188.354 104.746L188.389 104.694L188.458 104.591C188.527 104.452 188.596 104.332 188.614 104.228C188.648 104.176 188.717 104.124 188.683 104.055C188.683 104.021 188.648 104.003 188.631 103.969C188.613 103.952 188.579 103.952 188.544 103.934L188.165 103.831C187.888 103.744 187.595 103.675 187.318 103.589C186.939 103.485 186.559 103.365 186.179 103.261C184.677 102.812 183.192 102.311 181.776 101.741C180.222 101.517 178.806 100.947 177.476 100.274C176.146 99.6003 174.886 98.8232 173.591 98.1498C171.052 96.7856 168.324 95.905 166.235 94.1265C163.645 93.194 161.642 91.4845 159.552 90.1204C157.463 88.739 155.218 87.8756 153.302 86.6151C152.196 86.2698 151.212 85.7518 150.245 85.2683C149.278 84.7848 148.311 84.3013 147.31 84.0423C145.41 83.1789 143.407 82.9371 141.577 82.6091C139.712 82.4191 137.951 82.3155 136.276 82.2119C134.601 82.2119 133.03 82.3328 131.579 82.5227C129.403 82.799 127.487 83.1962 125.846 83.5933C124.206 83.9905 122.824 84.3876 121.719 84.733C119.509 85.4064 118.352 85.8036 118.318 85.7172L118.283 85.7345Z" fill="white"/>
<path d="M92.7101 116.263C92.7964 116.263 92.9 116.764 92.9863 117.714C93.0381 118.197 93.0899 118.784 93.1417 119.492C93.2108 120.2 93.2626 121.012 93.349 121.91C93.3662 122.221 93.4008 122.531 93.418 122.859C93.4526 123.188 93.4871 123.516 93.5216 123.861C93.608 124.552 93.6943 125.294 93.7288 126.071C93.5562 126.883 94.2987 127.643 94.0051 128.54C93.9706 129.421 94.1778 130.302 94.3677 131.251C94.5577 132.184 94.4713 133.185 94.8167 134.187C95.4211 135.119 94.6268 136.328 95.3865 137.312C95.5419 137.848 95.6801 138.383 95.7837 138.936C95.8355 139.212 95.8873 139.488 95.9391 139.782C95.9909 140.058 96.0427 140.351 96.1117 140.628C96.0599 141.232 96.1808 141.819 96.3708 142.389C96.5607 142.959 96.8197 143.529 96.9924 144.116C96.9233 144.772 97.0615 145.376 97.2687 145.981C97.3723 146.274 97.4932 146.568 97.6313 146.861C97.7867 147.155 97.9421 147.431 98.1148 147.725C98.0284 148.433 98.1148 149.106 98.3565 149.71C98.5983 150.332 98.9609 150.919 99.4962 151.437C100.014 152.68 100.36 154.045 101.206 155.184C101.534 155.806 101.879 156.41 102.259 157.015C102.449 157.308 102.622 157.636 102.794 157.947C102.984 158.258 103.157 158.569 103.33 158.879C103.468 159 103.606 159.138 103.727 159.277C103.865 159.415 103.986 159.536 104.107 159.674C104.348 159.95 104.573 160.226 104.78 160.52C104.987 160.813 105.194 161.107 105.384 161.418C105.488 161.573 105.574 161.746 105.661 161.901C105.747 162.057 105.851 162.229 105.937 162.385C107.197 163.248 108.095 164.37 109.131 165.493C109.632 166.063 110.306 166.425 110.979 166.771C111.324 166.926 111.652 167.099 111.981 167.271C112.326 167.427 112.637 167.617 112.948 167.859C114.312 168.515 115.814 168.791 117.299 168.981C117.679 169.033 118.059 169.119 118.439 169.136H119.008C119.198 169.171 119.406 169.171 119.596 169.136C120.373 169.067 121.15 168.877 121.84 168.463C123.308 167.91 124.638 167.081 126.105 166.356C127.176 165.061 128.506 164.146 129.835 163.041C130.906 161.729 132.201 160.52 132.943 158.897C133.185 158.534 133.427 158.154 133.634 157.774C133.841 157.377 134.031 156.98 134.238 156.583C134.446 156.186 134.635 155.789 134.843 155.391C135.05 154.994 135.274 154.614 135.499 154.217C135.931 153.423 136.379 152.646 136.708 151.8C136.88 151.385 137.053 150.971 137.191 150.539C137.329 150.108 137.433 149.676 137.519 149.227C137.605 148.795 137.709 148.346 137.847 147.932C137.985 147.517 138.141 147.086 138.296 146.689C138.59 145.86 138.918 145.031 139.09 144.168C139.505 143.373 139.712 142.51 139.833 141.629C139.954 140.766 140.057 139.902 140.282 139.056C140.575 137.347 141.145 135.706 141.163 133.98C141.232 133.134 141.318 132.288 141.404 131.459C141.491 130.63 141.594 129.801 141.784 128.972C141.283 127.263 142.233 125.691 142.181 124.051C142.268 123.654 142.337 123.239 142.354 122.842C142.389 122.445 142.389 122.031 142.389 121.633C142.389 120.839 142.354 120.045 142.389 119.251C142.354 118.853 142.371 118.456 142.389 118.076V117.938C142.389 117.938 142.389 117.904 142.406 117.886V117.817L142.475 117.662C142.475 117.61 142.509 117.541 142.509 117.472V117.438H142.475C142.475 117.438 142.423 117.438 142.389 117.438C142.285 117.438 142.147 117.455 142.043 117.524C142.043 117.524 141.922 117.524 141.836 117.524H141.542H140.973C140.593 117.524 140.213 117.558 139.833 117.576C139.073 117.61 138.313 117.61 137.571 117.489C136.086 117.817 134.618 117.213 133.185 117.438C131.752 117.438 130.336 117.455 128.972 117.386C127.59 116.868 126.243 117.299 124.931 117.334C123.619 117.282 122.341 117.627 121.081 117.282C119.837 117.248 118.611 117.023 117.437 117.23C116.263 117.299 115.106 116.488 114.001 117.161C112.896 117.282 111.825 116.643 110.789 117.092C109.753 117.507 108.752 117.04 107.802 117.023C106.852 117.006 105.937 116.971 105.056 116.954C97.1823 116.73 92.6755 116.471 92.6755 116.194C92.6755 115.883 98.2357 115.607 107.802 115.365C108.752 115.348 109.753 114.986 110.789 115.296C111.825 115.296 112.896 115.02 114.001 115.227C115.106 114.761 116.263 115.141 117.437 115.158C118.611 115.141 119.837 115.279 121.081 115.089C122.324 114.813 123.619 115.227 124.931 115.037C126.243 115.331 127.59 115.245 128.972 114.986C130.353 115.262 131.752 114.916 133.185 114.934C134.618 115.365 136.086 115.072 137.571 114.882C138.313 114.796 139.073 114.813 139.833 114.847C140.213 114.847 140.593 114.865 140.973 114.882C141.163 114.882 141.353 114.882 141.542 114.882C141.767 114.882 141.974 114.865 142.199 114.847C142.889 114.865 143.563 114.865 144.271 114.865H144.789H145.048C145.117 114.847 145.082 114.916 145.082 114.951V115.072C145.082 115.417 145.082 115.763 145.082 116.108C145.082 116.764 145.082 117.437 145.082 118.111C145.082 118.508 145.082 118.905 145.048 119.32C145.134 120.131 145.169 120.943 145.151 121.754C145.151 122.169 145.117 122.566 145.082 122.98C145.03 123.395 144.961 123.809 144.875 124.206C144.927 125.864 144.668 127.539 144.53 129.248C144.53 130.112 144.426 130.958 144.323 131.821C144.202 132.685 144.029 133.531 143.943 134.411C143.77 136.155 142.941 137.813 143.062 139.643C142.924 140.524 142.699 141.405 142.492 142.285C142.285 143.166 142.026 144.047 141.853 144.945C141.577 145.825 141.301 146.689 141.024 147.586C140.886 148.018 140.731 148.467 140.61 148.916C140.472 149.365 140.351 149.814 140.213 150.263C139.937 150.66 139.712 151.075 139.522 151.506C139.332 151.938 139.142 152.37 138.987 152.801C138.693 153.699 138.383 154.597 138.072 155.512C137.916 155.961 137.692 156.393 137.502 156.825C137.295 157.256 137.087 157.688 136.846 158.102C136.604 158.517 136.362 158.931 136.12 159.328C135.861 159.726 135.585 160.123 135.326 160.52C134.342 162.143 133.185 163.663 131.89 165.044C131.579 165.407 131.268 165.752 130.923 166.097C130.578 166.425 130.198 166.719 129.852 167.03C129.11 167.617 128.35 168.187 127.625 168.791C127.28 169.119 126.865 169.361 126.451 169.603C126.054 169.844 125.605 170.034 125.173 170.224C124.741 170.431 124.292 170.569 123.843 170.742C123.412 170.932 122.963 171.07 122.514 171.26C120.752 171.934 118.767 172.227 116.919 171.83C116.453 171.795 116.004 171.692 115.555 171.588C115.106 171.467 114.674 171.312 114.243 171.191C113.811 171.036 113.396 170.88 112.965 170.759C112.55 170.604 112.119 170.483 111.652 170.414C111.238 170.241 110.824 170.086 110.392 169.931C109.978 169.758 109.58 169.568 109.183 169.378C108.423 168.946 107.698 168.411 107.267 167.617C107.094 167.496 106.921 167.375 106.749 167.237C106.593 167.099 106.438 166.943 106.282 166.805C105.989 166.512 105.695 166.218 105.436 165.89C105.177 165.562 104.901 165.251 104.625 164.958C104.348 164.647 104.072 164.353 103.761 164.094C103.675 163.904 103.571 163.714 103.485 163.542C103.381 163.369 103.278 163.196 103.174 163.024C102.95 162.696 102.691 162.385 102.449 162.091C102.207 161.78 101.948 161.487 101.706 161.176C101.586 161.021 101.465 160.882 101.344 160.71C101.24 160.554 101.119 160.382 101.033 160.226C100.86 159.881 100.67 159.553 100.498 159.208C100.325 158.862 100.17 158.517 99.9969 158.189C99.6343 157.533 99.3062 156.859 98.8746 156.255C98.0112 155.029 97.7522 153.561 97.1651 152.283C96.7506 151.679 96.6298 150.988 96.4744 150.315C96.319 149.641 96.1808 148.968 95.8355 148.381C95.7491 148.053 95.6455 147.742 95.5419 147.431C95.4383 147.12 95.352 146.809 95.2657 146.499C95.093 145.877 94.8858 145.255 94.7821 144.634C94.3159 144.098 94.1605 143.494 94.0915 142.873C94.0397 142.251 94.0915 141.612 93.9879 141.025C93.9533 140.731 93.867 140.438 93.7807 140.162C93.6943 139.885 93.608 139.592 93.5216 139.315C93.349 138.763 93.2453 138.193 93.3835 137.606C92.7101 136.587 92.9518 135.447 92.9345 134.394C92.9345 133.341 92.4338 132.391 92.6065 131.407C92.1575 130.492 92.5892 129.507 92.3993 128.644C92.5547 127.746 92.2784 126.935 92.2611 126.14C92.123 125.346 92.123 124.603 92.2093 123.896C92.2093 123.55 92.2093 123.205 92.192 122.877C92.192 122.549 92.192 122.238 92.192 121.927C92.192 121.012 92.2093 120.183 92.2439 119.492C92.2784 118.784 92.3129 118.197 92.3475 117.714C92.4165 116.747 92.5029 116.246 92.6065 116.246L92.7101 116.263Z" fill="white"/>
</svg>
