<svg width="236" height="236" viewBox="0 0 236 236" fill="none" xmlns="http://www.w3.org/2000/svg">
<rect width="236" height="236" rx="118" fill="white"/>
<path d="M118.481 81.7769C118.481 81.7769 118.848 81.661 119.543 81.603C119.891 81.5644 120.316 81.4871 120.838 81.4291C121.34 81.3325 121.939 81.2359 122.596 81.062C123.91 80.7529 125.514 80.2312 127.349 79.4197C129.185 78.6275 131.213 77.5456 133.493 76.2317C135 75.3623 136.604 74.3769 138.343 73.3528C140.062 72.3095 141.917 71.1889 144.004 70.2228C145.086 69.8557 146.11 69.2567 147.211 68.7157C148.313 68.1941 149.491 67.6917 150.805 67.5758C153.336 67.0734 156.06 66.629 158.939 67.0348C160.369 67.228 161.799 67.711 163.151 68.3486C164.504 69.0056 165.798 69.7977 167.093 70.6672C168.484 71.44 169.527 72.6959 170.416 74.0291C171.324 75.3622 172.078 76.7727 173.121 78.0865C174.763 80.9847 175.691 84.3659 176 87.8631C176 88.7518 175.981 89.6213 175.961 90.5101C175.942 91.3796 175.923 92.249 175.942 93.1378C175.981 94.0266 175.942 94.9153 175.923 95.8041C175.923 96.2485 175.923 96.7122 175.884 97.1566C175.845 97.601 175.807 98.0647 175.787 98.5091C174.918 102.064 174.435 105.735 173.662 109.541C171.943 113.039 170.59 116.632 169.199 120.497L168.832 121.173L168.445 121.83C168.175 122.255 167.904 122.699 167.634 123.124C167.363 123.569 167.054 123.974 166.764 124.4C166.475 124.825 166.185 125.25 165.876 125.675C165.566 126.08 165.257 126.506 164.948 126.911L164.485 127.53L164.001 128.148C163.673 128.554 163.364 128.979 163.035 129.384C162.707 129.79 162.379 130.215 162.05 130.621L161.78 130.911L161.722 130.988C161.722 130.988 161.664 131.027 161.664 131.065V131.181C161.664 131.645 161.664 132.089 161.664 132.553C161.664 133.596 161.625 134.64 161.606 135.702C161.548 137.808 161.47 139.934 161.316 142.078C161.548 146.387 161.239 150.754 160.485 155.159C160.582 159.641 159.905 164.124 159.036 168.664C158.128 173.166 158.031 177.919 156.563 182.498C156.003 184.817 155.404 187.155 154.65 189.473C153.896 191.792 153.008 194.13 151.694 196.371C150.998 197.472 150.225 198.554 149.163 199.52C148.641 200.004 148.042 200.448 147.327 200.796C146.612 201.143 145.762 201.356 144.893 201.317C144.68 201.298 144.468 201.279 144.255 201.24C144.043 201.201 143.849 201.163 143.618 201.085C143.193 200.931 142.729 200.699 142.342 200.351C141.956 200.003 141.685 199.578 141.492 199.173C141.299 198.767 141.202 198.381 141.106 198.013C140.951 197.279 140.874 196.603 140.816 195.946C140.758 195.289 140.719 194.652 140.681 194.014C140.681 191.502 140.681 189.087 140.603 186.633C140.526 184.199 140.352 181.745 140.159 179.291C139.019 174.48 138.053 169.631 136.701 164.723C135.02 159.97 133.319 155.101 130.75 150.599C130.46 150.019 130.17 149.44 129.88 148.86L129.668 148.454L129.629 148.396C129.629 148.396 129.59 148.3 129.552 148.3L129.416 148.339H129.378L129.165 148.396L128.663 148.493C128.335 148.551 128.006 148.628 127.658 148.667L126.654 148.802C125.977 148.88 125.301 148.976 124.644 149.073C123.968 149.131 123.292 149.169 122.615 149.227L121.591 149.285H120.567C119.891 149.285 119.196 149.285 118.519 149.285C117.843 149.247 117.148 149.208 116.471 149.169L115.447 149.111L114.443 149.015C113.766 148.957 113.09 148.899 112.414 148.822C111.738 148.725 111.081 148.648 110.404 148.551L109.4 148.435L108.395 148.281L107.893 148.203L107.68 148.165H107.622L107.41 148.145C107.41 148.145 107.41 148.145 107.39 148.145V148.223L107.352 148.319L107.313 148.416L107.1 148.841C106.83 149.421 106.559 150.019 106.289 150.618C104.26 155.371 101.826 159.893 100.338 164.742C99.314 167.061 98.6378 169.515 98.1354 171.949C97.6331 174.403 97.2853 176.857 96.8795 179.291C96.5704 181.745 96.3192 184.179 96.2226 186.633C96.1067 189.087 96.1647 191.521 96.3579 194.014C96.3772 194.632 96.3965 195.289 96.3965 195.946C96.3965 196.603 96.3579 197.299 96.2033 198.071C96.126 198.458 96.0101 198.864 95.8169 199.308C95.6237 199.733 95.3339 200.216 94.9088 200.602C94.503 200.989 93.9814 201.259 93.5177 201.414C93.2858 201.491 93.0539 201.549 92.8414 201.588C92.6289 201.626 92.3777 201.646 92.1652 201.665C91.2377 201.704 90.3103 201.472 89.5761 201.085C88.8226 200.699 88.2236 200.216 87.702 199.694C86.6586 198.651 85.9437 197.53 85.3448 196.371C83.7411 194.284 82.8523 191.908 82.1954 189.551C81.5385 187.174 81.0941 184.817 80.4758 182.498C79.6837 177.784 78.563 173.244 78.0027 168.664C77.2299 164.124 77.2299 159.564 76.5536 155.159C76.2445 150.715 75.6648 146.368 75.7421 142.078C75.4523 139.953 75.4523 137.808 75.4716 135.702C75.4716 134.64 75.491 133.596 75.4716 132.553V131.78V131.394V131.181V131.065C75.4716 131.027 75.4137 131.007 75.3943 130.988L75.2977 130.911L75.0079 130.64C74.6601 130.235 74.293 129.867 73.9452 129.462C73.6168 129.056 73.2883 128.65 72.9406 128.244L72.4382 127.645L71.9745 127.008C71.6654 126.583 71.3562 126.177 71.0471 125.752C70.7379 125.327 70.4674 124.902 70.1776 124.457C69.9071 124.032 69.598 123.607 69.3468 123.163C69.0956 122.719 68.8251 122.274 68.5739 121.849L68.1875 121.192L67.8397 120.516C67.6658 120.033 67.4726 119.569 67.2794 119.105C67.0669 118.642 66.9123 118.178 66.6998 117.714C66.5066 117.251 66.294 116.806 66.0815 116.362C65.8883 115.898 65.6951 115.454 65.5019 115.009C65.3087 114.565 65.0768 114.121 64.9029 113.657C64.7097 113.193 64.5358 112.749 64.3426 112.304C63.9562 111.416 63.6664 110.488 63.3765 109.561C62.3525 105.87 61.2705 102.219 61.2512 98.5477C61.2125 98.1033 61.1739 97.6396 61.1353 97.1952C61.0966 96.7508 61.0966 96.2871 61.0773 95.8427C61.058 94.954 61 94.0459 61.0193 93.1764C61.0193 92.2876 61.0193 91.4182 61 90.5487C61 89.6599 61 88.7712 61.0387 87.9017C61.1739 86.1435 61.6956 84.4625 62.2752 82.8782C62.8548 81.2745 63.4924 79.7675 63.8982 78.1252C64.5937 76.6181 65.5985 75.3043 66.6804 74.1257C67.7624 72.9278 68.8831 71.8651 69.9457 70.7058C71.0084 69.5466 72.3802 68.7157 73.7906 68.1554C75.2011 67.5758 76.6695 67.286 78.0993 67.0541C80.9782 66.5904 83.7411 66.9575 86.2529 67.5951C87.6633 67.9622 88.9772 68.4452 90.2524 68.9476C91.5083 69.4693 92.7062 70.0296 93.8268 70.6092C96.0874 71.7685 98.1161 72.9857 100.01 74.1064C103.758 76.3669 106.965 78.2218 109.728 79.4004C111.1 79.9994 112.337 80.4437 113.438 80.7722C113.979 80.9461 114.501 81.0427 114.964 81.1586C115.428 81.2552 115.853 81.3325 116.239 81.4098C116.626 81.4678 116.954 81.5064 117.244 81.5451C117.534 81.5837 117.785 81.603 117.978 81.6223C118.365 81.661 118.577 81.7189 118.577 81.7382C118.577 81.7769 118.326 81.8155 117.843 81.8542C117.727 81.8542 117.573 81.8542 117.418 81.8735C117.263 81.8735 117.09 81.8735 116.916 81.8735C116.549 81.8735 116.123 81.8735 115.64 81.7962C113.708 81.6223 110.849 80.9268 107.429 79.4004C105.709 78.6469 103.854 77.6808 101.864 76.5988C99.855 75.5168 97.7104 74.2803 95.3725 73.0437C93.0153 71.8265 90.4649 70.5706 87.6247 69.6818C86.2142 69.2374 84.7265 68.8896 83.1808 68.7157C82.7944 68.6771 82.4079 68.6385 82.0215 68.6191C81.6351 68.6191 81.2294 68.5998 80.8429 68.6191C80.4565 68.6385 80.0507 68.6191 79.6643 68.6964C79.4711 68.7157 79.2586 68.7351 79.0654 68.7544C78.8722 68.793 78.6596 68.8123 78.4664 68.851C77.1912 69.0828 75.9546 69.5659 74.776 70.1648C73.5975 70.7831 72.4575 71.498 71.2403 72.2322C70.139 73.1017 69.1729 74.1837 68.3228 75.3429C67.4533 76.5022 66.6612 77.7581 65.869 79.0719C65.4246 80.5403 64.8836 81.9508 64.4199 83.4385C63.9562 84.9263 63.5311 86.4719 63.3765 88.0756C63.2992 88.8871 63.2606 89.6986 63.2413 90.5294C63.2413 91.3602 63.2413 92.2297 63.2606 93.0798C63.2606 93.9299 63.3379 94.7994 63.3959 95.6689C63.4345 96.0939 63.4538 96.5383 63.5118 96.9634C63.5698 97.4078 63.647 97.8328 63.7243 98.2579C63.8016 98.683 63.8789 99.1274 63.9561 99.5524C64.0334 99.9775 64.1107 100.422 64.188 100.866C64.3232 101.736 64.4199 102.625 64.5938 103.513C64.7483 104.402 64.8836 105.291 65.1154 106.18C65.3473 107.068 65.5405 107.957 65.8883 108.807C66.6225 112.44 68.1489 115.975 70.2355 119.202L70.5254 119.859C70.6413 120.072 70.7572 120.284 70.8538 120.497C71.0857 120.922 71.3175 121.347 71.5687 121.772C71.8006 122.197 72.1097 122.583 72.3802 122.989C72.6701 123.395 72.9406 123.801 73.2304 124.187C73.5395 124.573 73.8487 124.96 74.1385 125.346L74.6022 125.926L75.0852 126.486C75.4137 126.853 75.7421 127.24 76.0513 127.607C76.3797 127.974 76.7275 128.341 77.0559 128.708L77.2685 129.017L77.6742 129.539L77.8868 129.79L77.9834 129.906C77.9834 129.906 78.022 129.945 78.022 129.964V130.041V130.698C78.022 131.201 78.022 131.374 78.0027 131.645V132.418C78.0027 133.461 78.0027 134.505 78.08 135.548C78.1959 137.635 78.4277 139.741 78.621 141.866C79.0074 146.117 79.0267 150.464 79.5291 154.83C79.8189 159.236 80.4951 163.66 81.0361 168.162C81.8862 172.625 82.7364 177.127 83.5286 181.706C84.1468 183.948 84.7458 186.189 85.4607 188.391C86.1756 190.594 87.0064 192.777 88.1077 194.709C88.7066 195.637 89.3443 196.545 90.0591 197.202C90.4069 197.53 90.774 197.801 91.1025 197.975C91.4503 198.149 91.7401 198.207 92.0299 198.207C92.1072 198.207 92.1845 198.207 92.2618 198.187C92.3391 198.187 92.4163 198.168 92.4743 198.149C92.5902 198.11 92.6289 198.091 92.6675 198.052C92.7062 198.013 92.7641 197.975 92.8221 197.84C92.88 197.704 92.938 197.53 92.996 197.318C93.0926 196.873 93.1312 196.332 93.1506 195.772C93.1506 195.193 93.1506 194.613 93.1506 193.995C93.0539 191.56 93.0926 189.01 93.2471 186.479C93.3824 183.928 93.5949 181.378 93.6722 178.789C94.2712 173.649 95.6623 168.606 97.2273 163.602C98.9469 158.656 101.111 153.845 103.352 149.034C103.7 148.474 104.067 147.913 104.396 147.334L104.666 146.889L105.091 146.136L105.516 145.382L105.729 145.015L105.825 144.822C105.825 144.822 105.825 144.822 105.825 144.803H105.845H105.903H106.019C106.965 144.996 107.931 145.17 108.878 145.344C109.187 145.402 109.516 145.46 109.825 145.498L110.791 145.595C111.428 145.653 112.066 145.73 112.723 145.788C113.361 145.807 114.017 145.827 114.655 145.865L115.621 145.904H116.587C117.225 145.865 117.882 145.865 118.519 145.846C119.157 145.807 119.814 145.788 120.451 145.749L121.418 145.711L122.384 145.634C123.021 145.576 123.659 145.537 124.316 145.479C124.953 145.402 125.591 145.324 126.228 145.247L127.175 145.131L128.122 144.977C129.146 144.803 130.17 144.648 131.194 144.474H131.31L131.368 144.455C131.368 144.455 131.407 144.455 131.426 144.455L131.542 144.668L131.754 145.093L132.199 145.923L132.875 147.218L133.764 148.995C136.198 153.71 138.266 158.579 139.889 163.564C141.705 168.491 142.574 173.669 143.463 178.75C143.907 181.301 144.043 183.87 144.062 186.44C144.062 188.99 143.927 191.541 143.985 193.975C143.985 194.574 144.004 195.173 144.043 195.753C144.081 196.313 144.139 196.854 144.236 197.299C144.294 197.511 144.352 197.685 144.41 197.801C144.468 197.917 144.506 197.955 144.545 197.975C144.564 197.975 144.603 198.013 144.7 198.052C144.719 198.052 144.758 198.052 144.777 198.071C144.816 198.071 144.854 198.071 144.893 198.091C144.97 198.091 145.028 198.091 145.105 198.11C145.376 198.11 145.666 198.071 145.994 197.897C146.323 197.743 146.69 197.472 147.037 197.163C147.752 196.526 148.409 195.637 149.028 194.709C150.129 192.777 151.095 190.652 151.906 188.469C152.699 186.285 153.317 184.025 153.626 181.726C154.592 177.185 154.766 172.567 156.118 168.181C156.563 163.66 157.568 159.274 157.625 154.85C158.534 150.502 158.302 146.136 158.534 141.885C158.688 139.76 158.843 137.654 158.939 135.567C158.997 134.524 159.017 133.481 159.036 132.437C159.036 131.858 159.036 131.278 159.036 130.698V130.041C158.997 129.925 159.133 129.848 159.191 129.771L159.403 129.52L159.828 129.017L160.06 128.727C160.369 128.341 160.698 127.955 161.007 127.568C161.316 127.182 161.625 126.795 161.934 126.409L162.398 125.829L162.842 125.25C163.151 124.863 163.441 124.477 163.75 124.09C164.04 123.704 164.33 123.298 164.6 122.912C164.871 122.506 165.18 122.12 165.431 121.714C165.682 121.308 165.934 120.883 166.204 120.477C166.32 120.265 166.455 120.072 166.571 119.859L166.9 119.221C167.093 118.777 167.305 118.352 167.518 117.927C167.75 117.502 167.924 117.057 168.136 116.652C168.349 116.227 168.561 115.802 168.793 115.396C168.986 114.971 169.199 114.546 169.392 114.121C169.585 113.696 169.798 113.271 169.991 112.845C170.165 112.42 170.339 111.976 170.513 111.532C170.861 110.662 171.092 109.754 171.286 108.865C172.387 105.349 172.947 101.774 173.43 98.2966C173.392 97.8522 173.372 97.4078 173.372 96.9827C173.372 96.5383 173.353 96.1133 173.372 95.6689C173.372 94.7994 173.508 93.9493 173.546 93.0991C173.604 92.249 173.72 91.3989 173.778 90.5681C173.836 89.7566 173.855 88.9257 173.778 88.1143C173.681 86.4913 173.256 84.9456 172.773 83.4578C172.271 81.9701 171.73 80.5597 171.286 79.0912C170.358 77.874 169.547 76.6568 168.697 75.4782C167.846 74.2996 166.958 73.1789 165.914 72.2515C164.871 71.3241 163.654 70.6285 162.417 70.1069C161.181 69.5852 159.925 69.2181 158.688 68.8703C157.394 68.8317 156.176 68.7737 154.921 68.7544C153.665 68.7544 152.428 68.8703 151.269 69.2181C150.052 69.3727 148.931 69.7784 147.83 70.2035C146.748 70.6479 145.724 71.1502 144.7 71.5946C142.729 72.6379 140.874 73.662 139.058 74.5121C137.3 75.4782 135.657 76.4056 134.092 77.2364C131.754 78.473 129.629 79.497 127.736 80.2312C125.823 80.9654 124.142 81.4098 122.77 81.6416C122.094 81.7769 121.475 81.8155 120.954 81.8735C120.432 81.8735 119.988 81.9121 119.621 81.9121C118.906 81.8735 118.558 81.8349 118.558 81.7769H118.481Z" fill="#10389B"/>
<path d="M157.895 78.048C158.03 77.8934 158.398 77.9707 158.977 78.2412C159.074 78.2799 159.17 78.3378 159.286 78.3958C159.402 78.4345 159.538 78.4731 159.615 78.589C159.518 78.8788 160.156 78.4151 159.982 78.8015C160.001 78.9754 160.194 79.0141 160.368 79.072C160.542 79.13 160.465 79.4391 160.774 79.3812C161.276 79.1493 160.6 80.0381 161.199 79.729C161.431 79.7676 161.547 79.9415 161.644 80.0961C161.489 80.5018 161.895 80.4052 162.088 80.5211C161.856 81.0042 162.146 81.0235 162.552 80.9848C162.185 81.5838 162.397 81.6804 163.035 81.4872C163.209 81.6611 163.112 82.0089 163.498 82.0475C163.672 82.2214 163.923 82.376 163.962 82.6465C164.484 82.6272 164.619 82.859 164.445 83.2841C164.986 83.2841 164.967 83.6125 164.89 83.9796C164.793 84.3467 165.527 84.2695 165.334 84.7139C165.45 84.9844 165.682 85.1969 165.74 85.506C165.682 85.8538 165.604 86.2016 166.126 86.3175C166.377 86.5494 166.59 86.8006 166.455 87.187C167.034 87.3222 166.938 87.7086 166.764 88.0757C166.957 88.3656 166.667 88.7713 167.015 89.0031C167.015 89.3316 167.382 89.5828 167.247 89.9499C167.169 90.2977 167.054 90.6455 167.401 90.916C167.768 91.1865 167.363 91.5729 167.537 91.8627C167.092 92.2105 167.73 92.481 167.575 92.8094C167.633 93.1186 167.343 93.4277 167.614 93.7369C167.691 94.046 167.768 94.3358 167.556 94.6256C168.271 94.9541 167.343 95.2053 167.498 95.4951C167.189 95.7656 167.498 96.0554 167.382 96.3259C167.498 96.6157 166.996 96.8283 167.247 97.1374C167.208 97.2726 167.247 97.4079 167.247 97.5432C167.247 97.6784 167.247 97.7943 167.073 97.9102C167.382 98.2194 166.686 98.3546 166.88 98.6445C166.841 98.8956 166.802 99.1275 166.686 99.34C166.087 99.4366 166.474 99.7651 166.455 99.9969C166.339 100.19 166.667 100.499 166.223 100.615C166.126 100.808 165.836 100.944 166.01 101.195C166.029 101.407 165.102 101.33 165.778 101.736C165.856 101.948 165.121 101.91 165.546 102.219C165.933 102.528 165.392 102.528 165.315 102.663C165.237 102.799 165.16 102.953 165.102 103.069C164.406 104.209 163.865 104.789 163.595 104.673C163.44 104.615 163.363 104.325 163.363 103.881C163.363 103.649 163.382 103.397 163.421 103.088C163.46 102.779 163.518 102.451 163.576 102.064C163.595 101.91 163.267 101.639 163.653 101.581C163.711 101.427 163.46 101.176 163.73 101.079C163.267 100.77 163.73 100.712 163.827 100.538C163.846 100.345 164.059 100.209 163.904 99.9583C163.653 99.6878 164.155 99.6105 164.001 99.3593C164.368 99.2434 164.349 99.0116 164.097 98.7411C164.445 98.6058 164.097 98.2967 164.155 98.0841C164.677 97.9489 164.387 97.6591 164.233 97.4079C164.175 97.2726 164.213 97.1761 164.233 97.0601C164.271 96.9442 164.31 96.8283 164.271 96.7123C164.387 96.4998 164.194 96.2293 164.31 95.9975C164.097 95.727 164.059 95.4951 164.349 95.2632C164.194 95.0121 164.349 94.7609 164.349 94.5097C164.155 94.2585 164.387 94.0074 164.349 93.7369C164.233 93.4857 164.832 93.1959 164.291 92.964C164.213 92.7128 164.349 92.423 164.233 92.1719C164.252 91.9014 164.291 91.6115 164.097 91.3797C164.58 91.0319 164.233 90.8 163.962 90.5682C163.75 90.3363 163.769 90.0465 163.769 89.776C163.653 89.5248 163.634 89.2543 163.576 88.9838C163.344 88.7906 163.614 88.4042 163.344 88.2303C163.035 88.0564 163.421 87.6507 163.093 87.4961C162.841 87.3222 162.668 87.129 162.803 86.7812C162.706 86.5687 163.035 86.105 162.513 86.0857C162.3 85.9118 161.663 86.0084 162.185 85.4287C161.914 85.3128 162.262 84.8298 161.875 84.7911C162.223 84.3081 161.644 84.3854 161.528 84.1922C161.489 83.941 161.528 83.6512 161.199 83.6125C160.871 83.5932 161.083 83.1682 160.871 83.0522C160.484 83.0716 160.929 82.4726 160.523 82.5306C160.446 82.3373 160.233 82.2407 160.194 82.0282C159.518 82.3567 159.963 81.7384 159.885 81.5452C159.827 81.3326 159.286 81.6031 159.576 81.1201C159.055 81.3713 159.286 80.9269 159.286 80.7144C159.286 80.4825 158.9 80.6564 159.016 80.3279C158.629 80.5018 158.977 79.9608 158.765 79.9608C158.842 79.6903 158.571 79.7676 158.533 79.6324C158.378 79.6324 158.32 79.5164 158.32 79.3232C158.262 79.2266 158.204 79.13 158.146 79.0527C157.837 78.5311 157.721 78.164 157.857 78.0094L157.895 78.048Z" fill="#10389B"/>
<path d="M97.4782 73.4684C97.5748 73.2945 98.8307 73.7775 100.995 74.8209C101.362 74.9948 101.748 75.188 102.154 75.3812C102.579 75.5551 103.023 75.7483 103.468 76.0188C103.796 76.5019 104.627 76.0961 104.936 76.7144C105.381 77.1008 105.96 77.2747 106.559 77.4679C107.139 77.6805 107.622 78.1635 108.317 78.2408C109.129 78.0282 109.322 79.3228 110.23 78.975C110.945 79.1102 111.602 79.3807 112.298 79.6319C112.587 79.9217 112.954 80.0376 113.341 80.0956C113.727 80.1343 114.133 80.0956 114.52 80.1536C115.196 80.7719 116.046 80.7139 116.877 80.4241C117.63 81.139 118.558 81.0423 119.369 80.4047C119.794 80.4047 120.219 80.4047 120.644 80.3854C121.069 80.3854 121.514 80.2888 121.92 80.057C122.132 79.999 122.345 79.9604 122.557 79.8831C122.77 79.8251 122.982 79.7478 123.195 79.6899C123.639 79.5739 124.064 79.4387 124.528 79.3421C124.914 79.0136 125.301 78.7431 125.745 78.5692C126.19 78.4146 126.673 78.318 127.194 78.2987C127.542 77.9123 127.967 77.6225 128.431 77.4486C128.894 77.2747 129.378 77.1394 129.899 77.0235C130.943 76.811 131.542 75.7097 132.643 75.5358C133.59 75.0528 134.459 74.3958 135.444 73.9128L135.638 73.8355L135.734 73.7969H135.792L135.869 73.7389L136.507 73.4491C136.913 73.2559 137.319 73.0627 137.705 72.8502C138.091 72.6376 138.497 72.4058 138.942 72.1159C139.367 71.8261 139.83 71.4976 140.352 71.0726C141.299 70.4736 142.323 69.8167 143.327 69.2371C143.115 70.2031 142.806 71.3431 142.4 72.483C142.477 73.1979 142.303 74.2992 141.975 75.4198C141.801 75.9802 141.608 76.5212 141.415 77.0622L141.26 77.4486C141.202 77.5838 141.144 77.7384 141.125 77.777L140.893 78.1828C140.622 79.3614 139.908 80.4047 139.753 81.6413C139.251 82.7619 139.096 84.0371 138.381 85.0998C137.744 86.1818 137.067 87.2445 136.739 88.481C136.43 89.7369 135.406 90.587 134.826 91.669C134.556 91.8622 134.343 92.0941 134.15 92.3259C133.957 92.5771 133.802 92.8283 133.648 93.0988C133.338 93.6398 133.029 94.1808 132.566 94.6058C131.773 95.5719 130.691 96.2095 129.899 97.1756C129.01 98.0257 127.986 98.7985 126.789 99.185C126.402 99.7839 125.784 99.9965 125.146 100.093C124.837 100.132 124.509 100.151 124.199 100.19C123.89 100.209 123.581 100.248 123.291 100.364C122.982 100.344 122.673 100.364 122.383 100.364C122.074 100.364 121.784 100.422 121.494 100.46C120.895 100.518 120.297 100.576 119.717 100.499C119.118 100.499 118.538 100.344 117.997 100.151C117.456 99.9578 116.935 99.7646 116.355 99.726C115.331 99.3009 114.21 99.0884 113.418 98.2962C113.148 98.2382 112.897 98.1223 112.684 97.9871C112.471 97.8325 112.278 97.6779 112.085 97.4847C111.892 97.2915 111.718 97.1176 111.525 96.9437C111.331 96.7698 111.138 96.6346 110.906 96.5187C110.134 95.9004 109.38 95.2628 108.762 94.5479C108.684 94.2774 108.588 94.0648 108.453 93.8716C108.317 93.6784 108.163 93.5239 107.989 93.3693C107.641 93.0795 107.255 92.809 106.946 92.4998C106.405 91.785 105.574 91.3406 105.361 90.4325C104.898 89.7369 104.627 88.9254 103.989 88.4037C103.719 88.0946 103.68 87.6695 103.584 87.2638C103.487 86.8773 103.313 86.5489 102.792 86.433C102.54 86.1625 102.463 85.7761 102.366 85.409C102.27 85.0418 102.135 84.7327 101.748 84.5588C100.995 84.1917 101.13 83.3416 100.859 82.7813C100.589 82.2016 100.318 81.6606 100.087 81.1389C99.0239 78.7624 98.3283 76.8303 97.9032 75.4971C97.4975 74.164 97.3623 73.4104 97.4975 73.3718C97.6521 73.2945 98.1351 74.0867 98.9466 75.5938C99.7581 77.0815 100.898 79.2648 102.463 81.9311C102.792 82.4528 103.429 82.8199 103.468 83.5734C103.796 84.153 104.414 84.5975 104.588 85.3123C104.994 85.4862 105.207 85.7567 105.381 86.1045C105.535 86.4329 105.651 86.8194 105.844 87.1285C106.289 87.7468 106.617 88.481 107.255 88.9834C107.97 89.4277 108.124 90.3552 108.839 90.8382C108.994 91.2633 109.225 91.6304 109.535 91.9202C109.689 92.0748 109.863 92.21 110.037 92.3259C110.23 92.4419 110.423 92.5578 110.617 92.6544C110.81 93.0795 111.158 93.35 111.505 93.6205C111.873 93.8716 112.259 94.0842 112.607 94.3547C112.993 95.3014 113.979 95.5526 114.829 95.8231C115.679 96.1129 116.394 96.7505 117.302 96.9244C118.133 97.3108 119.06 97.3108 119.949 97.4654C120.876 97.3108 121.707 97.1949 122.673 97.2915C123.543 96.963 124.451 96.7698 125.339 96.3254C126.112 95.7265 127.059 95.3594 127.832 94.6638C128.199 94.2967 128.663 94.0455 129.107 93.7364C129.32 93.5625 129.532 93.4079 129.706 93.1954C129.88 92.9829 130.015 92.7317 130.092 92.4612C130.749 91.6111 131.522 90.8189 132.063 89.8335C132.739 88.9447 133.396 87.998 133.802 86.916C134.826 86.1432 135.039 84.9259 135.328 83.7666C135.657 82.6267 136.159 81.564 136.623 80.5013C136.971 79.3807 137.357 78.2987 137.724 77.1974C137.744 77.0622 137.782 76.9076 137.821 76.7724V76.6757C137.821 76.6757 137.86 76.6757 137.86 76.6564C137.879 76.6178 137.918 76.5791 137.956 76.5212C138.033 76.4246 138.13 76.2507 137.995 76.3086C137.918 76.3473 137.918 76.3473 137.937 76.3086C137.937 76.27 138.014 76.1734 138.053 76.0961C138.091 75.9995 138.033 75.9609 137.86 76.1927C137.802 76.27 137.744 76.3473 137.724 76.3859C137.686 76.4246 137.686 76.4632 137.628 76.4825C137.589 76.5212 137.55 76.5212 137.492 76.5212C137.473 76.5212 137.434 76.5212 137.396 76.5212H137.338L137.241 76.5598L137.048 76.6178C136.082 77.1781 134.884 77.294 134.15 78.2215C133.242 78.8397 132.566 79.8831 131.252 79.7092C130.807 80.0183 130.286 80.1922 129.783 80.3468C129.262 80.5013 128.779 80.6752 128.334 81.023C127.755 80.9651 127.272 81.1583 126.789 81.3901C126.325 81.622 125.88 81.9118 125.378 82.047C124.876 82.1437 124.373 82.2403 123.852 82.3175C123.6 82.3562 123.349 82.4141 123.117 82.4914C122.886 82.5687 122.634 82.6267 122.403 82.7426C121.939 82.9551 121.437 83.0131 120.934 82.9938C120.432 82.9938 119.949 82.9745 119.466 82.9938C118.983 83.1484 118.5 83.0904 118.036 82.9551C117.572 82.8392 117.128 82.7619 116.645 82.8778C115.737 82.7426 114.829 82.704 113.998 82.4335C113.496 82.6846 113.07 82.588 112.684 82.3948C112.298 82.1823 111.969 81.8731 111.583 81.7379C110.849 81.3901 109.902 81.6799 109.399 80.8878C108.491 81.1389 108.008 80.3854 107.429 79.9797C106.868 79.5353 106.095 79.6126 105.67 79.0522C104.917 79.1102 104.666 78.2987 104.086 78.1441C103.7 77.6418 103.101 77.6032 102.676 77.2747C102.173 77.1008 101.768 76.8303 101.439 76.4825C101.053 76.2313 100.705 75.9802 100.357 75.7676C98.3669 74.4152 97.3236 73.6037 97.4202 73.4105L97.4782 73.4684Z" fill="#10389B"/>
<path d="M97.478 39.2314C97.5746 39.0575 98.8305 39.5405 100.994 40.5838C101.362 40.7577 101.748 40.951 102.154 41.1442C102.579 41.3181 103.023 41.5113 103.468 41.7818C103.796 42.2648 104.627 41.859 104.936 42.4966C105.38 42.8637 105.96 43.057 106.559 43.2502C107.139 43.4434 107.622 43.9457 108.317 44.023C109.129 43.8105 109.322 45.1243 110.23 44.7572C110.945 44.8925 111.602 45.163 112.297 45.4141C112.587 45.704 112.954 45.8199 113.341 45.8586C113.727 45.8972 114.133 45.8585 114.519 45.9165C115.176 46.5348 116.046 46.4768 116.877 46.187C117.63 46.9019 118.557 46.8053 119.369 46.1677C119.794 46.1677 120.219 46.1677 120.644 46.1484C121.069 46.1484 121.514 46.0517 121.919 45.8392C122.132 45.7812 122.344 45.7426 122.557 45.6653C122.769 45.588 122.982 45.5301 123.195 45.4721C123.62 45.3562 124.064 45.2209 124.528 45.1243C124.914 44.7766 125.301 44.5254 125.745 44.3515C126.189 44.1969 126.672 44.1003 127.194 44.081C127.561 43.6752 127.967 43.4047 128.431 43.2115C128.894 43.0376 129.397 42.9024 129.899 42.7865C130.942 42.5739 131.541 41.4726 132.643 41.2987C133.589 40.8157 134.459 40.1588 135.464 39.6757L135.657 39.5985C135.657 39.5985 135.773 39.5598 135.889 39.5019L136.507 39.212C136.913 39.0188 137.318 38.8256 137.705 38.6131C138.091 38.4006 138.497 38.1687 138.941 37.8789C139.366 37.5891 139.83 37.2606 140.352 36.8355C141.299 36.2366 142.323 35.5796 143.308 35C143.095 35.9661 142.786 37.106 142.381 38.246C142.419 38.6131 142.381 39.0575 142.323 39.5598C142.245 40.0622 142.129 40.6032 141.955 41.1635C141.782 41.7238 141.588 42.2841 141.395 42.8058L141.241 43.2115L141.163 43.4047V43.4627L141.125 43.482V43.54L140.873 43.9457C140.603 45.1243 139.869 46.1677 139.734 47.4042C139.231 48.5249 139.077 49.8001 138.362 50.8627C137.724 51.9447 137.048 53.0074 136.719 54.244C136.41 55.4998 135.386 56.35 134.807 57.4319C134.536 57.6252 134.324 57.8377 134.13 58.0889C133.937 58.34 133.783 58.5912 133.628 58.8617C133.319 59.4027 133.01 59.9437 132.546 60.3688C131.754 61.3348 130.672 61.9724 129.88 62.9385C128.991 63.7886 127.967 64.5615 126.769 64.9479C126.383 65.5469 125.764 65.7594 125.127 65.856C124.818 65.914 124.489 65.914 124.18 65.9526C123.871 65.9719 123.562 66.0106 123.272 66.1265C122.963 66.1072 122.654 66.1265 122.364 66.1458C122.055 66.1458 121.765 66.2038 121.475 66.2424C120.876 66.3004 120.277 66.3584 119.697 66.2811C119.098 66.2811 118.538 66.1265 117.978 65.9333C117.437 65.7401 116.915 65.5469 116.336 65.5082C115.312 65.0832 114.191 64.8706 113.399 64.0978C113.128 64.0398 112.877 63.9239 112.665 63.7886C112.452 63.6341 112.239 63.4602 112.066 63.2863C111.892 63.0931 111.698 62.9192 111.505 62.7453C111.312 62.5714 111.119 62.4168 110.887 62.3202C110.114 61.7019 109.361 61.0644 108.742 60.3495C108.665 60.079 108.568 59.8664 108.433 59.6732C108.298 59.48 108.143 59.3254 107.969 59.1709C107.622 58.8811 107.235 58.6299 106.926 58.3014C106.385 57.5865 105.554 57.1421 105.342 56.234C104.878 55.5385 104.608 54.727 103.97 54.2053C103.719 53.8962 103.661 53.4711 103.564 53.0847C103.468 52.6982 103.294 52.3698 102.772 52.2539C102.521 51.9641 102.444 51.597 102.347 51.2299C102.25 50.8627 102.115 50.5343 101.729 50.3797C100.975 50.0126 101.11 49.1625 100.84 48.6022C100.569 48.0225 100.299 47.4815 100.067 46.9598C99.0044 44.5833 98.3088 42.6512 97.8837 41.3181C97.478 39.9849 97.3427 39.2313 97.478 39.1927C97.6326 39.1154 98.1156 39.9076 98.9271 41.4147C99.7386 42.9024 100.879 45.0857 102.444 47.752C102.772 48.293 103.41 48.6601 103.448 49.3943C103.777 49.9739 104.395 50.4184 104.569 51.1332C104.975 51.3071 105.187 51.5776 105.361 51.9254C105.516 52.2539 105.632 52.6403 105.844 52.9494C106.289 53.5677 106.598 54.3019 107.255 54.8043C107.969 55.2486 108.124 56.1761 108.839 56.6591C108.993 57.0842 109.225 57.4513 109.534 57.7411C109.689 57.8957 109.863 58.0309 110.037 58.1469C110.211 58.2628 110.423 58.3787 110.616 58.4753C110.81 58.9004 111.157 59.1709 111.505 59.4414C111.872 59.6925 112.259 59.9051 112.607 60.1756C112.993 61.1223 113.978 61.3735 114.848 61.644C115.698 61.9338 116.413 62.5521 117.321 62.7453C118.152 63.1317 119.079 63.1317 119.968 63.2863C120.895 63.1317 121.726 63.0158 122.692 63.1124C123.562 62.7839 124.47 62.5907 125.359 62.1463C126.131 61.5474 127.078 61.1803 127.851 60.4847C128.218 60.1176 128.682 59.8664 129.126 59.5573C129.339 59.3834 129.551 59.2288 129.725 59.0163C129.899 58.8038 130.034 58.5526 130.112 58.2821C130.768 57.432 131.541 56.6398 132.082 55.6544C132.759 54.7656 133.415 53.8189 133.821 52.7369C134.845 51.9641 135.058 50.7468 135.328 49.5875C135.657 48.4476 136.159 47.3849 136.623 46.3222C136.971 45.2016 137.357 44.1196 137.724 43.0183C137.743 42.8831 137.782 42.7285 137.821 42.5933V42.4966C137.821 42.4966 137.859 42.4967 137.859 42.4773C137.859 42.4387 137.917 42.4 137.956 42.3421C138.033 42.2455 138.13 42.0716 137.995 42.1295C137.937 42.1682 137.917 42.1682 137.937 42.1295C137.937 42.0909 138.014 41.9943 138.053 41.917C138.091 41.8204 138.033 41.7818 137.859 42.0136C137.801 42.0909 137.743 42.1682 137.724 42.2068C137.685 42.2648 137.685 42.2841 137.627 42.3228C137.589 42.3421 137.55 42.3614 137.492 42.3614C137.473 42.3614 137.434 42.3614 137.396 42.3614C137.396 42.3614 137.396 42.3614 137.338 42.3614L137.241 42.4L137.029 42.458C136.062 43.0183 134.865 43.1342 134.13 44.0617C133.222 44.6799 132.546 45.7233 131.232 45.5494C130.788 45.8585 130.285 46.0324 129.764 46.187C129.242 46.3416 128.759 46.5155 128.315 46.8439C127.716 46.8053 127.252 46.9792 126.769 47.211C126.305 47.4429 125.861 47.7327 125.359 47.8679C124.856 47.9646 124.354 48.0612 123.832 48.1384C123.581 48.1771 123.33 48.235 123.098 48.3123C122.866 48.3896 122.615 48.4476 122.383 48.5635C121.919 48.776 121.417 48.834 120.915 48.8147C120.412 48.8147 119.929 48.7954 119.446 48.8147C118.963 48.9693 118.48 48.9113 118.016 48.776C117.553 48.6601 117.108 48.5828 116.625 48.6988C115.717 48.5635 114.809 48.5249 113.978 48.2544C113.476 48.5055 113.051 48.409 112.665 48.2157C112.278 48.0032 111.95 47.694 111.563 47.5588C110.848 47.211 109.882 47.5008 109.38 46.7087C108.472 46.9598 107.989 46.2063 107.409 45.8006C106.849 45.3562 106.076 45.4335 105.651 44.8731C104.897 44.9311 104.646 44.1196 104.067 43.965C103.68 43.4627 103.081 43.4241 102.656 43.0956C102.154 42.9217 101.748 42.6512 101.42 42.3034C101.033 42.0522 100.685 41.8011 100.338 41.5885C98.3475 40.2361 97.3041 39.4246 97.4007 39.2314H97.478Z" fill="#10389B"/>
</svg>
