<svg width="236" height="236" viewBox="0 0 236 236" fill="none" xmlns="http://www.w3.org/2000/svg">
<rect width="236" height="236" rx="118" fill="white"/>
<path d="M117.506 94.425C117.506 94.2892 118.32 94.3086 119.775 93.9013C120.493 93.7073 121.385 93.3969 122.394 92.9313C123.403 92.4658 124.528 91.845 125.789 91.1079C126.623 90.6035 127.515 90.0603 128.485 89.459C129.436 88.8576 130.464 88.1981 131.647 87.6743C132.287 87.5191 132.85 87.1311 133.451 86.782C134.053 86.4328 134.732 86.103 135.507 86.1418C136.245 86.0254 136.982 85.8896 137.777 85.812C138.165 85.7732 138.573 85.7344 138.98 85.7538C139.387 85.7538 139.814 85.7538 140.221 85.812C140.435 85.8314 140.648 85.8703 140.861 85.9091C141.075 85.9479 141.269 86.0254 141.482 86.0836C141.696 86.1612 141.89 86.2194 142.103 86.297C142.297 86.394 142.491 86.491 142.685 86.588C143.092 86.7626 143.461 86.9953 143.849 87.2087L144.14 87.3639L144.411 87.5385C144.605 87.6549 144.799 87.7713 144.993 87.8877C145.44 88.0623 145.789 88.3727 146.119 88.7025C146.41 89.0516 146.681 89.4396 146.933 89.847C147.399 90.6617 147.806 91.4764 148.524 92.1748C149.513 93.8236 150.056 95.7829 150.212 97.8004C150.173 98.3241 150.115 98.8285 150.115 99.3328C150.115 99.8372 150.095 100.322 150.115 100.827C150.153 101.331 150.134 101.835 150.153 102.34C150.153 102.592 150.153 102.844 150.153 103.116C150.153 103.368 150.134 103.62 150.115 103.892C149.416 105.89 149.242 107.965 148.931 110.157C147.67 112.078 146.972 114.076 146.409 116.404C146.157 116.927 145.828 117.393 145.517 117.897C145.187 118.382 144.838 118.848 144.508 119.333C144.14 119.798 143.81 120.283 143.442 120.749C143.267 120.982 143.073 121.214 142.898 121.467C142.821 121.583 142.724 121.699 142.627 121.835L142.491 122.01L142.413 122.107C142.413 122.107 142.413 122.126 142.413 122.146L142.336 122.243C142.336 122.243 142.297 122.281 142.297 122.301V122.359V122.475V122.883C142.297 123.465 142.297 124.066 142.297 124.648C142.297 125.831 142.239 127.015 142.122 128.217C142.452 130.642 142.278 133.106 141.676 135.569C141.948 138.091 141.482 140.632 140.881 143.174C140.26 145.695 140.493 148.431 139.504 150.972C139.174 152.291 138.844 153.61 138.437 154.949C138.01 156.287 137.506 157.626 136.73 158.925C136.264 159.604 135.76 160.283 135.003 160.923C134.887 161.02 134.77 161.137 134.635 161.214L134.227 161.447C133.975 161.622 133.684 161.699 133.393 161.816C132.811 161.951 132.229 161.971 131.647 161.854L131.473 161.796C131.473 161.796 131.356 161.757 131.298 161.719C131.182 161.66 131.065 161.641 130.949 161.563C130.852 161.486 130.735 161.428 130.638 161.35L130.367 161.098C130.037 160.729 129.804 160.264 129.649 159.759C129.591 159.507 129.533 159.236 129.494 158.964L129.416 158.305C129.377 157.955 129.339 157.626 129.281 157.276C129.261 155.86 129.222 154.522 129.164 153.183C129.106 151.845 129.048 150.506 128.97 149.148C128.117 146.53 127.69 143.872 127.069 141.137C126.099 138.537 125.323 135.763 123.771 133.319C123.636 133.028 123.383 132.543 123.422 132.621C123.383 132.582 123.383 132.524 123.325 132.504L122.976 132.582H122.898L122.86 132.621C122.86 132.621 122.86 132.621 122.782 132.621L122.219 132.698L121.075 132.854L119.911 132.951L119.329 132.989H118.747C118.359 132.989 117.971 132.989 117.583 132.951L116.419 132.873L115.837 132.834L115.255 132.776L114.091 132.66L112.947 132.504L112.365 132.427L112.132 132.388C111.996 132.369 111.861 132.349 111.725 132.349C111.705 132.349 111.705 132.349 111.686 132.349V132.388L111.667 132.446C111.667 132.485 111.667 132.524 111.647 132.563V132.621C111.647 132.621 111.647 132.66 111.628 132.679L111.57 132.795C111.492 132.97 111.434 133.125 111.376 133.3C110.386 135.996 108.854 138.402 108.078 141.117C107.418 142.359 107.05 143.717 106.817 145.075C106.584 146.433 106.429 147.79 106.177 149.129C106.022 150.467 105.847 151.806 105.77 153.164C105.692 154.522 105.711 155.86 105.867 157.276C105.867 157.606 105.886 157.955 105.886 158.305C105.886 158.382 105.886 158.498 105.886 158.576V158.77L105.867 158.983C105.828 159.274 105.789 159.565 105.731 159.856C105.595 160.419 105.343 160.923 104.974 161.35L104.683 161.641C104.567 161.719 104.45 161.796 104.334 161.874C104.218 161.951 104.082 161.99 103.965 162.048C103.907 162.087 103.83 162.087 103.771 162.126L103.577 162.184C102.937 162.32 102.297 162.32 101.657 162.145C101.347 162.029 101.036 161.932 100.765 161.719L100.338 161.447C100.202 161.35 100.066 161.234 99.95 161.117L99.6589 160.846L99.4262 160.574L99.2128 160.303C99.2128 160.303 99.0964 160.128 99.0188 160.031C98.7666 159.662 98.5726 159.294 98.3786 158.925C97.3117 157.761 96.8073 156.365 96.4776 155.007C96.1478 153.629 95.9733 152.272 95.5853 150.972C95.2749 148.275 94.4795 145.754 94.208 143.154C93.723 140.594 93.9169 138.014 93.4125 135.569C93.2574 133.067 92.8112 130.642 92.9664 128.217C92.7336 127.015 92.753 125.831 92.8112 124.648C92.8306 124.066 92.8694 123.465 92.8694 122.883V122.456C92.8694 122.456 92.8694 122.359 92.8694 122.32V122.262C92.8694 122.262 92.8306 122.223 92.8112 122.223C92.7724 122.184 92.7336 122.165 92.6948 122.146L92.4426 121.855C92.3456 121.738 92.2293 121.641 92.1517 121.505C91.9577 121.273 91.7637 121.04 91.5891 120.807C91.2011 120.341 90.8713 119.857 90.5028 119.391C90.173 118.906 89.8432 118.421 89.5328 117.917C89.2419 117.412 88.9315 116.908 88.6987 116.384C88.5435 115.802 88.3496 115.278 88.1556 114.735C88.0586 114.464 87.9422 114.212 87.8064 113.959C87.7095 113.707 87.5931 113.436 87.4573 113.183C87.2051 112.679 86.9722 112.175 86.7588 111.67C86.5261 111.166 86.3321 110.642 86.1769 110.118C85.6144 108.023 84.8384 105.967 84.9936 103.853C84.9936 103.601 84.9548 103.348 84.9354 103.077C84.9354 102.825 84.9354 102.572 84.9354 102.32C84.9354 101.816 84.916 101.312 84.9354 100.807C84.9354 100.303 84.9354 99.8178 84.9354 99.3135C84.9354 98.8091 84.9354 98.2853 84.9354 97.781C84.9936 96.7722 85.3815 95.8023 85.7695 94.91C85.8665 94.6772 85.9635 94.4638 86.0411 94.2311C86.1187 93.9983 86.2351 93.7848 86.2933 93.5715C86.3709 93.3387 86.4292 93.1059 86.4874 92.8731C86.5456 92.6404 86.5842 92.3882 86.623 92.136C86.9916 91.2436 87.6513 90.5259 88.2914 89.8664C88.6212 89.5366 88.9704 89.2456 89.2613 88.8965C89.5911 88.5861 89.882 88.2369 90.1536 87.8489C90.7162 87.1118 91.5115 86.6074 92.3651 86.3164C92.5784 86.2388 92.7919 86.1806 93.0053 86.1031C93.2186 86.0643 93.4321 86.006 93.6454 85.9672C93.8588 85.9285 94.0721 85.8703 94.2855 85.8509C94.4989 85.8315 94.7123 85.7926 94.9257 85.7538C95.3331 85.6568 95.7599 85.6568 96.1672 85.6374C96.5746 85.5986 96.982 85.6375 97.3699 85.6569C98.1653 85.7345 98.9218 85.8896 99.6395 86.0642C101.25 86.5104 102.666 87.1505 103.927 87.8295C105.188 88.5084 106.332 89.1874 107.38 89.8275C109.475 91.1272 111.24 92.1748 112.753 92.8537C114.266 93.5521 115.488 93.8818 116.342 94.0564C116.768 94.134 117.098 94.1923 117.312 94.2311C117.525 94.2699 117.641 94.3086 117.641 94.3474C117.641 94.425 117.079 94.5608 115.973 94.4832C114.867 94.425 113.238 94.0758 111.298 93.2223C110.328 92.8149 109.281 92.2911 108.136 91.6898C107.011 91.0884 105.789 90.4095 104.489 89.7499C103.17 89.071 101.754 88.4114 100.202 87.9459C99.4261 87.7131 98.6114 87.5386 97.7772 87.4416C97.5638 87.4416 97.37 87.4027 97.1566 87.4027C96.9432 87.4027 96.7298 87.4027 96.5164 87.4027C96.303 87.4027 96.109 87.4415 95.8956 87.4609C95.7986 87.4609 95.6823 87.4609 95.5853 87.4803L95.2749 87.5385C95.1003 87.5773 94.9451 87.6161 94.7705 87.6549C94.6153 87.6937 94.4407 87.7907 94.2855 87.8489C94.1303 87.9265 93.9751 87.9847 93.8005 88.0623C93.6454 88.1593 93.4902 88.2369 93.335 88.3339C93.0246 88.4891 92.7337 88.7024 92.4233 88.8576C92.3457 88.8964 92.2681 88.9352 92.1905 88.974L91.9577 89.1098C91.8025 89.2068 91.628 89.2844 91.4534 89.362C91.1624 89.5948 90.9101 89.8858 90.6386 90.1573C90.4058 90.4677 90.1536 90.7587 89.9402 91.0691C89.5135 91.7286 89.0673 92.3882 88.6212 93.0477C88.6018 93.2611 88.5435 93.4745 88.4854 93.6685C88.4466 93.8819 88.3883 94.0758 88.3301 94.2698C88.2719 94.4638 88.1944 94.6578 88.1362 94.8518C88.078 95.0458 88.0004 95.2591 87.9423 95.4531C87.6513 96.2291 87.3991 97.0632 87.3021 97.9361C87.2633 98.3823 87.2632 98.8091 87.2244 99.2553C87.2244 99.7208 87.2244 100.186 87.2244 100.671C87.2244 101.156 87.2633 101.622 87.3021 102.107C87.3215 102.34 87.3408 102.592 87.3796 102.825C87.4184 103.057 87.4766 103.31 87.5154 103.542C87.5736 103.775 87.6318 104.008 87.6706 104.26C87.7094 104.493 87.7677 104.745 87.8064 104.978C87.884 105.463 87.9228 105.948 88.0198 106.433C88.0974 106.918 88.1556 107.422 88.272 107.907C88.3884 108.392 88.5047 108.877 88.7181 109.343C88.9703 111.379 89.8626 113.339 91.1429 115.026C91.3175 115.531 91.5697 115.996 91.8413 116.462C92.1128 116.927 92.4427 117.354 92.7531 117.781C93.1022 118.188 93.432 118.615 93.82 119.022L94.3632 119.624L94.9645 120.283C95.1197 120.477 95.2554 120.671 95.3912 120.885L95.4882 121.02L95.5465 121.098C95.5465 121.098 95.5659 121.117 95.5659 121.137V121.176L95.5465 121.544C95.5465 121.932 95.5076 122.34 95.4882 122.728C95.4882 123.309 95.4882 123.891 95.527 124.473C95.624 125.637 95.7986 126.821 95.9538 128.004C96.2447 130.371 96.1478 132.795 96.4776 135.24C96.5939 137.703 97.0789 140.147 97.3311 142.669C97.9131 145.133 98.4175 147.616 98.7279 150.177C99.0964 151.399 99.4455 152.64 99.8335 153.843C100.221 155.046 100.668 156.229 101.23 157.257C101.424 157.509 101.579 157.761 101.773 157.975C101.812 158.033 101.851 158.091 101.909 158.13L102.045 158.266L102.181 158.402L102.297 158.498C102.297 158.498 102.433 158.596 102.53 158.596C102.627 158.596 102.685 158.537 102.705 158.44C102.705 158.421 102.705 158.402 102.705 158.363V158.305C102.705 158.305 102.705 158.169 102.705 158.111C102.705 157.82 102.705 157.529 102.705 157.218C102.627 155.88 102.705 154.425 102.821 152.97C102.937 151.515 103.073 150.08 102.995 148.586C103.325 145.657 104.179 142.786 105.013 139.953C106.022 137.16 107.263 134.444 108.485 131.709C108.737 131.379 108.873 131.224 109.281 130.545L109.785 129.711L110.018 129.304L110.134 129.09L110.192 128.993C110.192 128.993 110.27 128.993 110.309 128.993C110.891 129.11 111.473 129.226 112.055 129.323L112.481 129.401L112.695 129.439C112.695 129.439 112.85 129.459 112.889 129.459L113.412 129.517C113.762 129.556 114.111 129.575 114.479 129.595H115.546H116.07H116.594L117.661 129.517L118.728 129.439H119.251L119.775 129.362L120.823 129.284L121.87 129.168L122.394 129.11L123.306 128.974L125.187 128.683C125.187 128.683 125.265 128.683 125.304 128.683L125.362 128.799L125.478 129.032L125.711 129.517L126.196 130.448C126.584 131.205 126.662 131.36 126.836 131.748C128.233 134.405 129.378 137.179 130.309 140.012C130.852 141.408 131.22 142.844 131.511 144.299C131.802 145.754 132.035 147.209 132.326 148.644C132.636 150.099 132.675 151.573 132.656 153.028C132.656 154.483 132.52 155.919 132.617 157.276V157.742L132.675 158.169C132.675 158.246 132.675 158.305 132.675 158.363C132.675 158.402 132.675 158.382 132.675 158.402L132.695 158.46C132.733 158.518 132.772 158.537 132.83 158.537C132.889 158.537 132.927 158.537 132.986 158.518L133.102 158.44L133.238 158.305L133.374 158.169C133.374 158.169 133.471 158.072 133.509 158.014C133.703 157.82 133.878 157.567 134.072 157.315C134.654 156.287 135.236 155.162 135.702 153.979C136.167 152.776 136.516 151.534 136.594 150.235C137.079 147.694 136.904 145.114 137.991 142.727C138.146 140.206 138.96 137.781 138.844 135.298C139.601 132.892 139.232 130.429 139.368 128.062C139.484 126.879 139.601 125.696 139.678 124.532C139.717 123.95 139.736 123.368 139.736 122.786C139.736 122.378 139.736 121.99 139.736 121.583V121.214V121.176C139.736 121.176 139.736 121.156 139.756 121.137L139.814 121.059L139.93 120.923L140.396 120.342C140.571 120.109 140.764 119.876 140.939 119.643C141.094 119.43 141.269 119.216 141.443 119.003C141.793 118.596 142.103 118.169 142.452 117.761C142.782 117.335 143.112 116.908 143.403 116.481C143.694 116.035 143.985 115.589 144.217 115.123C144.392 114.619 144.644 114.153 144.858 113.688C144.974 113.455 145.11 113.222 145.226 113.009C145.343 112.776 145.459 112.543 145.595 112.31C145.847 111.864 146.06 111.379 146.254 110.914C146.448 110.429 146.565 109.944 146.642 109.44C147.282 107.519 147.535 105.54 147.864 103.62C147.806 103.368 147.767 103.116 147.729 102.883C147.709 102.65 147.67 102.398 147.67 102.165C147.67 101.68 147.748 101.215 147.787 100.749C147.845 100.283 147.942 99.8178 148 99.3522C148.039 98.9061 148.097 98.4599 148.078 98.0332C148.039 97.1602 147.767 96.3261 147.457 95.5307C147.379 95.3367 147.302 95.1428 147.244 94.9488C147.185 94.7548 147.088 94.5608 147.03 94.3668C146.972 94.1728 146.914 93.9788 146.875 93.7655C146.817 93.5715 146.778 93.3581 146.739 93.1447C146.138 92.5433 145.692 91.9226 145.265 91.263C145.052 90.9332 144.838 90.6229 144.625 90.3125C144.373 90.0215 144.159 89.7112 143.888 89.4396C143.345 88.9158 142.685 88.5472 142.025 88.3145C141.851 88.2563 141.696 88.1787 141.54 88.1205C141.366 88.0623 141.211 88.0235 141.036 87.9653C140.881 87.9071 140.706 87.8295 140.551 87.7907C140.396 87.7519 140.221 87.6743 140.066 87.6161C139.717 87.6161 139.387 87.6743 139.057 87.6355C138.728 87.5967 138.398 87.5967 138.068 87.5579C137.409 87.5191 136.71 87.5191 136.089 87.7519C135.41 87.7907 134.79 88.0041 134.188 88.2368C133.587 88.489 133.044 88.78 132.462 89.0322C131.395 89.6529 130.347 90.1961 129.3 90.6229C128.311 91.1467 127.379 91.6704 126.507 92.1166C125.187 92.7955 123.985 93.3581 122.879 93.7461C121.793 94.1341 120.842 94.3668 120.047 94.4832C119.659 94.5414 119.31 94.5608 118.999 94.5802C118.689 94.5802 118.456 94.5802 118.243 94.5802C117.835 94.5414 117.641 94.4832 117.641 94.4444L117.506 94.425Z" fill="#10389B"/>
<path d="M139.58 92.349C139.715 92.1939 139.968 92.1744 140.355 92.2714C140.414 92.2714 140.491 92.3102 140.55 92.3296C140.627 92.3296 140.724 92.3296 140.763 92.4072C140.627 92.6594 141.228 92.155 140.996 92.5042C140.976 92.64 141.112 92.64 141.228 92.64C141.364 92.64 141.228 92.8922 141.481 92.7952C141.927 92.5042 141.19 93.3383 141.752 92.9698C141.927 92.9698 141.985 93.0668 142.043 93.1638C141.83 93.5129 142.198 93.3383 142.334 93.3965C142.043 93.8039 142.276 93.7651 142.625 93.6487C142.179 94.1725 142.334 94.1919 142.936 93.9203C143.052 94.0173 142.897 94.2889 143.227 94.2307C143.343 94.3277 143.537 94.3859 143.517 94.5605C143.964 94.4441 144.061 94.5993 143.808 94.929C144.293 94.8126 144.216 95.0648 144.08 95.3364C143.925 95.608 144.604 95.4334 144.352 95.7632C144.41 95.9183 144.604 96.0348 144.604 96.2288C144.507 96.4809 144.371 96.7137 144.837 96.7137C145.031 96.8301 145.225 96.9659 145.05 97.218C145.593 97.218 145.438 97.4897 145.244 97.7418C145.399 97.897 145.069 98.188 145.399 98.3044C145.36 98.4984 145.71 98.6342 145.535 98.8669C145.438 99.0997 145.302 99.2937 145.632 99.4489C145.981 99.6041 145.554 99.8563 145.709 100.011C145.244 100.244 145.884 100.38 145.709 100.574C145.768 100.749 145.457 100.943 145.709 101.117C145.806 101.292 145.884 101.486 145.671 101.641C146.408 101.835 145.477 101.99 145.632 102.145C145.322 102.3 145.632 102.475 145.554 102.63C145.671 102.805 145.186 102.902 145.457 103.096C145.38 103.251 145.651 103.445 145.341 103.542C145.671 103.755 144.992 103.775 145.205 103.969C145.186 104.105 145.186 104.26 145.069 104.376C144.487 104.376 144.914 104.609 144.914 104.745C144.817 104.861 145.166 105.074 144.759 105.094C144.681 105.191 144.41 105.249 144.604 105.424C144.662 105.559 143.731 105.404 144.429 105.715C144.526 105.87 143.808 105.734 144.274 105.986C144.681 106.219 144.158 106.161 144.119 106.238C144.061 106.316 144.022 106.394 143.964 106.471C143.459 107.092 143.052 107.364 142.761 107.247C142.431 107.111 142.354 106.529 142.373 105.656C142.373 105.559 142.024 105.365 142.373 105.385C142.392 105.307 142.14 105.113 142.373 105.094C141.888 104.842 142.334 104.88 142.392 104.803C142.392 104.706 142.586 104.648 142.392 104.493C142.121 104.318 142.586 104.318 142.392 104.163C142.741 104.124 142.683 104.008 142.412 103.814C142.741 103.775 142.392 103.581 142.412 103.464C142.916 103.445 142.606 103.251 142.412 103.096C142.257 102.941 142.528 102.863 142.412 102.727C142.528 102.611 142.315 102.456 142.412 102.339C142.198 102.184 142.14 102.068 142.412 101.951C142.257 101.816 142.392 101.68 142.412 101.563C142.218 101.428 142.451 101.292 142.412 101.156C142.295 101.02 142.916 100.865 142.373 100.749C142.295 100.613 142.451 100.458 142.334 100.341C142.373 100.205 142.431 100.05 142.257 99.9338C142.761 99.7205 142.431 99.6041 142.179 99.5071C142.004 99.4101 142.043 99.2549 142.082 99.0997C142.004 98.9833 142.004 98.8281 141.985 98.6924C141.791 98.6148 142.121 98.3626 141.869 98.3044C141.616 98.2656 142.024 97.9552 141.752 97.9164C141.558 97.8582 141.422 97.7806 141.616 97.5479C141.558 97.4315 141.946 97.0823 141.481 97.1793C141.325 97.1017 140.743 97.2957 141.325 96.8301C141.112 96.8301 141.519 96.4227 141.17 96.4809C141.578 96.0929 141.054 96.2675 141.015 96.1512C141.034 95.996 141.112 95.7826 140.86 95.8214C140.588 95.8795 140.86 95.5498 140.705 95.511C140.394 95.608 140.879 95.0842 140.55 95.22C140.55 95.0842 140.375 95.0842 140.394 94.929C139.774 95.3364 140.278 94.7738 140.259 94.6574C140.259 94.5216 139.774 94.8515 140.103 94.4053C139.638 94.7157 139.929 94.3277 139.967 94.1531C140.026 93.9785 139.677 94.1919 139.851 93.9203C139.521 94.1337 139.89 93.6487 139.754 93.6875C139.871 93.4547 139.657 93.5711 139.657 93.4741C139.541 93.4741 139.521 93.4159 139.58 93.2801C139.56 93.2219 139.521 93.1638 139.502 93.1056C139.386 92.7564 139.366 92.4848 139.502 92.3296L139.58 92.349Z" fill="#10389B"/>
<path d="M117.351 200.109C117.351 200.109 116.071 199.721 113.762 198.712C112.598 198.207 111.182 197.548 109.514 196.772C107.846 195.977 105.906 195.065 103.752 193.998C102.298 193.3 100.765 192.504 99.1162 191.67C97.4673 190.836 95.702 189.944 93.9174 188.896C93.0832 188.275 92.094 187.849 91.0853 187.383C90.0765 186.937 89.0677 186.433 88.1948 185.637C86.2743 184.357 84.1793 183.135 82.026 181.816C79.8728 180.477 77.8748 178.751 75.5664 177.276C74.9263 176.966 74.3831 176.539 73.8399 176.093C73.2967 175.647 72.8118 175.143 72.3075 174.619C71.8031 174.114 71.2987 173.61 70.7749 173.106C70.2317 172.621 69.6498 172.175 69.0097 171.767C66.7594 169.827 64.7032 167.538 62.8021 164.997C62.3947 164.318 61.9873 163.62 61.5412 162.96C61.3084 162.63 61.1145 162.281 60.8817 161.951C60.6683 161.602 60.416 161.273 60.2027 160.923C59.7759 160.225 59.3104 159.546 58.903 158.809C58.6896 158.46 58.4762 158.091 58.2822 157.723C58.0882 157.354 57.9137 156.966 57.7197 156.598C57.2541 154.949 56.7109 153.358 56.1871 151.709C55.8962 150.894 55.6634 150.06 55.3724 149.245C55.2366 148.819 55.1202 148.411 54.9844 147.985L54.7905 147.344L54.6159 146.704C54.6159 143.116 54.228 139.624 53.5102 135.957C53.3938 132.291 53.7818 128.567 53.7042 124.764C53.8788 120.982 54.0727 117.121 54.5383 113.222C54.4219 109.265 54.8099 105.308 55.5277 101.292C55.3919 97.2185 55.9156 93.1254 56.4393 88.9741C56.9825 84.8228 56.5364 80.5551 57.0989 76.2875C57.2929 72.0004 57.2735 67.6357 57.4093 63.2322C57.4674 62.0489 57.5257 61.3893 57.5645 59.0809L57.6033 57.6454V57.4708V57.3932V57.3544H57.642L57.9913 57.3932L58.6702 57.4708C59.5625 57.5678 60.4743 57.6842 61.3666 57.7812L62.2396 57.8588L63.0737 57.917C63.6169 57.9558 64.1794 57.9946 64.742 57.9946C65.8477 58.0334 66.9728 57.9946 68.0979 57.9364C70.3287 57.9364 72.5596 57.8782 74.8098 57.7424C77.0407 57.6066 79.2908 57.432 81.5411 57.2768C85.9446 56.1517 90.3675 55.3176 94.7322 53.9209C96.8466 53.0479 98.9416 52.1556 100.978 51.0499C102.996 49.9636 104.955 48.6832 106.682 47.1314C108.525 45.7347 110.212 44.1052 111.784 42.3787C112.171 41.952 112.579 41.5252 112.947 41.0597C113.316 40.6135 113.723 40.1867 114.073 39.7211L114.635 39.0422C114.635 39.0422 114.907 38.693 115.081 38.4603C115.256 38.2275 115.43 37.9947 115.605 37.7619L116.633 36.404L117.138 35.7444L117.39 35.4147L117.526 35.2401L117.564 35.2012L117.622 35.3176C118.282 36.2488 118.942 37.1799 119.601 38.111C120.416 39.2168 120.59 39.4496 120.978 39.9733C121.696 40.9045 122.453 41.8162 123.267 42.6697C124.858 44.3768 126.623 45.9481 128.544 47.2478C130.464 48.5475 132.365 49.8472 134.325 51.0111C136.303 52.175 138.34 53.2419 140.493 53.9985C142.55 55.046 144.761 55.6862 146.992 56.1517C149.223 56.6173 151.473 56.9276 153.704 57.3156C155.954 57.5872 158.185 57.8394 160.435 57.9946C162.685 58.1498 164.936 58.1498 167.147 57.9558C167.71 57.917 168.253 57.8976 168.815 57.8588C169.378 57.82 169.921 57.7812 170.484 57.723C171.027 57.6842 171.589 57.626 172.132 57.5872C172.734 57.529 173.355 57.4708 173.956 57.4126C174.945 57.3156 175.915 57.2186 176.905 57.1022L177.642 57.0246H177.739H177.777C177.777 57.0246 177.816 57.0246 177.797 57.0246V59.1973V60.7492V61.6997C177.758 62.2623 177.739 62.8054 177.719 63.3486C178.495 67.7521 177.7 72.1168 178.03 76.4038C177.894 80.7103 178.476 84.9392 178.67 89.1099C179.077 93.2612 178.922 97.4125 179.562 101.428C179.834 105.463 180.493 109.42 180.532 113.358C181.211 117.238 180.862 121.137 181.308 124.92C181.502 128.702 181.638 132.446 181.444 136.113C181.114 137.936 180.959 139.74 180.842 141.525C180.687 143.309 180.59 145.114 180.26 146.84C179.892 148.567 179.543 150.293 179.058 151.961C178.825 152.795 178.534 153.61 178.224 154.405C178.068 154.813 177.874 155.181 177.68 155.569C177.506 155.957 177.292 156.326 177.079 156.694C176.885 157.082 176.711 157.451 176.517 157.82C176.303 158.188 176.109 158.557 175.896 158.906L175.585 159.449L175.256 159.973C175.042 160.322 174.829 160.671 174.596 161.02C173.684 162.378 172.792 163.717 171.919 165.036C171.686 165.366 171.434 165.676 171.182 165.967C170.91 166.258 170.639 166.549 170.367 166.821C169.824 167.383 169.242 167.907 168.68 168.411C167.554 169.459 166.487 170.487 165.673 171.767C163.597 173.901 160.959 175.162 159.097 177.218C157.215 179.274 154.713 180.341 152.617 181.738C150.503 183.115 148.447 184.376 146.449 185.54C141.968 188.178 137.894 190.351 134.305 192.175C130.716 194.017 127.632 195.492 125.13 196.675C122.608 197.839 120.668 198.712 119.349 199.255C118.03 199.818 117.331 200.07 117.293 199.992C117.254 199.915 118.049 199.449 119.601 198.595C121.153 197.761 123.461 196.539 126.468 194.948C129.456 193.358 133.141 191.379 137.39 188.954C139.504 187.752 141.774 186.413 144.16 184.978C146.526 183.523 149.029 181.932 151.609 180.186C153.665 178.77 155.566 176.966 157.894 175.608C160.028 173.959 161.968 171.961 164.198 170.177C165.906 167.829 168.214 165.986 170.096 163.6C171.007 162.398 171.9 161.156 172.734 159.837C172.928 159.507 173.122 159.158 173.316 158.828L173.607 158.324L173.878 157.8C174.053 157.451 174.227 157.102 174.402 156.733C174.557 156.365 174.712 155.996 174.848 155.628C174.984 155.259 175.12 154.871 175.256 154.502C175.391 154.134 175.547 153.765 175.682 153.377C175.954 152.621 176.264 151.864 176.517 151.088C177.06 149.556 177.525 147.946 177.739 146.277C178.243 144.667 178.515 142.96 178.689 141.234C178.844 139.507 178.864 137.742 178.767 135.957C179.193 132.388 178.709 128.722 178.534 124.997C178.825 121.234 178.185 117.412 177.661 113.533C177.157 109.653 177.06 105.657 176.613 101.603C176.381 97.5483 175.838 93.4358 175.644 89.2457C175.139 85.075 174.829 80.8073 174.926 76.4814C174.596 72.1555 174.596 67.7714 174.557 63.3292C174.518 62.7666 174.499 62.2235 174.499 61.6609V60.9432L174.48 60.8462V60.7492V60.7298C174.48 60.7298 174.48 60.7298 174.46 60.7298H174.363L173.975 60.7686C173.471 60.8074 172.967 60.8462 172.443 60.885C171.88 60.9238 171.298 60.9626 170.736 60.982C170.173 61.0208 169.591 61.0401 169.029 61.0789C168.466 61.0983 167.884 61.1371 167.302 61.1565C164.994 61.2729 162.685 61.1565 160.357 60.982C158.03 60.8074 155.702 60.5746 153.316 60.5358C148.602 59.9538 143.946 58.6929 139.368 57.0441C134.848 55.2206 130.561 52.757 126.546 49.8278C124.761 48.0819 122.957 46.3942 121.211 44.6096C120.338 43.7172 119.485 42.8055 118.651 41.8744C118.282 41.4476 117.681 40.7493 117.758 40.8851C117.681 40.8269 117.622 40.8074 117.584 40.788C117.545 40.8462 117.506 40.9432 117.487 40.982C117.487 40.982 117.487 41.0014 117.487 41.0208C117.487 41.0402 117.526 40.982 117.39 41.1566L116.808 41.8938C116.439 42.3981 116.012 42.8637 115.605 43.3293C115.198 43.8142 114.771 44.2604 114.344 44.726C112.618 46.5494 110.755 48.2177 108.777 49.7114C104.897 52.8346 100.532 55.2594 95.9736 56.9664C93.7234 57.917 91.3955 58.596 89.0483 59.1197C86.7011 59.6435 84.3539 60.0702 82.026 60.4776C79.6982 60.9043 77.3316 61.0402 75.0038 61.0983C72.6565 61.1371 70.3482 61.0983 68.0398 61.1371C66.8952 61.1371 65.7313 61.1372 64.5867 61.0596C64.0242 61.0596 63.4422 61.0207 62.8797 60.9625C62.3365 60.9237 61.7934 60.885 61.2503 60.8462C61.1533 60.8462 61.0368 60.8268 60.9398 60.8074H60.8623H60.8234V60.8656C60.8234 60.8656 60.7847 60.7298 60.7459 61.5251C60.7265 62.0877 60.6877 62.6503 60.6489 63.1934C60.6101 67.6357 60.0087 72.0004 60.2803 76.3457C60.2027 80.6715 60.5713 84.978 59.5626 89.1293C59.4656 93.3388 58.5926 97.4125 58.5732 101.486C57.6809 105.482 57.8361 109.517 57.4869 113.416C57.0408 117.315 56.5557 121.118 56.5751 124.881C56.6333 128.625 56.0902 132.272 56.2648 135.841C56.4588 137.606 56.4588 139.372 56.517 141.098C56.5946 142.825 56.7109 144.551 57.1959 146.181L57.2929 146.801L57.4287 147.422C57.5063 147.829 57.6033 148.237 57.7003 148.644C57.9137 149.439 58.1077 150.235 58.3599 151.011C58.8254 152.582 59.4074 154.076 60.0087 155.55C60.2609 155.88 60.4937 156.21 60.707 156.539C60.9204 156.869 61.1338 157.199 61.3278 157.548C61.6964 158.227 62.0843 158.906 62.4141 159.604C62.5887 159.953 62.7827 160.283 62.9573 160.632C63.1319 160.962 63.3064 161.331 63.5004 161.641C63.8884 162.301 64.257 162.98 64.7226 163.581C64.9359 163.891 65.1687 164.182 65.4015 164.493C65.6342 164.784 65.8864 165.055 66.1386 165.346C66.3908 165.618 66.643 165.889 66.8952 166.161C67.1474 166.433 67.419 166.685 67.6712 166.937C68.1755 167.461 68.6992 167.965 69.1842 168.508C69.6692 169.051 70.1348 169.595 70.5615 170.196C73.0058 171.767 74.8098 173.882 76.8661 175.647C78.8835 177.432 81.2501 178.576 83.1318 180.225C85.4208 181.272 87.1086 183.077 89.1454 184.143C90.0571 184.842 91.0076 185.424 91.9581 185.948C92.9086 186.471 93.8399 186.976 94.7322 187.499C96.5751 188.45 98.2821 189.4 99.8146 190.409C101.425 191.302 102.938 192.136 104.354 192.892C106.468 194.037 108.35 195.045 109.979 195.918C111.609 196.791 112.986 197.509 114.092 198.11C116.323 199.294 117.467 199.953 117.409 200.05L117.351 200.109Z" fill="#10389B"/>
<path d="M117.602 75.7053C117.389 75.7053 117.195 75.298 117.02 74.5221C117.001 74.3863 116.962 74.2504 116.923 74.1147C116.865 73.9595 116.807 73.8043 116.845 73.6491C117.117 73.4939 116.341 73.3194 116.768 73.1254C116.884 72.9508 116.768 72.7568 116.69 72.5628C116.593 72.3688 116.865 72.1554 116.613 71.942C116.089 71.7286 117.195 71.5153 116.535 71.2825C116.399 71.0497 116.438 70.8169 116.457 70.5647C116.865 70.3126 116.457 70.0603 116.38 69.8082C116.865 69.556 116.651 69.2845 116.322 69.0129C116.981 68.7413 116.884 68.4503 116.263 68.1787C116.263 67.8877 116.496 67.5968 116.205 67.3058C116.166 67.0148 116.031 66.7044 116.147 66.3941C115.701 66.0837 115.72 65.7733 116.108 65.4435C115.623 65.1137 115.817 64.8033 116.069 64.4736C116.341 64.1438 115.643 63.814 116.031 63.4649C116.05 63.1351 115.914 62.7859 115.992 62.4367C116.186 62.0876 116.399 61.7384 115.972 61.3698C115.856 61.0207 115.701 60.6521 115.972 60.2835C115.468 59.9149 115.681 59.5464 115.972 59.1778C115.895 58.8092 116.244 58.4212 115.972 58.0526C116.05 57.6647 115.74 57.2961 115.972 56.9081C116.128 56.5202 116.263 56.1322 115.972 55.7636C115.643 55.3757 116.108 55.0071 115.972 54.6385C116.457 54.27 115.817 53.9014 115.972 53.5328C115.934 53.1642 116.244 52.8151 115.972 52.4465C115.895 52.0973 115.798 51.7287 115.992 51.3795C115.255 51.0304 116.186 50.6812 116.031 50.3514C116.341 50.0022 115.992 49.6725 116.069 49.3427C115.934 49.0129 116.399 48.6831 116.108 48.3728C116.166 48.0624 115.875 47.7326 116.147 47.4223C115.778 47.1119 116.457 46.8015 116.205 46.5105C116.205 46.2195 116.186 45.9285 116.263 45.6376C116.845 45.3466 116.36 45.075 116.322 44.8034C116.38 44.5319 115.992 44.2603 116.38 44.0081C116.419 43.7559 116.671 43.5037 116.457 43.2515C116.38 43.0187 117.292 42.7666 116.535 42.5338C116.399 42.301 117.117 42.0876 116.613 41.8742C116.147 41.6609 116.671 41.4475 116.69 41.2535C116.729 41.0595 116.748 40.8655 116.768 40.6715C117.02 39.0421 117.311 38.0916 117.621 38.0916C117.971 38.0916 118.281 39.2555 118.552 41.2341C118.572 41.4281 118.979 41.6415 118.63 41.8549C118.63 42.0683 118.94 42.2816 118.708 42.5144C119.231 42.7472 118.805 42.98 118.785 43.2322C118.805 43.4843 118.649 43.7365 118.843 43.9887C119.154 44.2409 118.688 44.5124 118.902 44.784C118.572 45.0556 118.669 45.3466 118.96 45.6181C118.649 45.9091 119.018 46.2001 119.018 46.4911C118.533 46.7821 118.863 47.0925 119.076 47.4028C119.251 47.7132 118.999 48.0236 119.115 48.3534C119.018 48.6831 119.231 49.0129 119.154 49.3233C119.387 49.6531 119.464 49.9829 119.193 50.332C119.348 50.6618 119.231 51.011 119.231 51.3602C119.425 51.7093 119.212 52.0585 119.251 52.4271C119.348 52.7956 118.727 53.1448 119.27 53.5134C119.348 53.882 119.193 54.2505 119.27 54.6191C119.193 54.9877 119.134 55.3756 119.27 55.7442C118.746 56.1322 119.057 56.5008 119.27 56.8888C119.425 57.2767 119.348 57.6647 119.27 58.0333C119.328 58.4213 119.29 58.7898 119.27 59.1584C119.425 59.5269 119.037 59.8955 119.27 60.2641C119.503 60.6327 119.018 61.0012 119.251 61.3504C119.406 61.719 119.484 62.0681 119.231 62.4173C119.231 62.7665 118.746 63.1157 119.193 63.4454C119.29 63.7946 119.91 64.1244 119.154 64.4542C119.348 64.784 118.805 65.1138 119.115 65.4241C118.572 65.7539 119.096 66.0643 119.076 66.3746C118.979 66.685 118.785 66.9954 119.018 67.2864C119.27 67.5774 118.882 67.8684 118.96 68.1593C119.27 68.4503 118.552 68.7219 118.902 68.9935C118.824 69.265 118.94 69.5366 118.843 69.7888C119.581 70.041 118.843 70.2931 118.785 70.5453C118.688 70.7975 119.27 71.0303 118.708 71.2631C119.27 71.4958 118.785 71.7093 118.63 71.9227C118.475 72.136 118.863 72.3494 118.552 72.5434C118.94 72.7374 118.339 72.9314 118.475 73.1059C118.223 73.2805 118.475 73.4551 118.397 73.6297C118.475 73.8043 118.455 73.9595 118.32 74.0953C118.281 74.2505 118.261 74.3863 118.223 74.5026C118.048 75.2592 117.835 75.6859 117.641 75.6859L117.602 75.7053Z" fill="#10389B"/>
<path d="M117.369 200.147C117.156 200.147 116.962 199.74 116.788 198.964C116.768 198.828 116.729 198.693 116.69 198.557C116.632 198.421 116.574 198.246 116.613 198.091C116.885 197.936 116.109 197.761 116.535 197.567C116.652 197.393 116.535 197.199 116.458 197.005C116.361 196.811 116.632 196.597 116.38 196.384C115.856 196.171 116.962 195.938 116.303 195.725C116.147 195.492 116.206 195.259 116.225 195.007C116.632 194.755 116.225 194.502 116.147 194.25C116.632 193.998 116.419 193.727 116.089 193.455C116.749 193.183 116.652 192.892 116.031 192.621C116.012 192.33 116.264 192.039 115.973 191.748C115.934 191.457 115.798 191.147 115.915 190.836C115.468 190.526 115.488 190.215 115.876 189.886C115.391 189.575 115.585 189.245 115.837 188.916C116.109 188.586 115.43 188.256 115.798 187.907C115.837 187.577 115.701 187.228 115.779 186.879C115.973 186.53 116.186 186.18 115.759 185.812C115.643 185.463 115.488 185.094 115.74 184.726C115.236 184.357 115.449 183.988 115.74 183.62C115.662 183.251 116.012 182.863 115.74 182.495C115.818 182.107 115.507 181.738 115.74 181.35C115.895 180.962 116.031 180.574 115.74 180.206C115.41 179.818 115.876 179.449 115.74 179.081C116.225 178.712 115.585 178.343 115.74 177.975C115.701 177.606 116.012 177.238 115.759 176.889C115.662 176.539 115.585 176.171 115.779 175.822C115.042 175.472 115.973 175.123 115.798 174.794C116.109 174.444 115.759 174.115 115.837 173.785C115.701 173.455 116.167 173.125 115.876 172.815C115.934 172.485 115.643 172.175 115.915 171.864C115.546 171.554 116.225 171.244 115.973 170.953C115.973 170.662 115.953 170.371 116.031 170.08C116.594 169.789 116.128 169.517 116.089 169.246C116.147 168.974 115.759 168.702 116.147 168.45C116.186 168.198 116.438 167.946 116.225 167.694C116.147 167.461 117.059 167.209 116.303 166.976C116.167 166.743 116.885 166.53 116.38 166.316C115.915 166.103 116.438 165.89 116.458 165.696C116.496 165.502 116.516 165.308 116.535 165.133C116.788 163.504 117.079 162.553 117.369 162.553C117.719 162.553 118.029 163.717 118.301 165.696C118.32 165.89 118.727 166.103 118.378 166.316C118.378 166.53 118.689 166.763 118.456 166.976C118.98 167.209 118.553 167.441 118.533 167.694C118.553 167.946 118.378 168.198 118.592 168.45C118.902 168.702 118.436 168.974 118.65 169.246C118.32 169.517 118.417 169.808 118.708 170.08C118.398 170.371 118.766 170.662 118.766 170.953C118.281 171.244 118.611 171.554 118.824 171.864C118.999 172.175 118.747 172.485 118.863 172.815C118.766 173.145 118.98 173.455 118.902 173.804C119.135 174.134 119.212 174.464 118.941 174.813C119.096 175.162 118.98 175.492 118.98 175.841C119.174 176.19 118.96 176.539 118.999 176.908C119.096 177.257 118.475 177.626 118.999 177.994C119.077 178.363 118.921 178.731 118.999 179.1C118.941 179.469 118.863 179.857 118.999 180.225C118.456 180.613 118.786 180.982 118.999 181.37C119.154 181.758 119.077 182.146 118.999 182.514C119.057 182.902 119.018 183.271 118.999 183.639C119.154 184.008 118.766 184.376 118.999 184.745C119.232 185.114 118.747 185.482 118.999 185.831C119.154 186.2 119.232 186.549 118.98 186.898C118.98 187.247 118.495 187.597 118.941 187.926C119.038 188.276 119.658 188.605 118.902 188.935C119.096 189.265 118.553 189.595 118.863 189.905C118.32 190.235 118.844 190.545 118.824 190.856C118.727 191.166 118.533 191.476 118.766 191.767C119.018 192.058 118.63 192.349 118.708 192.64C119.018 192.931 118.301 193.203 118.65 193.474C118.572 193.746 118.689 194.017 118.592 194.27C119.329 194.522 118.592 194.774 118.533 195.026C118.436 195.278 119.018 195.511 118.456 195.744C119.018 195.977 118.533 196.19 118.378 196.404C118.223 196.617 118.611 196.83 118.301 197.024C118.689 197.218 118.087 197.412 118.223 197.587C117.971 197.761 118.223 197.936 118.145 198.111C118.223 198.266 118.204 198.44 118.068 198.576C118.029 198.731 118.01 198.867 117.971 198.984C117.796 199.74 117.602 200.167 117.389 200.167L117.369 200.147Z" fill="#10389B"/>
</svg>
