<svg width="236" height="236" viewBox="0 0 236 236" fill="none" xmlns="http://www.w3.org/2000/svg">
<rect width="236" height="236" rx="118" fill="white"/>
<path d="M146.229 96.0333C146.229 95.8881 147.141 95.9089 148.801 95.4525C149.631 95.2243 150.627 94.8923 151.747 94.3737C152.888 93.8551 154.153 93.1497 155.564 92.3199C156.518 91.7391 157.514 91.1375 158.613 90.4736C159.692 89.789 160.854 89.0629 162.182 88.4613C162.908 88.2746 163.53 87.8597 164.215 87.4655C164.899 87.0921 165.667 86.7187 166.538 86.7395C167.368 86.615 168.198 86.449 169.09 86.366C169.297 86.3453 169.526 86.3246 169.754 86.3038C169.982 86.2831 170.21 86.2831 170.438 86.3038C170.895 86.3038 171.372 86.3038 171.828 86.3868C172.056 86.4283 172.305 86.449 172.534 86.4905C172.762 86.532 172.99 86.615 173.218 86.698C173.446 86.7809 173.675 86.8639 173.903 86.9262C174.131 87.0299 174.338 87.1336 174.567 87.2373C175.023 87.4241 175.438 87.6937 175.874 87.9427L176.205 88.1294L176.517 88.3368C176.724 88.4613 176.952 88.6065 177.18 88.731C177.678 88.9385 178.052 89.2911 178.425 89.6438C178.757 90.038 179.068 90.4736 179.338 90.93C179.877 91.8428 180.334 92.7556 181.122 93.5439C182.242 95.3902 182.844 97.61 183.031 99.8712C182.989 100.452 182.927 101.012 182.948 101.593C182.948 102.153 182.927 102.713 182.948 103.273C182.989 103.834 182.948 104.414 182.989 104.975C182.989 105.265 182.989 105.555 182.989 105.846C182.989 106.136 182.968 106.427 182.927 106.717C182.159 108.978 181.952 111.302 181.599 113.771C180.209 115.928 179.421 118.189 178.757 120.803C178.467 121.384 178.093 121.923 177.741 122.484C177.367 123.023 176.973 123.562 176.6 124.102C176.185 124.62 175.811 125.18 175.396 125.699C175.189 125.969 174.981 126.238 174.795 126.508C174.691 126.653 174.587 126.778 174.484 126.923L174.338 127.13L174.255 127.234L174.214 127.296L174.131 127.4C174.131 127.4 174.089 127.442 174.089 127.462V127.525V127.67V128.168C174.089 128.832 174.089 129.495 174.089 130.159C174.069 131.487 174.027 132.835 173.882 134.184C174.235 136.922 174.027 139.702 173.384 142.461C173.654 145.303 173.135 148.166 172.492 151.029C171.807 153.871 172.036 156.941 170.936 159.825C170.583 161.298 170.189 162.792 169.733 164.285C169.256 165.779 168.696 167.293 167.804 168.766C167.306 169.492 166.787 170.198 166.04 170.861L165.75 171.11C165.75 171.11 165.563 171.276 165.439 171.339C165.335 171.401 165.169 171.525 165.024 171.608C164.879 171.712 164.733 171.754 164.588 171.816C163.986 172.106 163.343 172.148 162.721 172.127C162.099 172.023 161.476 171.878 160.999 171.463C160.522 171.069 160.19 170.509 160.003 169.886C159.879 169.575 159.837 169.243 159.796 168.932C159.754 168.745 159.754 168.683 159.734 168.559L159.692 168.227C159.651 167.812 159.589 167.397 159.547 166.982C159.526 165.385 159.485 163.87 159.423 162.356C159.34 160.842 159.277 159.327 159.194 157.792C158.261 154.846 157.763 151.817 157.037 148.726C155.937 145.78 155.045 142.669 153.323 139.91C153.24 139.723 153.137 139.536 153.054 139.37L152.888 139.059C152.888 139.059 152.846 138.935 152.784 138.914L152.348 139.017H152.245L152.182 139.059H152.162H152.12L151.477 139.163L150.191 139.349L148.884 139.453L148.22 139.495H147.556C147.121 139.495 146.685 139.495 146.249 139.453L144.942 139.37L144.299 139.329L143.656 139.246L142.37 139.121L141.084 138.935L140.441 138.852L140.15 138.81C139.984 138.789 139.818 138.769 139.652 138.748C139.632 138.748 139.611 138.748 139.611 138.748V138.789L139.569 138.852C139.569 138.893 139.549 138.935 139.528 138.976V139.038L139.403 139.308C139.32 139.495 139.237 139.681 139.175 139.868C138.034 142.897 136.333 145.635 135.441 148.685C134.715 150.095 134.3 151.631 134.01 153.166C133.74 154.701 133.574 156.236 133.284 157.75C133.097 159.265 132.91 160.779 132.827 162.314C132.744 163.85 132.765 165.364 132.931 166.941V167.563L132.972 168.206V168.559V168.725V168.808V168.932C132.931 169.285 132.91 169.637 132.786 169.969C132.723 170.322 132.557 170.633 132.412 170.944L132.122 171.359C132.018 171.484 131.894 171.608 131.769 171.733C131.25 172.189 130.566 172.397 129.902 172.5C129.217 172.542 128.491 172.5 127.848 172.148C127.682 172.065 127.516 172.002 127.371 171.899L127.143 171.754L126.935 171.608L126.77 171.484L126.624 171.359L126.334 171.09C125.608 170.343 125.151 169.575 124.757 168.808C123.575 167.501 123.015 165.924 122.641 164.389C122.268 162.854 122.06 161.319 121.625 159.846C121.251 156.817 120.38 153.954 120.069 151.05C119.529 148.166 119.737 145.262 119.177 142.482C119.011 139.681 118.513 136.922 118.679 134.205C118.409 132.856 118.451 131.508 118.492 130.18C118.492 129.516 118.554 128.852 118.554 128.188V127.691C118.554 127.691 118.554 127.587 118.554 127.525V127.442C118.554 127.442 118.513 127.4 118.492 127.379C118.451 127.338 118.409 127.317 118.368 127.296L118.057 126.964C117.953 126.84 117.828 126.716 117.725 126.591C117.517 126.321 117.289 126.072 117.081 125.803C116.853 125.554 116.667 125.284 116.459 125.014C116.252 124.745 116.065 124.475 115.858 124.205C115.484 123.645 115.111 123.106 114.779 122.546C114.447 121.965 114.115 121.426 113.824 120.824C113.659 120.181 113.41 119.579 113.202 118.978C113.078 118.687 112.953 118.397 112.808 118.106C112.684 117.816 112.559 117.525 112.435 117.235C112.165 116.675 111.895 116.094 111.646 115.534C111.377 114.953 111.169 114.372 110.982 113.791C110.339 111.426 109.489 109.103 109.655 106.738C109.634 106.447 109.613 106.157 109.592 105.867C109.592 105.576 109.592 105.286 109.572 104.995C109.572 104.414 109.551 103.854 109.572 103.294C109.572 102.734 109.572 102.174 109.572 101.614C109.592 101.033 109.572 100.473 109.572 99.8919C109.655 98.751 110.07 97.6722 110.505 96.6764C110.609 96.4275 110.713 96.1785 110.816 95.9296C110.92 95.6807 111.024 95.4317 111.107 95.1828C111.19 94.9338 111.252 94.6641 111.314 94.3945C111.397 94.1248 111.439 93.8551 111.48 93.5854C111.895 92.5896 112.621 91.7598 113.347 91.0337C113.7 90.6603 114.094 90.3284 114.426 89.9342C114.8 89.5816 115.111 89.1874 115.422 88.7725C116.065 87.9427 116.957 87.3826 117.911 87.0506C118.16 86.9677 118.388 86.8847 118.617 86.8224C118.866 86.7602 119.094 86.7187 119.343 86.6772C119.592 86.6357 119.82 86.5735 120.048 86.532C120.276 86.5113 120.525 86.4698 120.753 86.4283C121.21 86.3246 121.687 86.3246 122.143 86.3038C122.6 86.2623 123.056 86.3038 123.492 86.3453C124.384 86.4283 125.234 86.5942 126.023 86.8017C127.828 87.2996 129.425 88.0257 130.856 88.7725C132.288 89.5193 133.574 90.3076 134.756 91.0337C137.121 92.4859 139.113 93.6684 140.814 94.4567C142.515 95.245 143.905 95.6184 144.859 95.8051C145.337 95.8881 145.71 95.9503 145.959 95.9918C146.208 96.0333 146.332 96.0748 146.332 96.1163C146.332 96.1993 145.71 96.3445 144.444 96.2615C143.2 96.1785 141.374 95.7844 139.175 94.8301C138.076 94.3737 136.893 93.7721 135.628 93.0875C134.362 92.4237 132.993 91.6561 131.499 90.8885C130.027 90.1417 128.408 89.3741 126.645 88.8347C125.774 88.565 124.84 88.3576 123.907 88.2746C123.678 88.2746 123.43 88.2331 123.201 88.2331C122.952 88.2331 122.724 88.2331 122.475 88.2331C122.247 88.2331 121.998 88.2746 121.77 88.2953C121.645 88.2953 121.521 88.2953 121.417 88.3368L121.065 88.4198C120.878 88.4613 120.691 88.5028 120.504 88.5443C120.318 88.5858 120.131 88.6895 119.944 88.7517C119.758 88.8347 119.592 88.897 119.405 88.9799C119.239 89.0837 119.052 89.1667 118.886 89.2704C118.534 89.4363 118.202 89.6853 117.849 89.872C117.766 89.9135 117.662 89.9757 117.579 90.0172C117.496 90.0794 117.413 90.1209 117.31 90.1832C117.123 90.2869 116.936 90.3906 116.75 90.4736C116.418 90.7433 116.127 91.0545 115.816 91.3656C115.546 91.7183 115.256 92.0502 115.007 92.4029C114.509 93.129 114.011 93.8758 113.513 94.6641C113.472 94.8923 113.41 95.1413 113.347 95.3487C113.285 95.5769 113.244 95.8051 113.161 96.0333C113.098 96.2615 113.015 96.469 112.932 96.6972C112.87 96.9254 112.787 97.1328 112.704 97.361C112.393 98.2531 112.103 99.1866 111.978 100.182C111.937 100.68 111.937 101.178 111.895 101.676C111.895 102.195 111.895 102.734 111.895 103.273C111.895 103.813 111.937 104.352 111.978 104.892C111.999 105.161 112.02 105.431 112.061 105.701C112.103 105.97 112.165 106.24 112.206 106.51C112.289 106.779 112.331 107.049 112.393 107.319C112.435 107.588 112.497 107.858 112.538 108.128C112.621 108.667 112.684 109.227 112.767 109.787C112.849 110.348 112.912 110.908 113.057 111.447C113.181 112.007 113.327 112.547 113.555 113.086C113.866 115.389 114.862 117.588 116.293 119.517C116.48 120.098 116.791 120.616 117.081 121.135C117.393 121.654 117.766 122.131 118.119 122.629C118.305 122.857 118.513 123.106 118.7 123.334C118.886 123.562 119.094 123.811 119.301 124.019L119.924 124.703L120.587 125.429L121.085 126.093L121.21 126.259C121.21 126.259 121.314 126.363 121.293 126.446V126.861L121.231 128.168C121.231 128.811 121.231 129.475 121.272 130.139C121.376 131.445 121.562 132.773 121.749 134.122C122.081 136.798 121.977 139.536 122.33 142.295C122.475 145.075 122.994 147.834 123.305 150.676C123.948 153.456 124.508 156.278 124.882 159.161C125.297 160.551 125.691 161.941 126.126 163.31C126.562 164.659 127.06 166.007 127.724 167.19C128.097 167.729 128.491 168.227 128.844 168.579L128.969 168.704L129.031 168.766L129.093 168.808C129.093 168.808 129.093 168.808 129.114 168.808C129.114 168.808 129.114 168.808 129.134 168.808C129.176 168.828 129.217 168.849 129.259 168.849C129.363 168.849 129.466 168.808 129.487 168.704C129.487 168.683 129.487 168.642 129.487 168.621V168.185L129.508 167.667V167.107C129.404 165.592 129.508 163.953 129.612 162.335C129.736 160.696 129.881 159.078 129.819 157.398C130.193 154.099 131.147 150.884 132.101 147.668C133.242 144.515 134.632 141.465 136.001 138.374L136.375 137.856L136.561 137.586L136.852 137.109L137.412 136.175L137.682 135.719L137.806 135.491L137.868 135.366C137.868 135.366 137.951 135.366 137.993 135.366C138.657 135.491 139.279 135.615 139.922 135.74L140.399 135.823L140.648 135.864C140.648 135.864 140.835 135.906 140.856 135.906L141.457 135.968C141.851 136.009 142.266 136.03 142.66 136.072H143.864H144.465H145.067L146.27 135.989L147.473 135.906H148.075L148.677 135.823L149.859 135.719L151.041 135.574L151.643 135.512L152.66 135.346C153.344 135.242 154.05 135.117 154.734 135.014H154.796C154.796 135.014 154.838 134.993 154.859 135.014L154.921 135.138L155.045 135.408L155.315 135.947L155.854 137.005L156.269 137.814L156.539 138.374C158.116 141.362 159.402 144.494 160.439 147.668C161.041 149.245 161.476 150.863 161.787 152.502C162.119 154.141 162.389 155.78 162.721 157.398C163.053 159.037 163.115 160.696 163.094 162.335C163.094 163.974 162.949 165.592 163.032 167.127V167.687L163.094 168.206V168.434C163.094 168.434 163.136 168.642 163.136 168.621C163.136 168.642 163.157 168.662 163.157 168.683C163.198 168.745 163.26 168.766 163.302 168.766C163.323 168.766 163.343 168.766 163.385 168.766C163.385 168.766 163.385 168.766 163.406 168.766L163.468 168.725L163.53 168.662L163.655 168.559C164.028 168.227 164.422 167.75 164.837 167.21C165.501 166.049 166.144 164.762 166.663 163.414C167.181 162.065 167.575 160.655 167.679 159.182C168.239 156.319 168.073 153.394 169.256 150.697C169.442 147.855 170.314 145.117 170.231 142.316C171.04 139.598 170.666 136.818 170.812 134.142C170.936 132.794 171.061 131.487 171.144 130.159C171.185 129.495 171.206 128.852 171.206 128.188C171.206 127.753 171.206 127.317 171.206 126.861V126.446V126.384L171.247 126.342L171.31 126.259L171.434 126.093L171.973 125.45C172.181 125.201 172.368 124.931 172.575 124.683C172.762 124.434 172.948 124.205 173.135 123.956C173.529 123.5 173.882 123.002 174.276 122.546C174.65 122.069 175.023 121.591 175.355 121.094C175.666 120.596 176.019 120.098 176.268 119.558C176.475 118.998 176.745 118.48 177.015 117.94C177.139 117.671 177.284 117.422 177.429 117.173C177.575 116.903 177.699 116.654 177.844 116.384C178.135 115.866 178.363 115.347 178.57 114.787C178.799 114.248 178.923 113.688 179.006 113.107C179.732 110.928 180.023 108.709 180.375 106.551C180.313 106.261 180.272 105.991 180.23 105.721C180.209 105.452 180.189 105.182 180.189 104.912C180.189 104.373 180.272 103.854 180.313 103.315C180.375 102.796 180.479 102.257 180.541 101.738C180.583 101.24 180.645 100.743 180.603 100.245C180.541 99.2488 180.251 98.2946 179.919 97.4233C179.753 96.9876 179.608 96.5312 179.442 96.0956C179.359 95.8674 179.317 95.6392 179.255 95.411C179.193 95.1828 179.131 94.9546 179.089 94.7264C178.425 94.0418 177.907 93.3364 177.45 92.5896C177.201 92.2369 176.952 91.8635 176.703 91.5109C176.434 91.1789 176.164 90.8263 175.853 90.5358C175.687 90.3906 175.542 90.2662 175.376 90.1209C175.293 90.0587 175.21 89.9965 175.127 89.9342L174.857 89.789C174.504 89.5816 174.131 89.3948 173.758 89.2704C173.571 89.1874 173.384 89.1252 173.197 89.0422C173.011 88.9799 172.824 88.9385 172.637 88.8762C172.451 88.814 172.264 88.731 172.098 88.6688C171.911 88.6065 171.724 88.5443 171.538 88.4821C171.144 88.4821 170.77 88.5443 170.397 88.5028C170.21 88.5028 170.023 88.4613 169.837 88.4613C169.65 88.4613 169.463 88.4406 169.256 88.4198C168.488 88.3783 167.721 88.3991 167.015 88.648C166.248 88.6895 165.542 88.9385 164.879 89.2081C164.215 89.4986 163.572 89.8305 162.929 90.1002C161.725 90.7848 160.543 91.4071 159.36 91.905C158.24 92.5066 157.203 93.0875 156.207 93.5854C154.713 94.353 153.365 94.9961 152.141 95.4317C150.917 95.8881 149.838 96.1371 148.946 96.2615C148.511 96.3445 148.116 96.3445 147.784 96.3653C147.453 96.3653 147.162 96.3653 146.934 96.3653C146.478 96.3238 146.249 96.2615 146.249 96.22L146.229 96.0333Z" fill="#10389B"/>
<path d="M171.123 93.6891C171.269 93.5232 171.559 93.5024 171.974 93.6269C172.036 93.6269 172.119 93.6684 172.202 93.6891C172.306 93.6891 172.389 93.6891 172.451 93.7929C172.306 94.0625 172.949 93.5232 172.7 93.9173C172.7 94.0625 172.824 94.0625 172.97 94.0625C173.115 94.0625 172.97 94.353 173.26 94.2492C173.758 93.9381 172.97 94.8509 173.551 94.4567C173.737 94.4567 173.8 94.5604 173.862 94.6849C173.634 95.0583 174.028 94.8924 174.173 94.9546C173.862 95.3902 174.131 95.3487 174.505 95.245C174.048 95.8051 174.214 95.8466 174.837 95.5562C174.961 95.6599 174.816 95.9504 175.169 95.9089C175.293 96.0126 175.501 96.0748 175.501 96.2823C175.999 96.1578 176.082 96.3238 175.833 96.6972C176.351 96.5935 176.289 96.8631 176.144 97.1536C175.978 97.444 176.725 97.2781 176.455 97.6307C176.517 97.8174 176.725 97.9212 176.725 98.1494C176.621 98.419 176.476 98.6887 176.994 98.6887C177.202 98.8132 177.409 98.9792 177.222 99.2696C177.803 99.2696 177.658 99.5808 177.43 99.8712C177.596 100.058 177.243 100.348 177.596 100.494C177.554 100.722 177.928 100.867 177.741 101.137C177.617 101.386 177.492 101.614 177.845 101.78C178.218 101.946 177.762 102.215 177.928 102.423C177.43 102.672 178.115 102.817 177.949 103.045C178.011 103.253 177.679 103.46 177.949 103.668C178.032 103.875 178.135 104.062 177.907 104.269C178.675 104.497 177.7 104.643 177.845 104.85C177.513 105.016 177.845 105.223 177.762 105.41C177.886 105.597 177.368 105.721 177.658 105.929C177.575 106.095 177.866 106.323 177.534 106.427C177.886 106.655 177.14 106.696 177.388 106.904C177.347 107.07 177.347 107.215 177.243 107.36C176.621 107.36 177.077 107.63 177.077 107.775C176.974 107.9 177.347 108.149 176.911 108.169C176.828 108.294 176.538 108.335 176.745 108.543C176.787 108.688 175.812 108.543 176.559 108.875C176.662 109.041 175.895 108.916 176.372 109.186C176.808 109.456 176.247 109.373 176.185 109.476C176.123 109.559 176.061 109.642 176.019 109.725C175.459 110.41 175.023 110.742 174.712 110.617C174.36 110.472 174.277 109.829 174.318 108.854C174.318 108.75 173.945 108.522 174.318 108.543C174.36 108.439 174.069 108.252 174.318 108.211C173.8 107.941 174.297 107.983 174.339 107.879C174.339 107.754 174.546 107.692 174.339 107.526C174.048 107.319 174.546 107.339 174.36 107.153C174.733 107.111 174.671 106.966 174.401 106.759C174.754 106.696 174.38 106.489 174.401 106.364C174.941 106.323 174.609 106.116 174.401 105.95C174.235 105.784 174.526 105.68 174.401 105.535C174.526 105.41 174.297 105.244 174.401 105.099C174.173 104.933 174.111 104.788 174.401 104.663C174.235 104.497 174.38 104.373 174.401 104.207C174.194 104.062 174.443 103.896 174.401 103.751C174.277 103.605 174.94 103.419 174.36 103.294C174.277 103.149 174.443 102.983 174.318 102.817C174.36 102.651 174.422 102.485 174.235 102.34C174.775 102.091 174.422 101.966 174.152 101.863C173.945 101.738 174.007 101.572 174.048 101.406C173.945 101.261 173.965 101.095 173.945 100.95C173.737 100.867 174.069 100.577 173.8 100.514C173.53 100.452 173.965 100.12 173.654 100.079C173.447 99.9957 173.302 99.9127 173.488 99.6638C173.426 99.5393 173.841 99.1659 173.343 99.2489C173.177 99.1659 172.534 99.3526 173.156 98.8547C172.907 98.8339 173.343 98.419 172.99 98.4605C173.426 98.0249 172.866 98.2116 172.804 98.0871C172.804 97.9212 172.907 97.693 172.617 97.7344C172.306 97.7967 172.617 97.4233 172.43 97.3818C172.078 97.4855 172.617 96.9254 172.244 97.0499C172.244 96.9046 172.057 96.9046 172.078 96.7179C171.414 97.1328 171.953 96.5312 171.912 96.4068C171.912 96.2408 171.372 96.5935 171.746 96.1163C171.248 96.4482 171.538 96.0126 171.601 95.8466C171.663 95.6599 171.289 95.8881 171.455 95.5769C171.103 95.8051 171.497 95.2865 171.331 95.328C171.455 95.0791 171.227 95.2035 171.206 95.0998C171.082 95.0998 171.061 95.0376 171.103 94.8924C171.082 94.8301 171.04 94.7471 171.02 94.6849C170.874 94.2907 170.854 94.0003 171.02 93.8343L171.123 93.6891Z" fill="#10389B"/>
<path d="M95.0297 108.833C95.0297 108.833 95.2371 108.874 95.5275 109.061C95.6727 109.144 95.8387 109.268 96.0462 109.414C96.2536 109.538 96.5233 109.683 96.793 109.849C97.3739 110.16 98.1 110.513 99.0128 110.845C99.4692 111.011 99.9671 111.156 100.506 111.322C101.046 111.467 101.627 111.633 102.249 111.779C103.079 111.986 103.971 112.193 104.946 112.422C105.921 112.629 106.958 112.857 108.037 113.251C108.514 113.583 109.116 113.646 109.738 113.812C110.049 113.895 110.36 113.957 110.63 114.102C110.921 114.247 111.19 114.434 111.418 114.683C111.688 114.87 111.937 115.098 112.227 115.284C112.373 115.388 112.518 115.471 112.642 115.575C112.767 115.679 112.912 115.803 113.037 115.907C113.306 116.135 113.597 116.322 113.846 116.591C114.095 116.861 114.385 117.11 114.613 117.421C114.738 117.566 114.841 117.712 114.945 117.878C115.049 118.044 115.132 118.21 115.215 118.376C115.298 118.541 115.381 118.728 115.464 118.894C115.526 119.081 115.588 119.268 115.65 119.454C115.92 120.201 116.065 120.969 116.294 121.736C116.48 122.11 116.522 122.545 116.522 122.96C116.48 123.375 116.397 123.79 116.273 124.184C116.024 124.993 115.754 125.74 115.816 126.653C115.422 128.333 114.509 129.91 113.348 131.258C112.974 131.549 112.622 131.818 112.31 132.15C111.979 132.441 111.688 132.752 111.377 133.084C111.086 133.416 110.775 133.727 110.464 134.059C110.153 134.391 109.842 134.702 109.489 135.013C107.746 135.739 106.377 136.963 104.842 138.208C102.809 138.498 101.129 139.328 99.3654 140.552C98.8883 140.718 98.3696 140.801 97.8717 140.926C97.3739 141.029 96.8552 141.092 96.3366 141.175C95.818 141.237 95.2994 141.32 94.7807 141.382C94.511 141.424 94.2621 141.465 93.9924 141.506C93.8679 141.527 93.7227 141.548 93.5982 141.569H93.4945L93.453 141.589H93.3908C93.3908 141.589 93.2248 141.61 93.2041 141.693L93.1418 141.776V141.797L93.1004 141.838L92.9759 141.984C92.6025 142.336 92.2498 142.71 91.8764 143.083C91.1296 143.809 90.362 144.515 89.5322 145.178C88.2875 146.942 86.6486 148.373 84.6986 149.473C83.3501 151.277 81.4623 152.543 79.4915 153.705C77.4999 154.846 76.027 156.796 73.7658 157.709C72.7493 158.31 71.712 158.953 70.6125 159.513C69.513 160.094 68.3513 160.613 67.0236 160.945L66.3597 161.049C66.09 161.111 65.7996 161.09 65.5299 161.131C65.3847 161.131 65.2603 161.152 65.115 161.131L64.7209 161.09H64.3267L63.974 160.966C63.8495 160.924 63.7251 160.903 63.6214 160.883L63.2895 160.758C63.0613 160.675 62.8745 160.551 62.6878 160.426C62.5841 160.364 62.5011 160.281 62.4181 160.219C62.3351 160.136 62.2314 160.073 62.1692 159.991C62.024 159.825 61.8787 159.638 61.7543 159.451L61.6713 159.306C61.6713 159.306 61.6298 159.202 61.6091 159.161C61.5676 159.057 61.5261 158.974 61.4846 158.87L61.4016 158.58L61.3602 158.289C61.3602 157.895 61.4016 157.522 61.5261 157.128C61.775 156.36 62.3767 155.593 63.0405 154.804C63.4762 154.348 63.9118 153.891 64.3474 153.414C64.7416 152.979 65.1358 152.543 65.5299 152.128C66.3182 151.257 67.0858 150.406 67.9156 149.556C68.9114 147.357 70.322 145.51 71.6705 143.457C72.6663 141.258 73.9525 139.079 74.4504 136.611L74.5126 136.445L74.5541 136.32C74.5541 136.32 74.6163 136.133 74.6163 136.071C74.5748 136.05 74.5126 136.03 74.4711 136.009H74.4296V135.988C74.4296 135.988 74.4297 135.988 74.3882 135.947L73.9732 135.636C72.853 134.847 71.8157 133.914 70.9029 132.876L70.2391 132.088L69.9072 131.694L69.596 131.3L68.9529 130.491L68.3513 129.661L67.9571 129.142C67.9571 129.142 67.8534 129.018 67.8119 128.976C67.7082 128.997 67.6045 129.08 67.5007 129.122C67.4592 129.142 67.397 129.184 67.3555 129.205L67.2933 129.246H67.2725V129.288H67.2103C64.9698 130.429 62.5011 130.885 60.3644 132.088C59.1611 132.42 58.1031 133.022 57.1281 133.727C56.1531 134.432 55.2403 135.2 54.2653 135.843C53.3525 136.569 52.4189 137.274 51.5269 138.063C51.0912 138.436 50.6556 138.851 50.2407 139.287C50.0332 139.494 49.8465 139.722 49.639 139.951L48.9959 140.739C48.2906 141.506 47.5023 142.253 46.6933 142.544C46.2991 142.689 45.8842 142.772 45.4485 142.751L45.1166 142.71L44.8054 142.627C44.7017 142.606 44.598 142.544 44.4943 142.502C44.432 142.502 44.3905 142.461 44.349 142.44L44.2038 142.357C43.9963 142.212 43.7889 142.046 43.6022 141.901C43.4984 141.838 43.4362 141.714 43.3532 141.631C43.2703 141.527 43.1873 141.444 43.1251 141.341C43.0006 141.112 42.8554 140.926 42.7931 140.677L42.6687 140.324C42.6272 140.2 42.6064 140.054 42.5857 139.93L42.5234 139.536V139.121V138.706C42.5234 138.561 42.5649 138.415 42.5857 138.27C42.6272 137.98 42.6479 137.689 42.7309 137.42L42.7931 137.212V137.108L42.8346 137.046L42.9176 136.777C42.9176 135.345 43.4985 134.142 44.1623 133.105C44.8469 132.047 45.6145 131.113 46.1746 130.055C47.7098 128.209 48.7263 126.114 50.1784 124.35C51.4439 122.442 53.2488 121.031 54.4105 119.143C55.8834 117.504 57.0658 115.679 58.7047 114.309C59.2648 113.397 60.0532 112.691 60.8208 111.986C61.2149 111.633 61.6091 111.301 61.9617 110.949L62.1692 110.762C62.1692 110.762 62.2314 110.7 62.2522 110.679L62.2937 110.638C62.2937 110.638 62.2937 110.596 62.2937 110.575C62.2937 110.534 62.2937 110.492 62.2522 110.451V110.223C62.2729 110.098 62.2729 109.953 62.2937 109.828C62.3144 109.559 62.3352 109.31 62.3767 109.04C62.4181 108.522 62.5219 108.003 62.5841 107.484C62.6878 106.966 62.7916 106.468 62.9161 105.949C63.0613 105.451 63.165 104.953 63.3517 104.476C63.6421 104.041 63.8703 103.584 64.0778 103.128C64.1815 102.9 64.2644 102.671 64.3474 102.443C64.4511 102.215 64.5341 101.987 64.6171 101.759C64.7623 101.281 64.9491 100.825 65.115 100.369C65.281 99.9123 65.4885 99.4559 65.6959 99.0202C66.6709 97.3606 67.4177 95.5558 68.8906 94.3733C69.1811 94.0206 69.4922 93.6887 69.8034 93.3775C70.1146 93.0663 70.4258 92.7344 70.7578 92.444C71.0897 92.1328 71.3801 91.8424 71.6913 91.5104C72.0232 91.1993 72.3136 90.8673 72.6455 90.5354C73.3301 89.9338 74.1807 89.6019 75.0105 89.3114C75.218 89.2285 75.4254 89.1662 75.6121 89.0832C75.7988 89.0003 76.0063 88.9173 76.193 88.8343C76.3797 88.7513 76.5664 88.6268 76.7323 88.5024C76.919 88.3779 77.085 88.2534 77.251 88.0875C78.0393 87.7348 78.9106 87.7348 79.7404 87.7348C80.1553 87.7348 80.5495 87.7763 80.9644 87.7348C81.3585 87.7348 81.7734 87.6933 82.1883 87.6103C83.0182 87.4651 83.848 87.6518 84.574 88.0252C84.7607 88.1082 84.9267 88.2119 85.1134 88.2949C85.2794 88.3986 85.4453 88.5231 85.6113 88.6268C85.7773 88.7513 85.9432 88.8343 86.0885 88.9588C86.2337 89.0832 86.3789 89.187 86.5449 89.3114C86.856 89.5189 87.1257 89.7886 87.3954 90.0375C87.6859 90.2865 87.8933 90.5769 88.1215 90.8258C88.2252 90.9503 88.3497 91.0955 88.4534 91.22C88.5572 91.3652 88.6401 91.5104 88.7438 91.6557C88.9306 91.9461 89.1173 92.2158 89.2832 92.5062C90.0301 93.7924 90.4657 95.0994 90.8391 96.3026C91.2126 97.5058 91.4615 98.6468 91.7312 99.7048C92.2083 101.8 92.6439 103.543 93.1418 104.912C93.619 106.281 94.1998 107.235 94.5733 107.878C95.0089 108.48 95.2164 108.833 95.1749 108.895C95.1541 108.936 95.0297 108.874 94.843 108.729C94.7392 108.646 94.6147 108.563 94.4903 108.439C94.345 108.314 94.1791 108.169 94.0339 107.982C93.3701 107.277 92.5817 106.032 91.8556 104.31C91.4822 103.46 91.171 102.464 90.8184 101.406C90.4865 100.327 90.1338 99.1654 89.7396 97.9415C89.3247 96.7175 88.8476 95.4313 88.1838 94.1866C87.997 93.8754 87.8311 93.5642 87.6444 93.2738C87.4369 92.9833 87.2295 92.6929 87.0013 92.4025C86.7523 92.1328 86.5034 91.8838 86.2545 91.6142C86.1092 91.4897 85.9847 91.386 85.8395 91.2822C85.7773 91.22 85.715 91.1578 85.6321 91.1163L85.4039 90.9711C85.2794 90.8881 85.1549 90.8258 85.0304 90.7429C84.906 90.6599 84.7608 90.6391 84.6156 90.5769C84.4703 90.5354 84.3459 90.4732 84.2006 90.4317L83.765 90.328C83.1841 90.162 82.6033 90.0583 82.0016 89.7886C81.6905 89.7471 81.3585 89.7886 81.0266 89.7886C80.6947 89.8301 80.3628 89.8716 80.0309 89.9338C79.367 90.079 78.7239 90.2242 78.0186 90.328C77.8734 90.4524 77.7281 90.5562 77.5829 90.6599C77.4377 90.7636 77.2925 90.8673 77.1265 90.9503C76.9813 91.0333 76.8154 91.1163 76.6494 91.1993C76.4834 91.2822 76.3382 91.3652 76.1722 91.4275C75.5291 91.7179 74.8446 92.0498 74.2429 92.5062C73.9525 92.7551 73.6828 93.0041 73.3924 93.253C73.1019 93.5227 72.8115 93.8339 72.521 94.1036C72.2306 94.394 71.9609 94.7052 71.6913 95.0371C71.4216 95.3483 71.1726 95.701 70.9652 96.0744C70.7577 96.4478 70.5295 96.8005 70.2806 97.1531C70.0316 97.5058 69.762 97.817 69.513 98.1697C68.9944 98.8543 68.4758 99.5596 68.1646 100.389C67.0236 101.759 66.3805 103.522 66.173 105.368C65.9448 105.783 65.8204 106.219 65.6959 106.675C65.5922 107.132 65.5092 107.588 65.4677 108.044C65.4469 108.522 65.3847 108.978 65.3847 109.455C65.3847 109.974 65.3432 110.513 65.3224 111.052C65.281 111.26 65.2395 111.467 65.198 111.675V111.82C65.198 111.82 65.1773 111.924 65.115 111.965L64.866 112.173L64.3889 112.608L64.0363 112.94C63.6628 113.293 63.3102 113.646 62.9783 114.04C62.3144 114.828 61.7335 115.679 61.1112 116.529C59.8664 118.189 58.2483 119.599 56.9621 121.342C55.4892 122.919 54.3068 124.765 52.9168 126.466C51.7758 128.375 50.5934 130.242 49.1619 131.964C48.6433 132.939 48.1247 133.914 47.606 134.909C47.1082 135.885 46.6518 136.88 46.3821 137.835V138.021L46.3613 138.063V138.084C46.3613 138.104 46.3613 138.125 46.3613 138.146C46.3613 138.187 46.3613 138.208 46.3613 138.249C46.3613 138.312 46.3613 138.395 46.4443 138.457C46.548 138.602 46.714 138.457 46.8177 138.332L46.88 138.249L47.0252 138.084L47.3364 137.752C47.5438 137.544 47.772 137.316 48.0002 137.108C48.4566 136.694 48.9545 136.279 49.4523 135.864C50.4274 135.034 51.4232 134.225 52.2737 133.208C54.3068 131.57 56.6302 130.346 58.9329 129.08C61.3186 127.981 63.7873 127.068 66.2352 126.093H66.2975L66.4012 126.072L66.6087 126.031L67.0028 125.948C67.2725 125.885 67.5214 125.844 67.7911 125.782L68.538 125.595L68.9114 125.491L69.0981 125.45H69.1811L69.2019 125.429C69.2019 125.429 69.2019 125.429 69.2019 125.45V125.491C69.5545 125.968 69.8657 126.445 70.1769 126.902L70.654 127.566L70.9445 127.918C71.1519 128.147 71.3386 128.375 71.546 128.624L72.2099 129.267L72.5418 129.578L72.8945 129.889L73.5998 130.491C74.5334 131.279 75.4462 132.088 76.4005 132.835L76.7531 133.125L77.4584 133.644L78.9313 134.723L79.0143 134.785C79.0143 134.785 79.0144 134.847 78.9936 134.889L78.9313 135.096L78.8069 135.511L78.5372 136.32L78.0186 137.897C77.251 140.428 76.2345 142.876 75.0313 145.199C74.5126 146.402 73.8487 147.543 73.1019 148.622C72.3758 149.701 71.5875 150.759 70.9029 151.858C70.2183 152.958 69.3055 153.912 68.372 154.804C67.9156 155.24 67.4385 155.675 66.9821 156.111C66.7539 156.319 66.5257 156.547 66.3182 156.754L66.0071 157.086L65.8618 157.252L65.7788 157.335C65.7788 157.335 65.7788 157.335 65.7788 157.356C65.7166 157.522 65.7374 157.584 65.7996 157.646L65.9033 157.729C65.9033 157.729 65.9448 157.771 65.9863 157.792C65.9863 157.792 66.0278 157.812 66.0485 157.833H66.0901L66.2768 157.812C68.1853 157.273 70.488 156.588 72.1269 155.012C73.9732 153.725 75.4047 151.941 77.6244 151.257C79.2633 149.784 81.3171 148.85 82.7485 147.211C84.7608 146.257 86.0055 144.452 87.5614 143.062C88.3704 142.399 89.1795 141.755 89.9471 141.092C90.3413 140.76 90.6939 140.407 91.0673 140.054L91.8556 139.245L92.0839 139.017C92.0839 139.017 92.1254 138.976 92.1461 138.955H92.229L92.395 138.934L93.0381 138.851L93.3701 138.81H93.453H93.4945H93.5775C93.702 138.768 93.8057 138.768 93.9302 138.747C94.1584 138.706 94.3865 138.685 94.6355 138.664C95.0919 138.623 95.5691 138.561 96.0255 138.54C96.4818 138.478 96.9383 138.436 97.3946 138.353C97.851 138.249 98.3074 138.187 98.7223 138.001C99.1372 137.793 99.5729 137.648 99.9878 137.503C100.195 137.44 100.423 137.378 100.631 137.316L101.274 137.129C101.71 137.005 102.125 136.86 102.539 136.694C102.954 136.528 103.328 136.299 103.68 136.009C105.257 135.241 106.626 134.163 107.995 133.188C108.203 132.773 108.452 132.441 108.742 132.13C109.033 131.818 109.365 131.59 109.697 131.341C110.028 131.092 110.381 130.864 110.713 130.636C111.024 130.408 111.335 130.18 111.584 129.889C112.103 129.329 112.435 128.644 112.705 127.981C112.767 127.815 112.85 127.649 112.933 127.503C113.016 127.337 113.078 127.172 113.161 127.026C113.244 126.86 113.348 126.715 113.451 126.57C113.534 126.425 113.659 126.279 113.783 126.134C113.721 125.387 113.825 124.744 113.991 124.101C114.074 123.79 114.115 123.458 114.219 123.147C114.261 122.836 114.323 122.504 114.323 122.172C114.323 121.529 114.136 120.906 113.866 120.367C113.804 120.222 113.742 120.097 113.68 119.952C113.617 119.828 113.534 119.703 113.472 119.558C113.41 119.434 113.348 119.288 113.286 119.164C113.223 119.039 113.161 118.894 113.12 118.749C112.891 118.562 112.663 118.376 112.476 118.168C112.31 117.94 112.103 117.753 111.916 117.525C111.833 117.401 111.73 117.297 111.647 117.193C111.564 117.089 111.439 116.986 111.335 116.903C111.107 116.716 110.9 116.529 110.63 116.405C110.194 116.011 109.717 115.72 109.178 115.533C108.659 115.305 108.12 115.181 107.643 114.953C106.606 114.704 105.631 114.372 104.718 113.957C103.784 113.666 102.892 113.397 102.062 113.127C101.44 112.94 100.859 112.712 100.32 112.505C99.7804 112.276 99.2825 112.09 98.8261 111.862C97.9133 111.405 97.1665 110.949 96.6271 110.534C96.3574 110.306 96.1291 110.119 95.9217 109.953C95.735 109.766 95.5898 109.58 95.4861 109.455C95.2579 109.185 95.1749 109.019 95.2164 108.978L95.0297 108.833Z" fill="#10389B"/>
<path d="M90.259 81.7811C90.0515 81.8433 89.8026 81.7396 89.5121 81.4906C89.4706 81.4491 89.4085 81.4076 89.367 81.3454C89.284 81.3039 89.201 81.2624 89.2217 81.1794C89.4707 81.0135 88.6616 81.2002 89.0557 80.9927C89.1595 80.8683 89.0143 80.8268 88.8898 80.7853C88.7653 80.7438 89.0142 80.5571 88.7238 80.5571C88.1637 80.6401 89.2632 80.1837 88.5579 80.3081C88.3919 80.2667 88.3919 80.1422 88.3919 80.0385C88.7654 79.8103 88.3297 79.831 88.2259 79.748C88.6823 79.4783 88.4334 79.4368 88.06 79.4368C88.7031 79.1049 88.5579 79.0219 87.894 79.1049C87.8318 79.0012 88.06 78.7937 87.7281 78.7522C87.6451 78.6485 87.4791 78.5655 87.5621 78.3788C87.0642 78.3788 87.0435 78.2544 87.3961 78.0054C86.8775 78.0262 87.0227 77.8395 87.2301 77.6113C87.4583 77.3831 86.7115 77.466 87.0642 77.1964C87.0642 77.0511 86.8568 76.9474 86.8983 76.7814C87.0435 76.574 87.2302 76.3458 86.7323 76.3458C86.5663 76.2421 86.3589 76.1383 86.5663 75.9101C86.0062 75.9101 86.1722 75.7027 86.4004 75.4538C86.2551 75.3293 86.5871 75.0596 86.2344 74.9766C86.2552 74.7899 85.9025 74.7277 86.0684 74.4995C86.1721 74.292 86.2759 74.0846 85.9233 74.0223C85.5498 73.9808 85.9647 73.6697 85.778 73.5452C86.2137 73.234 85.5083 73.2962 85.6536 73.0888C85.5498 72.9436 85.8403 72.6946 85.5291 72.6324C85.3839 72.5079 85.2594 72.4042 85.4046 72.176C84.6163 72.2797 85.5083 71.8233 85.3009 71.7404C85.5705 71.4914 85.1557 71.4707 85.1972 71.3047C85.0104 71.2217 85.4461 70.9105 85.1142 70.8898C85.1142 70.7446 84.7822 70.7031 85.0312 70.4749C84.6163 70.4749 85.2594 70.1222 84.9689 70.0807C84.9274 69.9563 84.8652 69.8525 84.9067 69.7073C85.4461 69.3961 84.9274 69.4376 84.8445 69.3339C84.8652 69.2094 84.4503 69.2094 84.803 68.9812C84.803 68.8568 85.0312 68.6701 84.7615 68.6493C84.6371 68.5663 85.5498 68.1722 84.7408 68.3381C84.5748 68.2966 85.2801 67.9647 84.7408 68.027C84.2221 68.0892 84.7408 67.8402 84.7408 67.7365C84.7408 67.6535 84.7408 67.5498 84.7408 67.4668C84.7822 66.6993 84.9275 66.2221 85.2594 66.1184C85.6121 66.0147 86.0892 66.3881 86.6286 67.1142C86.6908 67.1971 87.1264 67.1349 86.7945 67.3424C86.8153 67.4253 87.168 67.4253 86.9605 67.5913C87.5206 67.5083 87.1264 67.7573 87.1264 67.861C87.1887 67.9647 87.0435 68.1099 87.2924 68.1514C87.6451 68.1514 87.2094 68.4211 87.4584 68.4626C87.1679 68.6908 87.2924 68.7738 87.6243 68.7945C87.3339 69.0227 87.7696 69.002 87.7903 69.1472C87.3339 69.4376 87.728 69.4584 87.9562 69.5206C88.1844 69.5828 87.9563 69.811 88.1222 69.894C88.06 70.06 88.3297 70.1222 88.2882 70.2882C88.5579 70.3504 88.7031 70.4541 88.4542 70.7031C88.6616 70.7861 88.5786 70.9728 88.6201 71.118C88.8691 71.201 88.6823 71.4292 88.786 71.5536C88.9313 71.6781 88.3504 72.0308 88.952 71.9893C89.0765 72.1138 88.952 72.3212 89.118 72.4457C89.118 72.6324 89.0765 72.7984 89.284 72.9228C88.7861 73.2548 89.1802 73.317 89.4499 73.4C89.6574 73.5037 89.6366 73.6904 89.5951 73.8771C89.6989 74.0223 89.7196 74.1883 89.7404 74.3543C89.9478 74.458 89.6159 74.7484 89.8648 74.8314C90.1553 74.9144 89.7196 75.2256 89.9893 75.2878C90.1968 75.3915 90.3212 75.516 90.1138 75.7442C90.1553 75.8894 89.7196 76.2006 90.2175 76.1798C90.3627 76.2836 91.0266 76.2213 90.3212 76.6155C90.5494 76.6985 90.0516 77.0096 90.4042 77.0304C89.9063 77.3416 90.4664 77.3001 90.4872 77.4453C90.4249 77.6113 90.2797 77.798 90.5494 77.8395C90.8606 77.8809 90.4872 78.1299 90.6116 78.2336C90.9643 78.2336 90.2797 78.607 90.6739 78.607C90.6324 78.7523 90.7984 78.8145 90.7154 78.9597C91.5037 78.8352 90.7776 79.1672 90.7569 79.2916C90.6739 79.4368 91.317 79.3331 90.7776 79.6028C91.3792 79.5198 90.9021 79.7688 90.7776 79.914C90.6324 80.0592 91.0681 80.0177 90.7776 80.2044C91.1925 80.1629 90.6117 80.4326 90.7776 80.4741C90.5287 80.6401 90.8191 80.6193 90.7776 80.723C90.8814 80.7645 90.8813 80.8475 90.7569 80.9512C90.7569 81.0135 90.7361 81.0965 90.7154 81.1587C90.6324 81.5321 90.4872 81.7811 90.2797 81.8433L90.259 81.7811Z" fill="#10389B"/>
<path d="M116.023 81.7812C115.816 81.719 115.67 81.47 115.587 81.0966C115.587 81.0344 115.567 80.9721 115.546 80.8892C115.504 80.8062 115.463 80.7232 115.525 80.661C115.816 80.661 115.048 80.3498 115.525 80.412C115.67 80.3705 115.587 80.2668 115.525 80.1423C115.463 80.0179 115.753 80.0386 115.525 79.8519C115.027 79.5822 116.168 79.8519 115.525 79.5407C115.401 79.3955 115.484 79.3125 115.546 79.2295C115.982 79.2503 115.608 79.0221 115.587 78.8976C116.106 78.9391 115.94 78.7731 115.629 78.545C116.334 78.6487 116.272 78.5035 115.67 78.1715C115.67 78.0471 115.982 78.0056 115.733 77.7774C115.733 77.6322 115.65 77.4662 115.795 77.3832C115.38 77.1135 115.442 76.9891 115.878 76.9683C115.442 76.6779 115.67 76.5949 115.961 76.5534C116.272 76.5119 115.629 76.1385 116.065 76.1178C116.148 75.9933 116.065 75.7858 116.168 75.6821C116.417 75.5991 116.687 75.5161 116.293 75.2257C116.21 75.039 116.106 74.8316 116.417 74.7693C115.94 74.4581 116.231 74.3752 116.542 74.2922C116.5 74.1055 116.915 74.064 116.687 73.815C116.811 73.6906 116.562 73.4209 116.832 73.3379C117.04 73.2342 117.247 73.1097 116.998 72.8608C116.728 72.5911 117.247 72.5911 117.164 72.3836C117.703 72.3836 117.102 72.0309 117.33 71.9272C117.33 71.7613 117.703 71.7198 117.496 71.4916C117.455 71.3049 117.413 71.1389 117.662 71.0559C116.957 70.6618 117.952 70.8277 117.828 70.641C118.181 70.5995 117.869 70.3506 117.994 70.2261C117.89 70.0394 118.43 70.0601 118.16 69.8319C118.264 69.7282 118.015 69.4793 118.326 69.4585C117.994 69.2096 118.72 69.3133 118.492 69.0851C118.533 68.9606 118.554 68.8362 118.658 68.7324C119.28 68.7947 118.824 68.525 118.824 68.4005C118.927 68.3175 118.575 68.0686 118.99 68.0893C119.073 68.0064 119.363 67.9649 119.156 67.7989C119.093 67.6744 120.068 67.8611 119.322 67.5292C119.218 67.384 119.985 67.5292 119.488 67.2803C119.031 67.0313 119.612 67.1143 119.653 67.0521C119.716 66.9691 119.757 66.9069 119.819 66.8446C120.297 66.243 120.711 65.9526 121.023 66.0563C121.375 66.16 121.541 66.7616 121.541 67.6744C121.541 67.7574 121.915 67.9856 121.541 67.9649C121.521 68.0479 121.79 68.2553 121.541 68.2761C122.06 68.5457 121.583 68.5042 121.521 68.608C121.521 68.7117 121.313 68.7739 121.479 68.9399C121.749 69.1474 121.251 69.1059 121.438 69.2926C121.064 69.2926 121.126 69.4378 121.375 69.666C121.023 69.666 121.375 69.9357 121.313 70.0394C120.774 69.9979 121.085 70.2469 121.23 70.4336C121.375 70.6203 121.064 70.6618 121.147 70.8485C121.002 70.9522 121.189 71.1596 121.064 71.2634C121.251 71.4708 121.292 71.6368 120.96 71.699C121.064 71.8857 120.898 71.9895 120.857 72.1347C121.002 72.3421 120.732 72.4251 120.732 72.5911C120.795 72.7778 120.11 72.7155 120.608 73.0475C120.629 73.2134 120.421 73.3171 120.483 73.5039C120.359 73.6283 120.234 73.7735 120.338 73.981C119.736 73.981 120.027 74.2299 120.193 74.4581C120.297 74.6656 120.172 74.8108 120.027 74.9353C120.027 75.1012 119.944 75.2672 119.861 75.3917C119.965 75.5991 119.529 75.6199 119.695 75.8481C119.882 76.0763 119.342 76.0763 119.529 76.2837C119.633 76.4912 119.674 76.6571 119.363 76.7194C119.322 76.8646 118.782 76.8438 119.197 77.1343C119.259 77.3002 119.819 77.6529 119.031 77.5492C119.176 77.7359 118.575 77.7151 118.865 77.9433C118.264 77.9018 118.761 78.1923 118.699 78.3168C118.554 78.3997 118.326 78.4827 118.533 78.6694C118.761 78.8769 118.305 78.8769 118.367 79.0221C118.637 79.2503 117.869 79.1258 118.201 79.354C118.098 79.437 118.181 79.603 118.035 79.6652C118.741 80.0179 117.973 79.8726 117.869 79.9556C117.724 80.0179 118.305 80.3083 117.703 80.2253C118.243 80.495 117.703 80.4328 117.537 80.4743C117.351 80.5158 117.724 80.7232 117.372 80.7025C117.745 80.9099 117.102 80.7854 117.206 80.9099C116.915 80.9099 117.143 81.0551 117.04 81.0966C117.102 81.2003 117.04 81.2418 116.894 81.2626C116.853 81.3041 116.791 81.3663 116.749 81.4078C116.459 81.6567 116.21 81.7812 116.002 81.6982L116.023 81.7812Z" fill="#10389B"/>
<path d="M103.141 80.8895C102.913 80.8895 102.705 80.7028 102.518 80.3294C102.477 80.2672 102.456 80.2049 102.415 80.1427C102.352 80.0804 102.29 79.9975 102.311 79.9145C102.601 79.8315 101.772 79.7485 102.228 79.6655C102.352 79.5826 102.228 79.4996 102.145 79.3959C102.041 79.3129 102.332 79.2091 102.062 79.1054C101.502 79.0017 102.684 78.898 101.979 78.7942C101.834 78.6905 101.875 78.566 101.896 78.4623C102.332 78.3378 101.896 78.2341 101.813 78.1096C102.332 77.9852 102.104 77.8607 101.751 77.7362C102.456 77.6118 102.352 77.4665 101.689 77.3421C101.668 77.1969 101.938 77.0724 101.626 76.9272C101.585 76.782 101.44 76.6367 101.564 76.4915C101.087 76.3463 101.108 76.2011 101.523 76.0351C101.004 75.8899 101.212 75.7239 101.481 75.5787C101.772 75.4128 101.046 75.2676 101.44 75.1016C101.481 74.9356 101.315 74.7697 101.398 74.6037C101.606 74.4377 101.834 74.2718 101.377 74.1058C101.253 73.9399 101.087 73.7531 101.357 73.5872C100.817 73.4212 101.046 73.2345 101.357 73.0686C101.274 72.8818 101.647 72.7159 101.357 72.5292C101.44 72.3425 101.129 72.1765 101.357 71.9898C101.523 71.8031 101.689 71.6164 101.357 71.4504C101.004 71.2637 101.502 71.0978 101.357 70.911C101.875 70.7243 101.191 70.5584 101.357 70.3924C101.315 70.2265 101.647 70.0397 101.377 69.8738C101.274 69.7078 101.191 69.5419 101.398 69.3759C100.61 69.2099 101.606 69.044 101.44 68.878C101.772 68.7121 101.398 68.5668 101.481 68.4009C101.336 68.2557 101.855 68.0897 101.523 67.9445C101.585 67.7993 101.274 67.6333 101.564 67.4881C101.17 67.3429 101.896 67.1976 101.626 67.0524C101.626 66.9072 101.606 66.7827 101.689 66.6375C102.29 66.4923 101.792 66.3678 101.751 66.2434C101.813 66.1189 101.398 65.9944 101.813 65.87C101.855 65.7455 102.124 65.621 101.896 65.5173C101.813 65.3928 102.788 65.2891 101.979 65.1854C101.834 65.0816 102.601 64.9779 102.062 64.8742C101.564 64.7705 102.124 64.6667 102.145 64.5837C102.186 64.48 102.207 64.397 102.228 64.3141C102.498 63.5465 102.809 63.0901 103.12 63.0901C103.493 63.0901 103.825 63.6295 104.116 64.5837C104.137 64.6667 104.572 64.7705 104.199 64.8742C104.199 64.9779 104.531 65.0816 104.282 65.1854C104.842 65.2891 104.386 65.4136 104.365 65.5173C104.386 65.6418 104.22 65.7455 104.427 65.87C104.759 65.9944 104.261 66.1189 104.489 66.2434C104.137 66.3678 104.24 66.5131 104.551 66.6375C104.22 66.7827 104.634 66.9072 104.614 67.0524C104.095 67.1976 104.468 67.3429 104.676 67.4881C104.863 67.6333 104.593 67.7785 104.717 67.9445C104.614 68.0897 104.842 68.2557 104.759 68.4009C105.008 68.5668 105.091 68.7121 104.8 68.878C104.966 69.044 104.842 69.2099 104.842 69.3759C105.049 69.5419 104.821 69.7078 104.863 69.8738C104.966 70.0397 104.303 70.2265 104.883 70.3924C104.966 70.5584 104.8 70.7451 104.883 70.911C104.821 71.0978 104.738 71.2637 104.883 71.4504C104.323 71.6371 104.676 71.8238 104.883 71.9898C105.049 72.1765 104.966 72.3632 104.883 72.5292C104.946 72.7159 104.904 72.8818 104.883 73.0686C105.049 73.2345 104.634 73.4212 104.883 73.5872C105.132 73.7531 104.614 73.9399 104.863 74.1058C105.029 74.2718 105.112 74.4377 104.842 74.6037C104.842 74.7697 104.323 74.9356 104.8 75.1016C104.904 75.2676 105.547 75.4335 104.759 75.5787C104.966 75.7447 104.386 75.8899 104.717 76.0351C104.137 76.2011 104.697 76.3463 104.676 76.4915C104.572 76.6367 104.365 76.782 104.614 76.9272C104.883 77.0724 104.468 77.1969 104.551 77.3421C104.883 77.4873 104.116 77.6118 104.489 77.7362C104.406 77.8607 104.531 77.9852 104.427 78.1096C105.215 78.2341 104.427 78.3586 104.365 78.4623C104.24 78.5868 104.883 78.6905 104.282 78.7942C104.883 78.898 104.365 79.0017 104.199 79.1054C104.033 79.2091 104.448 79.3129 104.116 79.3959C104.531 79.4996 103.888 79.5826 104.033 79.6655C103.763 79.7485 104.033 79.8315 103.95 79.9145C104.054 79.9975 104.012 80.0597 103.867 80.1427C103.846 80.2049 103.805 80.2672 103.763 80.3294C103.576 80.7028 103.348 80.8895 103.141 80.8895Z" fill="#10389B"/>
<path d="M177.492 120.243C177.492 120.014 178.093 119.807 179.214 119.62C179.4 119.6 179.587 119.558 179.815 119.517C180.023 119.454 180.251 119.392 180.5 119.434C180.749 119.724 180.998 118.894 181.267 119.351C181.537 119.475 181.807 119.351 182.097 119.268C182.388 119.164 182.699 119.454 183.01 119.185C183.321 118.625 183.653 119.807 183.985 119.102C184.317 118.956 184.67 118.998 185.022 119.019C185.375 119.454 185.748 119.019 186.122 118.936C186.495 119.454 186.889 119.226 187.283 118.873C187.678 119.579 188.093 119.475 188.507 118.811C188.922 118.79 189.358 119.06 189.794 118.749C190.229 118.707 190.686 118.562 191.121 118.687C191.578 118.21 192.034 118.23 192.511 118.645C192.988 118.127 193.466 118.334 193.943 118.604C194.42 118.894 194.918 118.147 195.416 118.562C195.914 118.583 196.411 118.438 196.93 118.521C197.449 118.728 197.967 118.956 198.486 118.5C199.005 118.376 199.544 118.21 200.063 118.479C200.602 117.94 201.141 118.168 201.681 118.479C202.22 118.396 202.78 118.77 203.32 118.479C203.88 118.562 204.44 118.23 205 118.479V122.006C204.44 121.84 203.88 121.674 203.32 122.006C202.759 122.359 202.22 121.861 201.681 122.006C201.141 121.487 200.602 122.172 200.063 122.006C199.523 122.047 199.005 121.716 198.465 122.006C197.947 122.11 197.428 122.193 196.909 121.985C196.391 122.774 195.893 121.778 195.395 121.944C194.897 121.612 194.399 121.985 193.922 121.902C193.445 122.047 192.968 121.55 192.491 121.861C192.013 121.799 191.557 122.11 191.101 121.819C190.644 122.213 190.209 121.487 189.773 121.757C189.337 121.757 188.902 121.778 188.487 121.695C188.072 121.072 187.657 121.591 187.263 121.633C186.869 121.57 186.474 121.985 186.101 121.57C185.728 121.529 185.354 121.259 185.001 121.508C184.649 121.591 184.296 120.616 183.964 121.425C183.632 121.57 183.3 120.803 182.989 121.342C182.678 121.84 182.367 121.28 182.076 121.259C181.786 121.218 181.516 121.197 181.247 121.176C178.861 120.906 177.492 120.595 177.492 120.263C177.492 119.89 179.172 119.558 182.076 119.268C182.367 119.247 182.678 118.811 182.989 119.185C183.3 119.185 183.632 118.853 183.964 119.102C184.296 118.542 184.649 118.998 185.001 119.019C185.354 118.998 185.728 119.164 186.101 118.956C186.474 118.625 186.869 119.122 187.263 118.894C187.657 119.247 188.072 119.143 188.487 118.832C188.902 119.164 189.337 118.749 189.773 118.77C190.209 119.288 190.665 118.915 191.101 118.707C191.557 118.521 192.013 118.79 192.491 118.666C192.968 118.77 193.445 118.542 193.922 118.625C194.399 118.376 194.897 118.293 195.395 118.583C195.893 118.417 196.391 118.542 196.909 118.542C197.428 118.334 197.947 118.562 198.465 118.521C198.984 118.417 199.523 119.081 200.063 118.5C200.602 118.417 201.141 118.583 201.681 118.5C202.22 118.583 202.78 118.645 203.32 118.5C203.88 119.06 204.44 118.707 205 118.5V122.13C204.44 122.296 203.88 122.213 203.32 122.13C202.759 122.193 202.22 122.151 201.681 122.13C201.141 122.296 200.602 121.882 200.063 122.13C199.523 122.379 199.005 121.861 198.486 122.11C197.967 122.276 197.449 122.359 196.93 122.089C196.411 122.089 195.914 121.57 195.416 122.047C194.918 122.151 194.42 122.794 193.943 122.006C193.466 122.213 192.988 121.633 192.511 121.964C192.034 121.384 191.578 121.944 191.121 121.923C190.665 121.799 190.229 121.612 189.794 121.861C189.358 122.13 188.922 121.716 188.507 121.799C188.093 122.13 187.678 121.363 187.283 121.736C186.889 121.653 186.495 121.778 186.122 121.674C185.748 122.462 185.375 121.674 185.022 121.591C184.67 121.487 184.317 122.11 183.985 121.508C183.653 122.11 183.321 121.591 183.01 121.425C182.699 121.259 182.388 121.674 182.097 121.342C181.807 121.757 181.537 121.114 181.267 121.259C180.998 120.989 180.749 121.259 180.5 121.176C180.272 121.259 180.043 121.238 179.815 121.072C179.608 121.031 179.4 121.01 179.214 120.969C178.093 120.782 177.492 120.575 177.492 120.346V120.243Z" fill="#10389B"/>
<path d="M31.6323 120.243C31.6323 120.014 32.151 119.807 33.126 119.62C33.2919 119.6 33.4579 119.558 33.6446 119.517C33.8313 119.454 34.018 119.392 34.2255 119.434C34.4329 119.724 34.6611 118.894 34.8893 119.351C35.1175 119.475 35.3665 119.351 35.6154 119.268C35.8644 119.164 36.134 119.454 36.4037 119.185C36.6734 118.625 36.9638 119.807 37.2543 119.102C37.5447 118.956 37.8559 118.998 38.1671 119.019C38.4782 119.454 38.8102 119.019 39.1214 118.936C39.4533 119.454 39.7852 119.226 40.1379 118.873C40.4906 119.579 40.8432 119.475 41.1959 118.811C41.5693 118.79 41.922 119.06 42.3161 118.749C42.6895 118.707 43.0837 118.562 43.4778 118.687C43.872 118.21 44.2662 118.23 44.6811 118.645C45.096 118.127 45.5109 118.334 45.9258 118.604C46.3407 118.894 46.7764 118.147 47.212 118.562C47.6477 118.583 48.0833 118.438 48.519 118.521C48.9546 118.728 49.411 118.956 49.8674 118.5C50.3238 118.376 50.7802 118.21 51.2573 118.479C51.7137 117.94 52.1909 118.168 52.668 118.479C53.1452 118.396 53.6223 118.77 54.0995 118.479C54.5766 118.562 55.0745 118.23 55.5516 118.479V122.006C55.0537 121.84 54.5766 121.674 54.0995 122.006C53.6223 122.359 53.1452 121.861 52.668 122.006C52.1909 121.487 51.7345 122.172 51.2573 122.006C50.8009 122.047 50.3238 121.716 49.8674 122.006C49.411 122.11 48.9546 122.193 48.519 121.985C48.0833 122.774 47.6269 121.778 47.212 121.944C46.7764 121.612 46.3615 121.985 45.9258 121.902C45.5109 122.047 45.096 121.55 44.6811 121.861C44.2662 121.799 43.872 122.11 43.4778 121.819C43.0837 122.213 42.6895 121.487 42.3161 121.757C41.9427 121.757 41.5693 121.778 41.1959 121.695C40.8225 121.072 40.4698 121.591 40.1379 121.633C39.7852 121.57 39.4533 121.985 39.1214 121.57C38.7895 121.529 38.4782 121.259 38.1671 121.508C37.8559 121.591 37.5447 120.616 37.2543 121.425C36.9638 121.57 36.6734 120.803 36.4037 121.342C36.134 121.84 35.8644 121.28 35.6154 121.259C35.3665 121.218 35.1175 121.197 34.8893 121.176C32.8148 120.906 31.6323 120.595 31.6323 120.263C31.6323 119.89 33.1053 119.558 35.6154 119.268C35.8644 119.247 36.134 118.811 36.4037 119.185C36.6734 119.185 36.9638 118.853 37.2543 119.102C37.5447 118.542 37.8559 118.998 38.1671 119.019C38.4782 118.998 38.8102 119.164 39.1214 118.956C39.4533 118.625 39.7852 119.122 40.1379 118.894C40.4906 119.247 40.8432 119.143 41.1959 118.832C41.5486 119.164 41.922 118.749 42.3161 118.77C42.6895 119.288 43.0837 118.915 43.4778 118.707C43.872 118.521 44.2662 118.79 44.6811 118.666C45.096 118.77 45.5109 118.542 45.9258 118.625C46.3407 118.376 46.7764 118.293 47.212 118.583C47.6477 118.417 48.0833 118.542 48.519 118.542C48.9546 118.334 49.411 118.562 49.8674 118.521C50.3238 118.417 50.7802 119.081 51.2573 118.5C51.7137 118.417 52.1909 118.583 52.668 118.5C53.1452 118.583 53.6223 118.645 54.0995 118.5C54.5766 119.06 55.0745 118.707 55.5516 118.5V122.13C55.0537 122.296 54.5766 122.213 54.0995 122.13C53.6223 122.193 53.1452 122.151 52.668 122.13C52.1909 122.296 51.7345 121.882 51.2573 122.13C50.8009 122.379 50.3238 121.861 49.8674 122.11C49.411 122.276 48.9546 122.359 48.519 122.089C48.0833 122.089 47.6269 121.57 47.212 122.047C46.7764 122.151 46.3615 122.794 45.9258 122.006C45.5109 122.213 45.096 121.633 44.6811 121.964C44.2662 121.384 43.872 121.944 43.4778 121.923C43.0837 121.799 42.6895 121.612 42.3161 121.861C41.9427 122.13 41.5693 121.716 41.1959 121.799C40.8225 122.13 40.4698 121.363 40.1379 121.736C39.7852 121.653 39.4533 121.778 39.1214 121.674C38.7895 122.462 38.4782 121.674 38.1671 121.591C37.8559 121.487 37.5447 122.11 37.2543 121.508C36.9638 122.11 36.6734 121.591 36.4037 121.425C36.134 121.259 35.8644 121.674 35.6154 121.342C35.3665 121.757 35.1175 121.114 34.8893 121.259C34.6611 120.989 34.4329 121.259 34.2255 121.176C34.018 121.259 33.8313 121.238 33.6446 121.072C33.4579 121.031 33.2919 121.01 33.126 120.969C32.151 120.782 31.6323 120.575 31.6323 120.346V120.243Z" fill="#10389B"/>
</svg>
