<svg width="24" height="24" viewBox="0 0 24 24" fill="none" xmlns="http://www.w3.org/2000/svg">
<rect width="23.9744" height="23.9744" rx="11.9872" fill="white"/>
<path fill-rule="evenodd" clip-rule="evenodd" d="M7.35761 16.6168C7.13731 16.3965 7.13731 16.0393 7.35761 15.8191L14.8562 8.32047H10.0129C9.70135 8.32047 9.44879 8.06791 9.44879 7.75636C9.44879 7.44482 9.70135 7.19226 10.0129 7.19226H16.218C16.3676 7.19226 16.5111 7.25169 16.617 7.35749C16.7227 7.46328 16.7821 7.60675 16.7821 7.75636V13.9615C16.7821 14.273 16.5295 14.5256 16.218 14.5256C15.9065 14.5256 15.6539 14.273 15.6539 13.9615V9.11823L8.15536 16.6168C7.93507 16.8371 7.5779 16.8371 7.35761 16.6168Z" fill="#0E0B18"/>
</svg>
