<svg width="236" height="236" viewBox="0 0 236 236" fill="none" xmlns="http://www.w3.org/2000/svg">
<rect width="236" height="236" rx="118" fill="white"/>
<path d="M40.6295 87.7891C40.6295 87.7891 41.5143 88.4856 42.9825 89.9915C44.4508 91.5162 46.5967 93.7751 49.3262 96.7305C50.2297 97.7282 51.2086 98.7823 52.2627 99.9117C53.3357 101.041 54.4651 102.227 55.5946 103.545C56.5546 105.013 58.324 105.898 59.3029 107.592C60.4888 109.117 61.9006 110.547 63.3688 112.053C64.8371 113.559 66.0795 115.366 67.7737 116.91C69.656 118.265 70.4278 120.75 72.5173 122.162C74.2303 123.893 75.8868 125.813 77.5809 127.771C79.0115 129.974 81.0634 131.724 82.9458 133.72C84.414 136.091 86.4282 138.068 88.5929 140.007C89.3082 141.306 90.1741 142.491 91.1718 143.583C91.6612 144.129 92.2071 144.656 92.753 145.164C93.0354 145.409 93.3177 145.673 93.6189 145.899C93.7695 146.03 93.9013 146.124 94.0519 146.219L94.466 146.482C95.426 147.348 96.5931 148.007 97.892 148.327L98.3814 148.421C98.5508 148.459 98.7014 148.477 98.8708 148.477H99.379C99.5485 148.515 99.7555 148.496 99.9626 148.477C100.753 148.477 101.525 148.421 102.316 148.365C105.478 148.327 108.697 148.214 111.972 148.327C115.248 147.894 118.598 147.913 121.987 148.289C125.394 147.837 128.839 148.007 132.34 148.252C135.841 148.515 139.399 147.856 143.013 148.233C143.634 148.233 144.255 148.233 144.877 148.233C145.629 148.233 146.401 148.233 147.154 148.233C148.302 148.892 149.47 149.55 150.637 150.209C151.691 150.812 152.726 151.414 153.761 152.035C156.867 154.049 160.011 156.12 163.512 157.645C166.863 159.452 170.251 161.221 173.489 163.386C177.084 164.892 180.378 167.038 183.654 169.24C185.066 169.993 186.703 170.37 188.36 170.144C189.979 169.918 191.56 169.033 192.501 167.697C193.047 167.094 193.461 166.36 193.743 165.588C194.026 164.817 194.139 163.988 194.12 163.179C194.101 161.541 193.48 159.941 192.501 158.605C191.993 157.946 191.372 157.4 190.638 156.929C189.772 156.402 188.906 155.875 188.04 155.348C186.289 154.313 184.539 153.353 182.713 152.468C179.08 150.736 175.842 148.346 172.359 146.482C169.159 144.11 165.47 142.68 162.195 140.609C160.5 139.668 158.863 138.633 157.225 137.635C156.397 137.145 155.587 136.656 154.759 136.167C154.345 135.941 153.931 135.696 153.517 135.47L153.366 135.395L153.291 135.357C153.291 135.357 153.197 135.301 153.121 135.263C153.046 135.207 153.065 135.225 153.027 135.207L152.971 135.169L152.839 135.094C152.67 134.981 152.5 134.905 152.312 134.83C151.615 134.491 150.881 134.247 150.11 134.152L149.526 134.096H148.942C148.472 134.096 148.001 134.096 147.531 134.096C145.648 134.096 143.785 134.077 141.94 133.983C138.232 134.698 134.58 133.795 130.966 133.964C127.351 133.663 123.794 134.002 120.292 133.927C116.791 134.058 113.328 133.607 109.939 133.889C108.81 133.889 107.68 133.889 106.57 133.908C106.005 133.908 105.459 133.927 104.894 133.945H104.047C103.539 133.945 103.05 133.945 102.541 133.964C102.203 133.588 101.883 133.211 101.563 132.835L101.017 132.195C100.659 131.762 100.32 131.329 100 130.896C97.5531 128.675 95.9154 125.832 93.6378 123.63C91.5483 121.258 89.4777 118.962 87.52 116.646C85.9199 114.011 83.6234 112.11 81.6845 109.964C79.821 107.761 77.6562 105.898 76.1315 103.582C74.3432 101.493 72.762 99.3282 70.8608 97.5399C69.0725 95.6575 68.0748 93.1728 65.9101 91.8363C64.1971 90.1045 63.1618 87.8644 61.2794 86.4903C59.4346 85.0973 58.3617 83.1208 56.9875 81.5207C55.6134 79.9207 54.2957 78.396 53.0533 76.9465C51.7545 75.4218 50.0415 74.4994 48.2909 74.1982C47.425 74.0476 46.5402 74.0665 45.712 74.1982C45.2979 74.2547 44.9026 74.3676 44.5073 74.4806C44.1308 74.6312 43.7543 74.7441 43.4155 74.9323C43.0578 75.0829 42.7378 75.3089 42.4178 75.4971C42.2672 75.61 42.1166 75.723 41.966 75.8359L41.7401 76.0053L41.5331 76.1936C41.4013 76.3253 41.2695 76.4382 41.1378 76.57C41.0248 76.7018 40.9119 76.8336 40.7801 76.9654L40.6107 77.1535C40.6107 77.1535 40.5166 77.2853 40.4601 77.3606C40.366 77.4924 40.2719 77.643 40.1589 77.7748C39.4248 78.9042 39.0483 80.109 38.8977 81.2007C38.7471 82.2925 38.8413 83.2902 39.0107 84.1373C39.1801 84.9844 39.4813 85.6432 39.726 86.1891C39.9895 86.7161 40.2154 87.1114 40.3848 87.3562C40.5354 87.6197 40.6107 87.7515 40.5919 87.7891C40.5542 87.8079 40.4036 87.695 40.1401 87.4126C40.0648 87.3373 39.9895 87.262 39.9142 87.1867C39.8389 87.0926 39.7636 86.9797 39.6695 86.8667C39.5942 86.7538 39.5001 86.622 39.3871 86.4903C39.293 86.3585 39.2177 86.189 39.1048 86.0385C38.8977 85.7184 38.7471 85.3232 38.5589 84.8714C38.4836 84.6455 38.4083 84.4008 38.333 84.1561C38.2577 83.9113 38.2201 83.629 38.1448 83.3655C37.9377 82.2549 37.9189 80.8995 38.3142 79.4501C38.4836 78.7159 38.8224 77.9818 39.2366 77.2477C39.6695 76.5324 40.2154 75.8171 40.8931 75.1771C41.5895 74.5559 42.399 73.9912 43.3214 73.5582C44.2437 73.1253 45.2979 72.8617 46.4085 72.7676C47.5191 72.6735 48.6862 72.7676 49.8344 73.1253C50.9827 73.4641 52.1121 74.0476 53.1098 74.857C53.2416 74.9511 53.3545 75.0641 53.4863 75.1582L53.8251 75.4971L54.1639 75.8359L54.4651 76.1747C54.8793 76.6265 55.2934 77.0783 55.7075 77.5301C56.5546 78.4524 57.4017 79.3936 58.2864 80.3725C59.6982 81.9349 61.4488 83.309 62.6912 85.229C64.1971 86.9232 65.9854 88.5044 67.4348 90.4809C69.4302 91.968 70.7855 94.1327 72.4985 96.0904C74.2491 98.0293 75.8868 100.138 77.8633 102.039C79.9151 103.902 81.4398 106.312 83.5105 108.326C85.1858 110.698 87.2188 112.863 89.44 114.933C91.2095 117.399 93.5436 119.47 95.6331 121.842C97.3649 124.515 99.7555 126.717 102.071 129.051C102.466 129.446 102.843 129.842 103.2 130.256L103.746 130.858L103.859 130.99H104.029H104.857C105.422 130.99 105.967 130.99 106.532 131.009C107.662 131.009 108.772 131.009 109.902 130.99C113.309 131.084 116.754 130.877 120.255 130.952C123.756 130.727 127.314 130.651 130.928 130.915C134.542 130.764 138.194 130.877 141.902 130.877C143.747 130.783 145.611 130.783 147.493 130.821C147.964 130.821 148.434 130.821 148.905 130.821L149.733 130.858L150.561 130.971C151.672 131.159 152.745 131.517 153.743 132.044C153.987 132.176 154.251 132.308 154.477 132.458L154.797 132.665L154.872 132.703L155.023 132.797C155.437 133.042 155.832 133.287 156.246 133.55C157.056 134.058 157.865 134.567 158.674 135.094C160.293 136.11 161.95 137.089 163.757 137.842C167.145 139.724 170.458 141.814 173.922 143.696C177.31 145.729 180.717 147.781 184.275 149.663C185.894 150.887 187.607 151.941 189.376 152.92C190.261 153.409 191.165 153.88 192.068 154.351C193.103 154.878 194.101 155.612 194.911 156.515C196.548 158.322 197.471 160.751 197.433 163.179C197.433 165.607 196.492 167.998 194.911 169.786C193.386 171.631 191.183 172.892 188.83 173.287C186.477 173.683 184.012 173.212 181.979 172.045C178.477 170.2 175.277 167.923 171.814 166.172C168.35 164.421 165.263 162.106 161.856 160.412C158.486 158.642 155.211 156.835 152.124 154.765C151.07 154.162 150.053 153.503 149.037 152.863C148.528 152.543 148.02 152.223 147.512 151.903C147.098 151.659 146.702 151.395 146.288 151.15H146.157H145.705C145.385 151.15 145.084 151.15 144.764 151.169C144.142 151.207 143.521 151.245 142.9 151.32C139.286 151.414 135.728 151.998 132.227 151.282C128.726 151.452 125.262 150.925 121.874 151.226C118.485 150.699 115.135 151.188 111.859 151.169C108.584 151.056 105.346 150.887 102.203 151.113C101.412 151.169 100.621 151.188 99.8496 151.188C99.6426 151.188 99.4732 151.188 99.2473 151.188L98.5696 151.15C98.3437 151.15 98.1179 151.094 97.892 151.056C97.6661 151.019 97.4402 150.981 97.2331 150.925C95.4825 150.473 93.9201 149.588 92.6024 148.44C92.433 148.289 92.2636 148.157 92.113 148.007L91.8683 147.781C91.8683 147.781 91.7365 147.649 91.6612 147.574C91.3977 147.292 91.153 147.009 90.9083 146.727C90.4189 146.162 89.9671 145.56 89.5153 144.976C88.6118 143.809 87.7082 142.661 86.6164 141.682C84.7528 139.48 82.7952 137.447 81.0634 135.301C78.7104 133.72 77.468 131.235 75.7927 129.258C74.155 127.244 72.0467 125.738 70.842 123.555C68.8278 122.086 67.6042 120.016 66.2113 118.209C64.8183 116.401 63.0865 115.027 61.9194 113.258C60.2441 111.94 59.3405 110.039 57.9664 108.684C56.8746 107.084 55.4816 105.86 54.3898 104.524C53.1851 103.281 52.1121 102.039 51.1898 100.778C50.1921 99.6105 49.2509 98.4999 48.385 97.4834C45.7685 94.4151 43.7731 92.0057 42.4554 90.368C41.1189 88.7303 40.4789 87.8268 40.5542 87.7703L40.6295 87.7891Z" fill="#10389B"/>
<path d="M129.478 117.23C129.647 117.324 129.741 117.569 129.741 117.945C129.741 118.002 129.741 118.077 129.741 118.134C129.741 118.209 129.779 118.303 129.741 118.359C129.478 118.303 130.099 118.717 129.704 118.604C129.572 118.604 129.629 118.736 129.666 118.868C129.704 118.981 129.44 118.943 129.61 119.131C130.024 119.451 129.026 119.037 129.534 119.414C129.61 119.564 129.534 119.639 129.459 119.715C129.064 119.621 129.365 119.903 129.365 120.035C128.894 119.922 129.026 120.11 129.252 120.374C128.631 120.185 128.65 120.336 129.139 120.712C129.101 120.825 128.819 120.825 129.007 121.07C128.989 121.202 129.026 121.371 128.876 121.447C129.196 121.767 129.12 121.879 128.725 121.823C129.064 122.162 128.838 122.199 128.574 122.218C128.273 122.218 128.8 122.67 128.405 122.614C128.311 122.727 128.367 122.934 128.217 123.028C127.972 123.065 127.709 123.103 128.029 123.442C128.066 123.63 128.123 123.837 127.821 123.875C128.179 124.251 127.916 124.289 127.614 124.308C127.614 124.496 127.219 124.477 127.389 124.741C127.238 124.854 127.426 125.136 127.163 125.174C126.956 125.249 126.748 125.324 126.937 125.607C127.144 125.908 126.673 125.832 126.711 126.04C126.221 125.964 126.711 126.397 126.466 126.454C126.428 126.623 126.09 126.604 126.24 126.868C126.24 127.037 126.24 127.226 125.996 127.263C126.56 127.734 125.694 127.451 125.77 127.64C125.431 127.64 125.676 127.922 125.544 128.016C125.6 128.204 125.13 128.11 125.318 128.374C125.205 128.468 125.393 128.731 125.092 128.713C125.337 128.995 124.716 128.807 124.866 129.033C124.81 129.145 124.772 129.277 124.64 129.353C124.094 129.202 124.452 129.522 124.414 129.654C124.301 129.729 124.584 130.011 124.207 129.936C124.113 130.011 123.85 129.993 124 130.2C124.019 130.331 123.191 130.011 123.793 130.444C123.868 130.595 123.191 130.35 123.586 130.67C123.944 130.971 123.454 130.802 123.398 130.877C123.341 130.934 123.266 131.009 123.21 131.066C122.664 131.574 122.231 131.819 121.967 131.668C121.666 131.517 121.628 130.934 121.798 130.049C121.798 129.955 121.515 129.71 121.854 129.786C121.892 129.71 121.685 129.484 121.93 129.503C121.515 129.183 121.93 129.277 122.005 129.202C122.024 129.089 122.231 129.07 122.099 128.882C121.892 128.637 122.344 128.75 122.212 128.543C122.551 128.581 122.532 128.449 122.325 128.204C122.664 128.242 122.381 127.96 122.457 127.847C122.946 127.96 122.701 127.677 122.588 127.47C122.494 127.263 122.777 127.263 122.739 127.094C122.89 127.018 122.758 126.793 122.89 126.698C122.758 126.473 122.758 126.303 123.059 126.303C122.984 126.096 123.172 126.021 123.247 125.889C123.153 125.663 123.417 125.625 123.435 125.475C123.435 125.287 124.019 125.437 123.643 125.042C123.643 124.872 123.868 124.797 123.85 124.609C123.981 124.496 124.113 124.383 124.075 124.176C124.603 124.27 124.414 123.969 124.301 123.743C124.245 123.517 124.395 123.423 124.527 123.31C124.565 123.141 124.659 123.009 124.753 122.877C124.697 122.67 125.092 122.689 124.979 122.463C124.866 122.218 125.337 122.294 125.224 122.049C125.167 121.842 125.167 121.672 125.468 121.654C125.544 121.522 126.033 121.597 125.694 121.277C125.676 121.108 125.224 120.694 125.92 120.901C125.826 120.694 126.353 120.807 126.146 120.543C126.673 120.656 126.297 120.317 126.372 120.204C126.523 120.129 126.748 120.091 126.598 119.884C126.428 119.658 126.843 119.715 126.824 119.564C126.617 119.319 127.294 119.527 127.05 119.263C127.163 119.188 127.125 119.037 127.257 118.981C126.673 118.548 127.37 118.792 127.464 118.717C127.596 118.661 127.144 118.322 127.671 118.472C127.238 118.134 127.69 118.265 127.878 118.246C128.066 118.246 127.765 117.983 128.066 118.039C127.765 117.795 128.33 117.983 128.254 117.851C128.518 117.889 128.33 117.719 128.424 117.682C128.386 117.588 128.424 117.531 128.593 117.55C128.65 117.512 128.706 117.475 128.744 117.437C129.045 117.23 129.309 117.155 129.478 117.249V117.23Z" fill="#10389B"/>
<path d="M146.759 117.211C146.759 117.399 146.345 117.606 145.592 117.776C145.46 117.795 145.329 117.832 145.178 117.87C145.027 117.926 144.877 117.983 144.707 117.945C144.538 117.682 144.369 118.435 144.199 118.02C144.011 117.908 143.823 118.02 143.634 118.096C143.446 118.19 143.239 117.926 143.013 118.171C142.806 118.679 142.58 117.606 142.354 118.246C142.128 118.378 141.884 118.34 141.639 118.322C141.394 117.926 141.15 118.322 140.886 118.397C140.623 117.926 140.359 118.133 140.096 118.453C139.832 117.813 139.55 117.907 139.267 118.51C138.985 118.529 138.684 118.284 138.401 118.566C138.1 118.604 137.799 118.736 137.498 118.623C137.197 119.056 136.877 119.037 136.557 118.66C136.237 119.131 135.917 118.943 135.578 118.698C135.239 118.435 134.919 119.112 134.58 118.736C134.241 118.698 133.902 118.849 133.545 118.773C133.187 118.585 132.848 118.378 132.491 118.792C132.133 118.905 131.775 119.056 131.418 118.792C131.06 119.282 130.684 119.075 130.307 118.792C129.931 118.868 129.554 118.529 129.178 118.792C128.801 118.717 128.425 118.999 128.029 118.792C127.653 118.642 127.276 118.491 126.9 118.792C126.523 119.112 126.147 118.66 125.77 118.792C125.394 118.322 125.036 118.943 124.66 118.792C124.302 118.83 123.945 118.529 123.587 118.792C123.229 118.868 122.872 118.962 122.533 118.773C122.194 119.489 121.836 118.585 121.497 118.736C121.159 118.435 120.82 118.773 120.5 118.698C120.161 118.83 119.841 118.378 119.521 118.66C119.201 118.604 118.881 118.886 118.58 118.623C118.279 118.98 117.977 118.322 117.676 118.566C117.375 118.566 117.093 118.585 116.81 118.51C116.528 117.964 116.246 118.416 115.982 118.453C115.7 118.397 115.436 118.773 115.191 118.397C114.928 118.359 114.683 118.115 114.438 118.322C114.194 118.397 113.949 117.512 113.723 118.246C113.497 118.378 113.271 117.682 113.064 118.171C112.857 118.623 112.65 118.115 112.443 118.096C112.255 118.058 112.048 118.039 111.878 118.02C110.26 117.776 109.318 117.493 109.318 117.211C109.318 116.872 110.467 116.571 112.443 116.307C112.65 116.289 112.838 115.893 113.064 116.232C113.271 116.232 113.497 115.931 113.723 116.157C113.949 115.649 114.194 116.063 114.438 116.082C114.683 116.063 114.928 116.232 115.191 116.025C115.455 115.724 115.719 116.176 115.982 115.969C116.246 116.289 116.528 116.195 116.81 115.912C117.093 116.213 117.375 115.837 117.676 115.856C117.977 116.326 118.279 116.006 118.58 115.799C118.881 115.63 119.201 115.875 119.521 115.762C119.841 115.856 120.161 115.63 120.5 115.724C120.839 115.498 121.159 115.423 121.497 115.686C121.836 115.536 122.175 115.649 122.533 115.649C122.89 115.46 123.229 115.667 123.587 115.63C123.945 115.536 124.302 116.138 124.66 115.611C125.018 115.536 125.394 115.686 125.77 115.611C126.147 115.686 126.523 115.743 126.9 115.611C127.276 116.119 127.653 115.799 128.029 115.611C128.406 115.46 128.801 115.536 129.178 115.611C129.554 115.555 129.931 115.592 130.307 115.611C130.684 115.46 131.041 115.837 131.418 115.611C131.775 115.385 132.133 115.856 132.491 115.63C132.848 115.479 133.206 115.404 133.545 115.649C133.902 115.649 134.241 116.119 134.58 115.686C134.919 115.592 135.258 115.009 135.578 115.724C135.917 115.536 136.237 116.063 136.557 115.762C136.877 116.289 137.197 115.78 137.498 115.799C137.799 115.912 138.1 116.082 138.401 115.856C138.703 115.611 138.985 115.987 139.267 115.912C139.55 115.611 139.832 116.308 140.096 115.969C140.359 116.044 140.641 115.931 140.886 116.025C141.15 115.31 141.394 116.025 141.639 116.082C141.884 116.176 142.128 115.611 142.354 116.157C142.58 115.611 142.806 116.082 143.013 116.232C143.22 116.383 143.427 116.006 143.634 116.307C143.841 115.931 144.03 116.515 144.199 116.383C144.387 116.628 144.557 116.383 144.707 116.458C144.877 116.383 145.027 116.402 145.178 116.533C145.329 116.571 145.46 116.59 145.592 116.627C146.345 116.797 146.759 117.004 146.759 117.192V117.211Z" fill="#10389B"/>
<path d="M100.339 173.137C100.132 173.137 99.9441 172.873 99.7746 172.403C99.737 172.328 99.7182 172.233 99.6805 172.139C99.6241 172.045 99.5676 171.951 99.5864 171.857C99.8499 171.763 99.097 171.65 99.5111 171.537C99.6241 171.424 99.5111 171.311 99.4358 171.179C99.3417 171.048 99.6052 170.935 99.3605 170.784C98.8523 170.652 99.9252 170.502 99.2852 170.37C99.1534 170.219 99.1911 170.087 99.2099 169.918C99.6052 169.767 99.2099 169.617 99.1346 169.447C99.6052 169.278 99.3982 169.127 99.0782 168.958C99.7182 168.789 99.624 168.619 99.0217 168.431C99.0029 168.262 99.2476 168.073 98.9652 167.885C98.9276 167.697 98.7958 167.509 98.9087 167.32C98.4758 167.132 98.4946 166.925 98.8711 166.737C98.4005 166.53 98.5887 166.342 98.8334 166.134C99.097 165.927 98.4193 165.72 98.7958 165.513C98.8334 165.306 98.6829 165.08 98.7581 164.873C98.9464 164.647 99.1535 164.44 98.7205 164.214C98.6076 163.988 98.457 163.763 98.7017 163.537C98.2123 163.311 98.4193 163.085 98.7017 162.84C98.6264 162.614 98.9652 162.37 98.7017 162.144C98.777 161.918 98.4758 161.673 98.7017 161.428C98.8523 161.184 98.984 160.958 98.7017 160.713C98.3817 160.487 98.8334 160.243 98.7017 160.017C99.1535 159.791 98.5511 159.565 98.7017 159.32C98.664 159.094 98.9652 158.868 98.7017 158.643C98.6076 158.417 98.5323 158.21 98.7205 157.984C98.0052 157.777 98.9087 157.551 98.7393 157.344C99.0405 157.137 98.7017 156.93 98.777 156.722C98.6452 156.515 99.097 156.308 98.8146 156.12C98.8711 155.913 98.5887 155.725 98.8523 155.537C98.4946 155.348 99.1535 155.16 98.8899 154.972C98.8899 154.784 98.8711 154.595 98.9464 154.426C99.4923 154.238 99.0405 154.068 99.0029 153.899C99.0593 153.729 98.6829 153.56 99.0593 153.409C99.097 153.24 99.3417 153.089 99.1158 152.939C99.0405 152.788 99.9252 152.638 99.1911 152.487C99.0593 152.337 99.7558 152.205 99.2664 152.073C98.8146 151.941 99.3229 151.809 99.3417 151.696C99.3605 151.565 99.3982 151.452 99.417 151.339C99.6429 150.322 99.9252 149.739 100.226 149.739C100.565 149.739 100.866 150.454 101.13 151.678C101.168 151.809 101.544 151.922 101.205 152.054C101.205 152.186 101.506 152.318 101.281 152.468C101.789 152.6 101.375 152.751 101.356 152.92C101.375 153.071 101.224 153.221 101.431 153.391C101.732 153.541 101.281 153.711 101.488 153.88C101.168 154.049 101.262 154.219 101.544 154.407C101.243 154.577 101.619 154.765 101.601 154.953C101.13 155.141 101.469 155.329 101.657 155.518C101.826 155.706 101.582 155.913 101.695 156.101C101.601 156.308 101.826 156.497 101.732 156.704C101.958 156.911 102.034 157.118 101.77 157.325C101.921 157.532 101.808 157.758 101.808 157.965C101.996 158.172 101.789 158.398 101.845 158.624C101.939 158.85 101.337 159.075 101.864 159.301C101.939 159.527 101.789 159.753 101.864 159.998C101.808 160.224 101.732 160.468 101.864 160.694C101.356 160.939 101.676 161.165 101.864 161.41C102.015 161.654 101.939 161.88 101.864 162.125C101.921 162.351 101.883 162.596 101.864 162.821C102.015 163.047 101.638 163.292 101.864 163.518C102.09 163.744 101.619 163.97 101.864 164.196C102.015 164.421 102.09 164.629 101.845 164.854C101.845 165.062 101.375 165.287 101.826 165.494C101.921 165.702 102.523 165.909 101.789 166.116C101.977 166.323 101.45 166.53 101.751 166.718C101.224 166.925 101.732 167.113 101.714 167.302C101.619 167.49 101.431 167.678 101.676 167.866C101.921 168.054 101.544 168.243 101.619 168.412C101.921 168.582 101.224 168.77 101.563 168.939C101.488 169.109 101.619 169.278 101.506 169.429C102.222 169.579 101.506 169.749 101.45 169.899C101.356 170.05 101.921 170.2 101.375 170.332C101.921 170.483 101.45 170.615 101.299 170.746C101.149 170.878 101.525 171.01 101.224 171.123C101.601 171.255 101.017 171.368 101.149 171.48C100.904 171.593 101.149 171.706 101.073 171.8C101.149 171.895 101.13 171.989 100.998 172.083C100.979 172.177 100.942 172.252 100.904 172.346C100.735 172.817 100.546 173.081 100.339 173.081V173.137Z" fill="#10389B"/>
<path d="M135.953 173.137C135.765 173.137 135.558 172.892 135.369 172.422C135.332 172.346 135.313 172.252 135.275 172.177C135.219 172.083 135.162 171.989 135.181 171.895C135.445 171.782 134.692 171.688 135.087 171.575C135.2 171.462 135.087 171.349 135.012 171.217C134.917 171.085 135.181 170.954 134.936 170.841C134.428 170.709 135.501 170.558 134.861 170.426C134.729 170.295 134.748 170.144 134.786 169.993C135.181 169.843 134.786 169.692 134.71 169.523C135.181 169.353 134.974 169.184 134.635 169.033C135.275 168.864 135.181 168.676 134.579 168.506C134.56 168.337 134.805 168.149 134.522 167.961C134.485 167.772 134.353 167.584 134.466 167.396C134.033 167.208 134.052 167.019 134.409 166.812C133.939 166.624 134.127 166.417 134.353 166.21C134.616 166.003 133.939 165.796 134.315 165.589C134.334 165.382 134.202 165.175 134.277 164.949C134.466 164.723 134.673 164.516 134.24 164.29C134.127 164.064 133.957 163.838 134.202 163.612C133.713 163.386 133.92 163.16 134.183 162.916C134.108 162.69 134.447 162.445 134.183 162.219C134.259 161.993 133.957 161.749 134.183 161.504C134.334 161.259 134.466 161.033 134.183 160.789C133.863 160.563 134.315 160.318 134.183 160.092C134.635 159.847 134.033 159.64 134.183 159.396C134.127 159.17 134.447 158.944 134.183 158.718C134.089 158.492 133.995 158.285 134.183 158.059C133.468 157.852 134.353 157.626 134.202 157.419C134.503 157.212 134.146 157.005 134.221 156.798C134.089 156.591 134.541 156.384 134.259 156.196C134.315 155.988 134.033 155.8 134.296 155.612C133.939 155.424 134.597 155.217 134.334 155.047C134.334 154.859 134.315 154.671 134.372 154.501C134.917 154.313 134.466 154.144 134.428 153.974C134.485 153.805 134.108 153.654 134.485 153.485C134.522 153.315 134.767 153.165 134.541 153.014C134.466 152.864 135.35 152.694 134.597 152.581C134.466 152.431 135.162 152.299 134.673 152.167C134.221 152.035 134.729 151.904 134.748 151.772C134.767 151.64 134.805 151.527 134.823 151.414C135.049 150.398 135.313 149.814 135.614 149.814C135.953 149.814 136.273 150.53 136.536 151.753C136.555 151.866 136.95 151.998 136.612 152.13C136.612 152.261 136.913 152.393 136.687 152.544C137.195 152.675 136.781 152.826 136.762 152.977C136.781 153.127 136.63 153.297 136.838 153.447C137.139 153.598 136.687 153.786 136.913 153.937C136.593 154.106 136.687 154.275 136.969 154.464C136.668 154.652 137.045 154.821 137.026 155.01C136.555 155.198 136.894 155.386 137.082 155.574C137.252 155.763 137.007 155.97 137.139 156.158C137.045 156.365 137.27 156.553 137.176 156.76C137.402 156.967 137.496 157.174 137.214 157.381C137.365 157.589 137.252 157.814 137.252 158.021C137.44 158.247 137.252 158.454 137.289 158.68C137.383 158.906 136.781 159.132 137.327 159.358C137.402 159.584 137.252 159.81 137.346 160.054C137.289 160.28 137.214 160.525 137.346 160.751C136.838 160.996 137.158 161.222 137.346 161.466C137.496 161.711 137.421 161.937 137.346 162.182C137.402 162.426 137.383 162.652 137.346 162.878C137.496 163.104 137.139 163.349 137.346 163.575C137.572 163.8 137.12 164.026 137.346 164.252C137.496 164.478 137.591 164.685 137.346 164.911C137.346 165.137 136.875 165.344 137.327 165.551C137.44 165.758 138.023 165.965 137.308 166.172C137.496 166.379 136.969 166.586 137.27 166.775C136.743 166.982 137.252 167.17 137.233 167.358C137.139 167.546 136.95 167.735 137.195 167.923C137.459 168.111 137.063 168.299 137.158 168.469C137.459 168.638 136.762 168.826 137.101 168.996C137.026 169.165 137.158 169.335 137.045 169.485C137.76 169.636 137.045 169.805 136.988 169.956C136.894 170.106 137.459 170.257 136.932 170.408C137.478 170.539 137.007 170.69 136.856 170.822C136.706 170.954 137.082 171.085 136.781 171.217C137.158 171.33 136.574 171.462 136.706 171.575C136.461 171.688 136.706 171.801 136.63 171.895C136.725 171.989 136.687 172.083 136.555 172.177C136.536 172.271 136.499 172.347 136.48 172.441C136.31 172.911 136.122 173.175 135.934 173.175L135.953 173.137Z" fill="#10389B"/>
<path d="M76.3772 173.137C76.5842 173.137 76.7725 175.414 76.9419 179.593C76.9607 180.29 76.9984 181.043 77.036 181.833C77.0925 182.624 77.149 183.49 77.1113 184.375C77.036 184.6 77.036 184.826 77.0737 185.052C77.0737 185.165 77.1113 185.278 77.1301 185.41L77.1678 185.579V185.673C77.1678 185.673 77.2054 185.711 77.2054 185.73C77.2619 185.862 77.2996 185.975 77.3184 186.088C77.3184 186.201 77.2996 186.332 77.2054 186.558C77.2054 186.633 77.1866 186.709 77.1678 186.784C77.4125 186.822 77.6949 186.803 77.9772 186.784H78.1843C78.1843 186.784 78.2408 186.746 78.2972 186.746H78.4666C78.7114 186.709 78.9372 186.69 79.182 186.671C80.2737 186.577 81.4032 186.84 82.5891 186.596C83.775 186.088 84.9797 187.16 86.2598 186.52C87.521 186.389 88.8198 186.426 90.1751 186.445C91.5116 186.84 92.9046 186.445 94.3352 186.389C95.7658 186.859 97.2153 186.652 98.7212 186.332C100.227 186.972 101.752 186.878 103.314 186.276C104.877 186.257 106.495 186.502 108.114 186.219C109.752 186.182 111.427 186.05 113.122 186.163C114.816 185.73 116.547 185.749 118.317 186.125C120.068 185.655 121.856 185.843 123.682 186.088C125.508 186.351 127.334 185.673 129.216 186.05C131.08 186.088 132.981 185.937 134.901 186.012C136.821 186.2 138.76 186.408 140.736 185.993C142.694 185.88 144.689 185.73 146.703 185.975C148.718 185.485 150.732 185.692 152.784 185.975C154.835 185.899 156.887 186.238 158.977 185.975C160.012 186.012 161.066 185.975 162.101 185.918H162.892L163.287 185.88H163.419C163.419 185.88 163.532 185.899 163.664 185.956C163.664 185.956 163.739 185.843 163.758 185.749V185.711C163.758 185.711 163.758 185.711 163.758 185.673V185.579L163.777 185.184V184.393C163.814 183.339 163.777 182.304 163.645 181.269C163.325 179.179 163.777 177.127 163.645 175.076C163.645 174.963 163.683 174.981 163.701 174.963C163.701 174.963 163.739 174.925 163.739 174.906C163.758 174.868 163.777 174.831 163.796 174.774C163.814 174.68 163.833 174.605 163.814 174.53C163.72 174.53 163.626 174.548 163.532 174.586C163.494 174.586 163.457 174.605 163.419 174.624H163.363C163.363 174.624 163.325 174.643 163.268 174.661H163.137C162.44 174.718 161.763 174.756 161.085 174.699C159.071 174.737 157.094 174.436 155.118 174.699C153.16 174.774 151.202 174.868 149.282 174.68C147.362 175.396 145.461 174.492 143.597 174.643C141.734 174.341 139.889 174.68 138.063 174.605C136.256 174.737 134.468 174.285 132.698 174.567C130.948 174.511 129.216 174.793 127.503 174.53C125.809 174.887 124.134 174.228 122.496 174.473C120.858 174.473 119.258 174.492 117.696 174.417C116.133 173.852 114.59 174.323 113.103 174.36C111.597 174.304 110.147 174.68 108.717 174.304C107.286 174.266 105.912 174.021 104.557 174.247C103.201 174.323 101.902 173.438 100.641 174.172C99.38 174.304 98.1565 173.607 96.9894 174.097C95.8035 174.548 94.6741 174.04 93.5823 174.021C92.4905 173.984 91.4552 173.965 90.4575 173.946C81.4973 173.701 76.3584 173.419 76.3584 173.137C76.3584 172.967 77.9396 172.817 80.8949 172.666C83.8315 172.515 88.1421 172.384 93.5823 172.252C94.6741 172.233 95.8035 171.838 96.9894 172.177C98.1565 172.177 99.38 171.875 100.641 172.101C101.902 171.593 103.201 172.007 104.557 172.026C105.893 172.007 107.286 172.177 108.717 171.97C110.147 171.668 111.597 172.12 113.103 171.913C114.609 172.233 116.133 172.139 117.696 171.857C119.258 172.158 120.858 171.781 122.496 171.8C124.134 172.271 125.809 171.951 127.503 171.744C129.197 171.574 130.929 171.819 132.698 171.706C134.468 171.8 136.237 171.593 138.063 171.668C139.889 171.443 141.715 171.367 143.597 171.631C145.461 171.48 147.362 171.593 149.282 171.593C151.202 171.405 153.141 171.612 155.118 171.574C157.075 171.48 159.071 172.083 161.085 171.555C161.763 171.537 162.459 171.537 163.137 171.555C164.36 171.555 165.584 171.574 166.807 171.593C166.807 172.195 166.807 172.798 166.807 173.4V174.304L166.845 175.151C166.789 177.203 166.713 179.254 166.845 181.344C166.582 182.379 166.544 183.433 166.582 184.469C166.582 184.732 166.6 184.996 166.619 185.259L166.657 185.655V185.749V185.918V186.276C166.732 187.273 166.789 188.271 166.826 189.269C165.866 189.306 164.869 189.325 163.852 189.344H162.798H162.007C160.953 189.344 159.918 189.288 158.883 189.25C156.793 189.306 154.741 189.269 152.689 189.25C150.638 189.401 148.623 189.024 146.609 189.25C144.595 189.476 142.619 189.024 140.642 189.231C138.684 189.382 136.727 189.457 134.807 189.212C132.887 189.212 130.985 188.742 129.122 189.175C127.258 189.269 125.414 189.852 123.588 189.137C121.781 189.325 119.973 188.779 118.223 189.099C116.472 188.572 114.74 189.081 113.027 189.062C111.333 188.968 109.658 188.779 108.02 189.005C106.383 189.25 104.783 188.873 103.22 188.949C101.658 189.25 100.114 188.553 98.6271 188.892C97.1212 188.817 95.6717 188.93 94.2411 188.836C92.8105 189.551 91.4363 188.836 90.081 188.779C88.7445 188.666 87.4268 189.25 86.1656 188.704C84.9044 189.25 83.6809 188.779 82.495 188.629C81.3091 188.478 80.1796 188.855 79.0878 188.553C78.8431 188.629 78.5984 188.666 78.3725 188.685C78.316 188.685 78.2596 188.685 78.2031 188.685H77.9396C77.7513 188.685 77.5819 188.648 77.4125 188.629C76.6972 188.553 76.1136 188.459 75.4925 188.459C75.4925 188.309 75.4925 188.139 75.4736 188.008C75.6054 187.179 75.6054 186.558 75.5866 185.88C75.5866 185.636 75.5678 185.391 75.5489 185.146C75.5489 184.92 75.5489 184.695 75.5489 184.469C75.4548 183.565 75.4925 182.718 75.6242 181.927C75.6619 181.118 75.6807 180.384 75.7183 179.687C75.8878 175.508 76.076 173.231 76.2831 173.231L76.3772 173.137Z" fill="#10389B"/>
<path d="M160.294 137.07C160.087 137.07 159.899 135.489 159.729 132.609C159.71 132.12 159.673 131.611 159.635 131.065C159.578 130.52 159.522 129.917 159.56 129.315C159.823 128.694 159.07 128.035 159.484 127.357C159.597 126.661 159.484 125.945 159.409 125.192C159.315 124.439 159.578 123.649 159.334 122.839C158.826 122.03 159.899 121.183 159.258 120.317C159.127 119.451 159.164 118.548 159.183 117.606C159.578 116.684 159.183 115.724 159.127 114.745C159.597 113.766 159.39 112.75 159.07 111.714C159.71 110.679 159.616 109.625 159.014 108.533C158.995 107.441 159.24 106.35 158.957 105.22C158.92 104.091 158.788 102.942 158.901 101.757C158.468 100.589 158.487 99.3847 158.863 98.1612C158.393 96.9376 158.581 95.714 158.826 94.4528C159.089 93.1916 158.411 91.9304 158.788 90.6316C158.826 89.3327 158.675 88.0339 158.75 86.6974C158.938 85.3797 159.146 84.0244 158.731 82.6691C158.618 81.3138 158.468 79.9396 158.713 78.5466C158.223 77.1537 158.43 75.7607 158.713 74.3489C158.637 72.9371 158.976 71.5065 158.713 70.0759C158.788 68.6452 158.487 67.1958 158.713 65.7275C158.863 64.2593 159.014 62.8098 158.713 61.3792C158.393 59.9486 158.844 58.5179 158.713 57.1061C159.183 55.6943 158.562 54.2826 158.713 52.9084C158.694 52.212 158.75 51.5343 158.807 50.8378V50.5742C158.807 50.5742 158.826 50.5366 158.826 50.499C158.826 50.4613 158.826 50.4236 158.826 50.386C158.826 50.3107 158.788 50.2543 158.731 50.2543L158.543 50.2919H158.468L158.43 50.3107H158.317C157.658 50.3107 157.018 50.2919 156.36 50.1978C155.042 50.9131 153.724 50.0095 152.425 50.1601C151.127 49.8589 149.865 50.1978 148.604 50.1225C147.343 50.2542 146.119 49.8025 144.896 50.0848C143.672 50.0284 142.486 50.3107 141.319 50.0472C140.152 50.4048 138.985 49.746 137.856 49.9907C136.726 49.9907 135.616 50.0095 134.543 49.9342C133.451 49.3883 132.397 49.8401 131.361 49.8778C130.326 49.8213 129.328 50.1978 128.331 49.8213C127.352 49.7836 126.392 49.5389 125.47 49.746C125.281 49.746 125.093 49.746 124.924 49.7083C124.829 49.6895 124.735 49.6707 124.641 49.633C124.528 49.6142 124.528 49.5766 124.472 49.5578C124.284 49.4448 123.982 49.3507 123.813 49.4072C123.813 49.5389 123.813 49.7271 123.907 49.9154C123.907 50.0283 123.851 50.1036 123.775 50.1789C123.662 50.3484 123.531 50.5178 123.418 50.6872C123.173 51.0448 122.966 51.4025 123.041 51.8731C123.154 52.7955 122.382 53.3226 122.081 54.019C121.78 54.7155 121.479 55.3555 121.196 55.9955C118.655 61.6427 117.055 64.824 116.773 64.711C116.472 64.5793 117.827 60.4003 120.406 53.3414C120.669 52.626 120.594 51.7602 121.215 51.139C121.366 50.7625 121.46 50.3484 121.573 49.9531C121.611 49.8401 121.629 49.746 121.667 49.6519L121.724 49.5013L121.799 49.3131C121.931 48.9931 122.081 48.673 122.251 48.4095C122.269 48.0707 122.345 47.7318 122.439 47.4118C122.985 47.3365 123.625 47.3742 124.246 47.4118H124.472L124.585 47.4495H124.66L124.942 47.5059C125.131 47.5247 125.3 47.5436 125.488 47.5624C126.411 47.5436 127.371 47.713 128.35 47.5059C129.328 47.2047 130.345 47.6565 131.38 47.4495C132.416 47.7695 133.47 47.6753 134.561 47.393C135.634 47.6942 136.745 47.3177 137.874 47.3365C139.004 47.8071 140.152 47.4683 141.338 47.28C142.505 47.1106 143.71 47.3554 144.915 47.2424C146.138 47.3365 147.362 47.1295 148.623 47.2048C149.884 46.9789 151.145 46.9036 152.444 47.1671C153.743 47.0165 155.042 47.1295 156.378 47.1295C157.018 47.0354 157.677 47.0353 158.336 47.0542C158.92 47.0542 159.484 47.073 160.068 47.0918C160.67 47.0918 161.273 47.0918 161.894 47.0918V47.28C161.931 47.8824 161.894 48.5413 161.875 49.1813C161.856 49.5013 161.837 49.8213 161.819 50.1225L161.781 50.5742L161.743 50.8378C161.668 51.5343 161.649 52.212 161.913 52.9084C161.988 54.3014 161.837 55.6943 161.913 57.1061C161.856 58.5179 161.781 59.9486 161.913 61.3792C161.386 62.8098 161.706 64.2593 161.913 65.7275C162.063 67.177 161.988 68.6264 161.913 70.0759C161.969 71.5065 161.931 72.9371 161.913 74.3489C162.063 75.7607 161.687 77.1537 161.913 78.5466C162.139 79.9396 161.668 81.3138 161.894 82.6691C162.044 84.0244 162.12 85.3609 161.875 86.6974C161.875 88.0339 161.404 89.3327 161.837 90.6316C161.931 91.9304 162.515 93.1916 161.8 94.4528C161.988 95.714 161.461 96.9376 161.762 98.1612C161.235 99.3847 161.743 100.571 161.724 101.757C161.63 102.924 161.442 104.091 161.668 105.22C161.913 106.35 161.536 107.46 161.611 108.533C161.913 109.625 161.216 110.679 161.555 111.714C161.48 112.75 161.593 113.747 161.499 114.745C162.214 115.724 161.499 116.684 161.442 117.606C161.348 118.529 161.913 119.432 161.367 120.317C161.913 121.183 161.442 122.03 161.291 122.839C161.141 123.649 161.517 124.439 161.216 125.192C161.593 125.945 161.009 126.661 161.141 127.357C160.896 128.054 161.141 128.694 161.066 129.315C161.16 129.936 161.122 130.52 160.99 131.065C160.953 131.611 160.934 132.138 160.896 132.609C160.727 135.489 160.52 137.07 160.331 137.07H160.294Z" fill="#10389B"/>
<path d="M126.259 79.9961C126.165 79.9772 126.09 79.7702 126.052 79.4314C126.033 79.262 126.014 79.0361 126.014 78.7914C126.014 78.6596 126.014 78.5278 126.014 78.396C126.014 78.2454 125.996 78.0949 125.977 77.9443C125.977 77.7372 125.958 77.5113 125.939 77.2666C125.92 77.0219 125.845 76.7772 125.864 76.4948C126.109 76.2125 125.356 75.9678 125.751 75.6477C125.826 75.3466 125.676 75.0454 125.544 74.7442C125.431 74.443 125.581 74.0666 125.261 73.7842C124.979 73.6901 125.073 73.483 125.149 73.2759C125.224 73.0688 125.243 72.8618 124.885 72.7865C124.753 72.6359 124.678 72.4853 124.603 72.3159C124.527 72.1465 124.452 71.9771 124.396 71.7889C124.49 71.5253 124.396 71.3559 124.264 71.2053C124.113 71.0547 123.906 70.9418 123.774 70.7912C123.868 70.49 123.812 70.2641 123.661 70.1135C123.511 69.9629 123.266 69.8876 123.003 69.8123C123.059 69.6241 123.078 69.4735 123.078 69.3417C123.078 69.2099 123.003 69.1158 122.908 69.0405C122.739 68.8899 122.457 68.8523 122.08 68.9088C121.93 68.7582 121.779 68.5888 121.628 68.4194C121.478 68.2499 121.29 68.0993 121.026 68.0993C120.819 67.9864 120.612 67.8923 120.405 67.7793C120.198 67.6476 119.991 67.5534 119.821 67.384C119.2 67.4969 118.805 67.3276 118.485 66.7817C118.165 66.9135 117.92 66.8946 117.694 66.7817C117.581 66.7252 117.468 66.6499 117.374 66.5746C117.261 66.4993 117.167 66.424 117.054 66.3299C116.847 66.1416 116.565 66.1605 116.301 66.2169C116.038 66.2546 115.774 66.2923 115.529 66.0664C115.266 66.0099 115.002 66.0287 114.739 66.0287C114.607 66.0287 114.475 66.0287 114.344 66.0287C114.212 66.0287 114.08 66.0287 113.948 66.0287C113.421 65.8217 112.819 65.6899 112.348 66.1793C112.085 66.2922 111.84 66.4052 111.576 66.4805C111.313 66.5558 111.049 66.6311 110.748 66.5746C110.654 66.7252 110.541 66.8381 110.447 66.9322C110.334 67.0264 110.221 67.0829 110.089 67.1205C109.826 67.1958 109.525 67.1769 109.223 67.2146C108.998 67.384 108.715 67.4405 108.452 67.5535C108.188 67.6852 107.943 67.817 107.793 68.0993C107.548 68.2311 107.36 68.4758 107.172 68.6829C106.965 68.8899 106.795 69.1158 106.532 69.2476C106.287 69.3982 106.023 69.5676 105.835 69.7935C105.647 70.0194 105.496 70.2641 105.44 70.5841C105.44 70.9229 105.252 71.13 105.045 71.3559C104.837 71.5629 104.668 71.8077 104.593 72.0712C104.423 72.1465 104.31 72.2594 104.254 72.3912C104.216 72.4477 104.197 72.523 104.179 72.5794C104.179 72.6547 104.16 72.73 104.141 72.8053C104.141 72.9559 104.141 73.1065 104.103 73.2571C104.103 73.3136 104.066 73.4077 104.066 73.4453C104.066 73.4453 104.066 73.4642 104.028 73.483C104.028 73.5395 103.953 73.5771 103.877 73.6524C103.821 73.7277 103.765 73.8218 103.915 73.7842C104.028 73.7654 104.103 73.7277 104.141 73.7277C104.179 73.7277 104.197 73.7653 104.216 73.8594C104.216 73.69 104.461 73.6524 104.593 73.6524C104.743 73.6524 104.875 73.7277 105.007 73.8218C105.27 73.9912 105.534 74.2359 105.835 74.2171C106.343 74.6312 106.983 74.4054 107.529 74.6124C108.113 74.6124 108.583 75.1583 109.167 74.9889C109.694 75.1583 110.296 74.9889 110.767 75.3654C111.369 75.1395 111.746 75.8736 112.311 75.7418C112.819 75.8548 113.308 75.9301 113.779 76.0995C114.155 76.7395 114.72 76.4007 115.191 76.4572C115.642 76.6078 116.169 76.3442 116.527 76.796C116.96 76.9277 117.337 77.2666 117.788 77.1349C118.221 77.1349 118.447 78.0948 118.974 77.4548C119.388 77.3984 119.633 78.1701 120.085 77.756C120.537 77.3795 120.781 77.9631 121.12 78.0384C121.459 78.1325 121.76 78.2266 122.061 78.3208C124.772 79.1302 126.316 79.7325 126.24 80.0337C126.165 80.3537 124.151 80.2596 120.744 79.8078C120.405 79.7702 119.972 80.0714 119.69 79.6573C119.332 79.582 118.88 79.789 118.541 79.4878C118.052 79.902 117.732 79.4125 117.318 79.2996C116.904 79.2431 116.508 78.9796 116.019 79.0925C115.511 79.2996 115.153 78.7537 114.664 78.8666C114.268 78.4525 113.779 78.4337 113.233 78.6219C112.819 78.2266 112.235 78.4902 111.746 78.3584C111.332 77.7937 110.748 78.0195 110.202 78.0948C109.638 78.1513 109.167 77.8125 108.583 77.8125C108.056 77.6054 107.454 77.6995 106.927 77.5113C106.325 77.6054 105.741 77.5678 105.214 77.1913C104.913 77.1913 104.612 77.1537 104.329 77.0784C104.179 77.0407 104.047 77.0031 103.896 76.9654C103.746 76.9278 103.652 76.8901 103.332 76.8337C102.767 76.796 102.183 76.6831 101.656 76.5325C101.11 76.3819 100.602 76.2313 100.019 76.1372C100.037 75.8925 100.15 75.5913 100.263 75.2901C100.376 75.0077 100.489 74.7066 100.602 74.4242C100.828 73.8595 100.941 73.3889 100.884 72.7865C100.922 72.6548 100.96 72.5042 100.997 72.3724C101.035 72.2595 101.054 72.203 101.092 72.1088C101.148 71.9394 101.223 71.7888 101.299 71.6194L101.393 71.3747L101.506 71.13C101.581 70.9606 101.656 70.81 101.713 70.6217C102.052 69.9817 102.522 69.417 102.786 68.7017C103.2 68.5511 103.482 68.2876 103.67 67.9676C103.859 67.6476 104.009 67.2899 104.197 66.9511C104.593 66.2734 105.252 65.8404 105.892 65.4451C106.193 65.2193 106.494 64.9934 106.795 64.7863C107.115 64.5981 107.454 64.4475 107.793 64.2781C108.075 64.0334 108.452 63.9581 108.809 63.8452C108.979 63.7887 109.167 63.751 109.336 63.6945C109.506 63.6381 109.675 63.5816 109.826 63.4687C110.146 63.2616 110.503 63.1863 110.861 63.1863C111.219 63.1863 111.576 63.1675 111.896 62.9981C112.555 62.7722 113.271 62.6027 113.948 62.8663C114.118 62.8663 114.287 62.8851 114.457 62.9227C114.626 62.9604 114.795 63.0169 114.946 63.0545C115.266 63.1486 115.586 63.1675 115.944 62.9981C116.282 62.9981 116.621 62.8851 116.96 62.8663C117.299 62.8474 117.619 62.9792 117.826 63.4122C117.995 63.4122 118.146 63.4498 118.297 63.5063C118.447 63.5627 118.579 63.6569 118.711 63.751C118.974 63.9204 119.257 64.071 119.595 64.0333C119.953 64.7675 120.687 64.5416 121.214 64.8804C121.44 65.0687 121.666 65.2569 121.892 65.464C122.118 65.6522 122.363 65.8028 122.664 65.8781C122.984 65.9346 123.172 66.1605 123.341 66.3863C123.511 66.6122 123.68 66.8381 123.906 67.0076C124.207 67.1017 124.32 67.3652 124.452 67.6287C124.509 67.7605 124.565 67.8734 124.64 67.9864C124.716 68.0993 124.81 68.1935 124.96 68.2311C125.092 68.457 125.261 68.6453 125.431 68.8523C125.581 69.0594 125.713 69.2664 125.807 69.5111C126.24 69.5299 126.391 69.7559 126.41 70.0194C126.429 70.2829 126.372 70.5841 126.447 70.81C126.504 71.0359 126.73 71.1865 126.862 71.3935C126.993 71.5818 127.087 71.7888 126.899 72.09C127.219 72.2029 127.332 72.41 127.332 72.6359C127.332 72.8618 127.219 73.1065 127.2 73.3136C127.144 73.7277 127.614 74.0289 127.351 74.4618C127.784 74.7818 127.238 75.196 127.407 75.516C127.163 75.8736 127.407 76.156 127.37 76.476C127.464 76.7772 127.445 77.0596 127.276 77.3231C127.219 77.5866 127.182 77.8313 127.144 78.0572C127.106 78.2266 127.069 78.3772 127.05 78.5278C126.993 78.6784 126.956 78.8102 126.918 78.9419C126.843 79.1866 126.749 79.3937 126.673 79.5631C126.523 79.9019 126.391 80.0525 126.297 80.0337L126.259 79.9961Z" fill="#10389B"/>
<path d="M129.836 180.328C129.836 180.535 129.328 180.723 128.406 180.892C128.255 180.911 128.086 180.949 127.916 180.987C127.747 181.043 127.559 181.1 127.352 181.062C127.163 180.798 126.937 181.551 126.73 181.137C126.505 181.024 126.279 181.137 126.034 181.212C125.789 181.307 125.545 181.043 125.281 181.288C125.017 181.796 124.754 180.723 124.472 181.363C124.189 181.495 123.907 181.457 123.606 181.438C123.304 181.043 123.003 181.438 122.683 181.495C122.363 181.024 122.043 181.231 121.723 181.551C121.403 180.911 121.046 181.005 120.707 181.608C120.349 181.627 120.01 181.382 119.634 181.664C119.276 181.702 118.9 181.834 118.523 181.721C118.147 182.154 117.77 182.135 117.375 181.758C116.98 182.229 116.584 182.041 116.189 181.796C115.794 181.532 115.38 182.21 114.965 181.834C114.551 181.815 114.137 181.947 113.704 181.871C113.29 181.683 112.857 181.476 112.405 181.89C111.972 182.003 111.539 182.154 111.088 181.89C110.636 182.38 110.203 182.172 109.751 181.89C109.299 181.965 108.848 181.627 108.377 181.89C107.925 181.815 107.455 182.116 106.984 181.89C106.514 181.74 106.043 181.589 105.591 181.89C105.139 182.21 104.669 181.758 104.217 181.89C103.765 181.42 103.313 182.041 102.88 181.89C102.429 181.928 101.996 181.627 101.563 181.89C101.13 181.984 100.697 182.06 100.283 181.871C99.8498 182.587 99.4357 181.683 99.0216 181.834C98.6074 181.532 98.1933 181.871 97.798 181.796C97.4027 181.928 97.0074 181.476 96.6121 181.758C96.2168 181.702 95.8403 181.984 95.4639 181.721C95.0874 182.078 94.7109 181.42 94.3532 181.664C93.9956 181.664 93.6379 181.683 93.2991 181.608C92.9603 181.043 92.6214 181.514 92.2826 181.551C91.9438 181.495 91.6238 181.871 91.3038 181.495C90.9838 181.457 90.6826 181.212 90.3814 181.438C90.0802 181.514 89.7978 180.629 89.5155 181.363C89.2331 181.495 88.9696 180.798 88.7061 181.288C88.4425 181.74 88.1978 181.231 87.9531 181.212C87.7084 181.175 87.4825 181.156 87.2566 181.137C85.2801 180.892 84.1318 180.61 84.1318 180.328C84.1318 179.989 85.5436 179.688 87.9343 179.424C88.179 179.405 88.4237 179.01 88.6872 179.349C88.9508 179.349 89.2143 179.048 89.4967 179.274C89.779 178.765 90.0614 179.179 90.3626 179.198C90.6637 179.179 90.9649 179.349 91.2849 179.142C91.6049 178.841 91.9249 179.292 92.2638 179.085C92.6026 179.405 92.9414 179.311 93.2803 179.029C93.6191 179.33 93.9768 178.954 94.3344 178.972C94.6921 179.443 95.0686 179.123 95.445 178.916C95.8215 178.746 96.198 178.991 96.5933 178.878C96.9886 178.972 97.3839 178.765 97.7792 178.841C98.1745 178.615 98.5886 178.539 99.0028 178.803C99.4169 178.652 99.831 178.765 100.264 178.765C100.697 178.577 101.111 178.784 101.544 178.746C101.977 178.652 102.41 179.255 102.862 178.728C103.313 178.652 103.746 178.803 104.198 178.728C104.65 178.803 105.102 178.859 105.572 178.728C106.024 179.236 106.495 178.916 106.965 178.728C107.436 178.577 107.888 178.652 108.358 178.728C108.81 178.671 109.281 178.709 109.732 178.728C110.184 178.577 110.636 178.954 111.069 178.728C111.521 178.502 111.954 178.972 112.387 178.746C112.82 178.596 113.252 178.521 113.685 178.765C114.118 178.765 114.533 179.236 114.947 178.803C115.361 178.709 115.775 178.107 116.17 178.841C116.565 178.652 116.961 179.179 117.356 178.878C117.751 179.405 118.128 178.897 118.504 178.916C118.881 179.01 119.257 179.198 119.615 178.972C119.973 178.728 120.33 179.104 120.688 179.029C121.027 178.728 121.366 179.424 121.704 179.085C122.043 179.161 122.363 179.048 122.664 179.142C122.984 178.427 123.286 179.142 123.587 179.198C123.888 179.292 124.17 178.728 124.453 179.274C124.735 178.728 124.999 179.198 125.262 179.349C125.526 179.499 125.77 179.123 126.015 179.424C126.26 179.048 126.486 179.631 126.712 179.499C126.937 179.744 127.145 179.499 127.333 179.575C127.54 179.499 127.728 179.518 127.898 179.65C128.067 179.688 128.236 179.707 128.387 179.744C129.309 179.914 129.818 180.102 129.818 180.309L129.836 180.328Z" fill="#10389B"/>
</svg>
